<svg xmlns="http://www.w3.org/2000/svg" xmlns:xlink="http://www.w3.org/1999/xlink" width="36.499" height="32.518" viewBox="0 0 36.499 32.518"><defs><clipPath id="a"><rect width="36.499" height="32.518" transform="translate(-1049 4254.897)" fill="#fff" stroke="#707070" stroke-width="1"/></clipPath></defs><g transform="translate(1049 -4254.897)" clip-path="url(#a)"><path d="M2.48,16.923a14.476,14.476,0,0,1,8.068,4.643A16.2,16.2,0,0,1,2.48,16.923ZM21.8,9.276a2.163,2.163,0,0,0,.481.738,2.234,2.234,0,0,0,.369.3,63.392,63.392,0,0,0-9.577,12.833,6.514,6.514,0,0,1-11.562-5.97,16.42,16.42,0,0,0,9.994,5.557.462.462,0,0,0,.463-.227A63.638,63.638,0,0,1,21.8,9.276Zm7.57-8.34a2.212,2.212,0,0,1,1.38.6,2.482,2.482,0,0,1,.632,1.272,1.369,1.369,0,0,1-.492,1.355l-6.08,5.178A1.311,1.311,0,1,1,22.96,7.481l5.172-6.086A1.305,1.305,0,0,1,29.371.935ZM27.427.8,22.254,6.886A2.521,2.521,0,0,0,21.7,8.057,64.133,64.133,0,0,0,11.587,21.37,15.2,15.2,0,0,0,1.42,15.914a.451.451,0,0,0-.411.254,7.353,7.353,0,0,0,0,7.436,7.422,7.422,0,0,0,12.865,0,62.12,62.12,0,0,1,9.757-12.98,2.452,2.452,0,0,0,1.776-.583L31.489,4.86A2.373,2.373,0,0,0,32.3,2.669,3.241,3.241,0,0,0,31.4.878,3.047,3.047,0,0,0,29.511.014,2.3,2.3,0,0,0,27.427.8Z" transform="matrix(0.985, 0.174, -0.174, 0.985, -1044.16, 4254.606)" fill="#f7e4bf" fill-rule="evenodd"/><path d="M7.44,27.424a7.547,7.547,0,0,1-6.517-3.77,7.439,7.439,0,0,1,0-7.537.552.552,0,0,1,.463-.3l.043,0a15.027,15.027,0,0,1,5.66,1.737,14.988,14.988,0,0,1,4.485,3.643A64.182,64.182,0,0,1,21.6,8.008a2.622,2.622,0,0,1,.574-1.187L27.351.732a2.4,2.4,0,0,1,2.17-.817,3.126,3.126,0,0,1,1.955.892,3.337,3.337,0,0,1,.92,1.847,2.457,2.457,0,0,1-.842,2.281l-6.081,5.182a2.554,2.554,0,0,1-1.656.614c-.05,0-.1,0-.147,0a62.211,62.211,0,0,0-9.709,12.927A7.55,7.55,0,0,1,7.44,27.424ZM1.386,16.012a.368.368,0,0,0-.292.208,7.238,7.238,0,0,0,0,7.334,7.322,7.322,0,0,0,12.692,0,62.381,62.381,0,0,1,9.773-13l.033-.033.046,0c.059,0,.118.007.177.007a2.353,2.353,0,0,0,1.526-.566l6.081-5.182a2.279,2.279,0,0,0,.774-2.1A3.133,3.133,0,0,0,31.334.949,2.928,2.928,0,0,0,29.5.114a2.2,2.2,0,0,0-2,.747L22.33,6.95a2.421,2.421,0,0,0-.536,1.125l-.006.03-.022.022A64.109,64.109,0,0,0,11.673,21.42l-.073.125-.091-.113a15.157,15.157,0,0,0-10.1-5.419ZM7.44,26.5A6.633,6.633,0,0,1,1.421,17.13l.065-.142.1.119a16.3,16.3,0,0,0,9.931,5.523.359.359,0,0,0,.363-.178A64.064,64.064,0,0,1,21.728,9.206l.108-.111.056.145a2.064,2.064,0,0,0,.459.7,2.137,2.137,0,0,0,.352.281l.1.066-.085.088A63.4,63.4,0,0,0,13.16,23.192,6.621,6.621,0,0,1,7.44,26.5Zm-5.9-9.144a6.413,6.413,0,0,0,11.447,5.735A63.666,63.666,0,0,1,22.5,10.324a2.221,2.221,0,0,1-.728-.872,63.949,63.949,0,0,0-9.712,13.1.561.561,0,0,1-.563.276A16.5,16.5,0,0,1,1.54,17.357Zm9.281,4.373-.294-.065a16.219,16.219,0,0,1-8.119-4.672l-.21-.224.3.057A14.5,14.5,0,0,1,10.624,21.5ZM2.773,17.085A16.067,16.067,0,0,0,10.265,21.4,14.329,14.329,0,0,0,2.773,17.085ZM23.815,9.833a1.319,1.319,0,0,1-.951-.4,1.448,1.448,0,0,1,.02-2.016L28.056,1.33a1.335,1.335,0,0,1,1.132-.5c.059,0,.123,0,.189.006a2.306,2.306,0,0,1,1.445.627,2.564,2.564,0,0,1,.66,1.328,1.468,1.468,0,0,1-.526,1.445l-6.08,5.178A1.657,1.657,0,0,1,23.815,9.833Zm5.373-8.8a1.141,1.141,0,0,0-.979.43L23.037,7.546a1.241,1.241,0,0,0-.031,1.745,1.123,1.123,0,0,0,.81.343,1.458,1.458,0,0,0,.931-.372l6.08-5.178a1.269,1.269,0,0,0,.458-1.264,2.384,2.384,0,0,0-.6-1.216,2.1,2.1,0,0,0-1.315-.569C29.3,1.031,29.243,1.029,29.188,1.029Z" transform="matrix(0.985, 0.174, -0.174, 0.985, -1044.16, 4254.606)" fill="#f7e4bf"/></g></svg>