<?xml version="1.0" encoding="UTF-8"?>
<svg xmlns="http://www.w3.org/2000/svg" xmlns:xlink="http://www.w3.org/1999/xlink" width="32" height="32" viewBox="0 0 32 32">
  <defs>
    <clipPath id="a">
      <rect width="32" height="32" transform="translate(5990 750)" fill="#fdfcf6" stroke="#707070" stroke-width="1"></rect>
    </clipPath>
  </defs>
  <g transform="translate(-5990 -750)" clip-path="url(#a)">
    <path d="M27.222,4.65A15.861,15.861,0,0,0,2.265,23.783L.016,32l8.406-2.205A15.84,15.84,0,0,0,16,31.725h.007A15.864,15.864,0,0,0,27.222,4.65Zm-11.217,24.4H16A13.163,13.163,0,0,1,9.292,27.21l-.481-.286L3.823,28.233l1.331-4.863-.313-.5a13.18,13.18,0,1,1,11.165,6.176Zm7.229-9.871c-.4-.2-2.344-1.157-2.707-1.289s-.627-.2-.891.2-1.023,1.289-1.255,1.553-.462.3-.858.1a10.822,10.822,0,0,1-3.186-1.967,11.951,11.951,0,0,1-2.2-2.745c-.231-.4,0-.591.174-.809a11.208,11.208,0,0,0,.99-1.355.729.729,0,0,0-.033-.694c-.1-.2-.891-2.148-1.221-2.942-.322-.772-.648-.668-.892-.68s-.5-.014-.759-.014a1.455,1.455,0,0,0-1.057.5,4.444,4.444,0,0,0-1.387,3.305,7.707,7.707,0,0,0,1.618,4.1c.2.264,2.794,4.266,6.768,5.982a22.679,22.679,0,0,0,2.259.835,5.432,5.432,0,0,0,2.5.157,4.082,4.082,0,0,0,2.674-1.884,3.311,3.311,0,0,0,.231-1.884C23.9,19.474,23.631,19.375,23.235,19.176Zm0,0" transform="translate(5990.061 750)" fill="#fdfcf6" fill-rule="evenodd"></path>
  </g>
</svg>
