<?xml version="1.0" encoding="UTF-8"?><svg id="Layer_2" xmlns="http://www.w3.org/2000/svg" xmlns:xlink="http://www.w3.org/1999/xlink" viewBox="0 0 500 500"><defs><style>.cls-1{clip-path:url(#clippath);}.cls-2{fill:none;}.cls-2,.cls-3{stroke-width:0px;}.cls-3{fill:#ffbe41;}</style><clipPath id="clippath"><rect class="cls-2" width="500" height="500"/></clipPath></defs><g id="Layer_1-2"><g class="cls-1"><path class="cls-3" d="M132.18,55.34l-9.67-17.38,9.08-5.05c4.02-2.24,7.88-1.4,10.11,2.6,2.22,3.99.91,7.75-3.11,9.98l-5.19,2.89,2.67,4.8-3.89,2.17ZM128.34,39.3l3.1,5.58,4.77-2.66c2.15-1.2,2.82-2.38,1.61-4.56-1.18-2.13-2.56-2.21-4.71-1.01l-4.77,2.66Z"/><path class="cls-3" d="M145.94,39.34c-1.96-4.33-.14-8.44,4.33-10.46,4.44-2.01,8.44-1.01,10.36,3.23.22.49.33.86.48,1.35l-11.04,4.99c1.05,2.03,2.43,2.49,5.05,1.3,2.41-1.09,2.96-2.09,2.44-3.25l-.12-.27,4.06-1.84.13.3c1.33,2.95-.6,6.3-4.91,8.25-4.52,2.04-8.61,1.22-10.78-3.6ZM149.16,36.29l7.2-3.25c-.92-1.74-2.35-2.03-4.73-.96-2.41,1.09-3.07,2.37-2.46,4.21Z"/><path class="cls-3" d="M165.78,38.61l-5.01-14,3.88-1.39,1.54,4.3.25-.09c-.48-2.48.4-5.31,4.06-6.62,3.83-1.37,6.53.44,7.64,3.54l3.12,8.72-4.19,1.5-2.62-7.32c-.8-2.24-2.06-2.86-4.63-1.94-2.66.95-3.23,2.35-2.38,4.73l2.53,7.07-4.19,1.5Z"/><path class="cls-3" d="M182.02,28.99c-.57-2.12.65-3.87,3.63-5.01l5.99-2.29-.15-.54c-.5-1.86-1.47-2.16-3.77-1.54-2.18.59-2.91,1.4-2.47,3.03l.03.11-4.33,1.17-.02-.09c-.96-3.56,1.36-6.82,6.09-8.1,4.79-1.29,7.72.57,8.73,4.32l2.27,8.43-4.01,1.08-.89-3.3-.23.06c-.06,2.41-1.7,4.3-4.88,5.16-3.1.83-5.35-.1-6-2.51ZM188.43,28.12c2.92-.79,4.32-1.9,3.88-3.97l-4.83,1.92c-1.01.36-1.39.77-1.21,1.46.21.77.9.93,2.16.59Z"/><path class="cls-3" d="M200.33,27.95l-2.71-14.62,4.06-.75.83,4.5.26-.05c-.07-2.52,1.25-5.18,5.07-5.89,4-.74,6.37,1.48,6.97,4.72l1.69,9.11-4.38.81-1.42-7.65c-.43-2.34-1.58-3.15-4.26-2.65-2.77.51-3.56,1.81-3.1,4.29l1.37,7.39-4.38.81Z"/><path class="cls-3" d="M217.56,16.36c-.41-4.14,2.01-7.06,6.44-7.5,3.01-.3,5.3.78,6.03,3.31l.24-.02-.36-3.57,4.14-.41,1.26,12.64c.52,5.17-2.39,7.79-7.67,8.31-4.79.48-8.01-1.35-8.38-5.07l4.43-.44c.17,1.65.87,2.09,3.88,1.79,2.84-.28,3.63-.96,3.35-3.85l-.33-3.34-.24.02c-.25,2.23-1.85,3.91-5.16,4.24-4.4.44-7.2-1.94-7.62-6.1ZM226.34,18.5c2.84-.28,4.15-1.22,3.94-3.26l-.03-.33c-.2-2.01-1.69-2.64-4.44-2.36-2.84.28-4,1.17-3.78,3.36.22,2.19,1.54,2.86,4.31,2.58Z"/><path class="cls-3" d="M242.34,14.44v-.86s4.73.08,4.73.08v.86c-.06,2.94.51,4.05,4.04,4.1,3.5.06,4.2-.97,4.25-3.76l.2-12.02,4.72.08-.2,12.02c-.08,5.1-2.57,8.12-9.04,8.02-6.44-.11-8.79-3.26-8.71-8.51Z"/><path class="cls-3" d="M262.07,19.14c.19-2.19,1.93-3.41,5.13-3.46l6.42-.1.05-.56c.17-1.92-.65-2.53-3.01-2.73-2.25-.19-3.22.32-3.36,2.01v.12s-4.48-.38-4.48-.38v-.09c.32-3.67,3.62-5.95,8.5-5.53,4.94.43,7.06,3.17,6.73,7.05l-.75,8.7-4.14-.36.29-3.4-.24-.02c-.88,2.25-3.07,3.46-6.35,3.18-3.2-.27-4.99-1.92-4.78-4.41ZM268.39,20.52c3.02.26,4.71-.31,5.01-2.4l-5.2.15c-1.07,0-1.57.25-1.63.96-.07.8.52,1.18,1.83,1.29Z"/><path class="cls-3" d="M282.42,24.75l-1.29-15.37,4.52.84.48,7-.23,4.67.29.05,2.09-4.77,3.38-5.83,5.63,1.05,1.03,6.65.24,5.21.29.05,1.49-4.43,2.93-6.37,4.47.83-6.86,13.85-5.46-1.01-1.21-7.5-.33-4.23-.32-.06-1.86,3.82-3.84,6.56-5.46-1.01Z"/><path class="cls-3" d="M306.61,25.82c.61-2.11,2.56-2.97,5.7-2.4l6.31,1.15.16-.54c.54-1.85-.14-2.61-2.42-3.27-2.17-.63-3.22-.31-3.69,1.31l-.03.11-4.31-1.25.03-.09c1.02-3.54,4.7-5.13,9.4-3.77,4.76,1.38,6.31,4.48,5.22,8.22l-2.43,8.38-3.99-1.16.95-3.28-.23-.07c-1.3,2.03-3.68,2.8-6.85,1.88-3.08-.89-4.52-2.85-3.83-5.25ZM312.54,28.4c2.91.84,4.67.61,5.38-1.38l-5.13-.87c-1.05-.21-1.59-.06-1.79.63-.22.77.29,1.26,1.54,1.62Z"/><path class="cls-3" d="M327.51,35.83l7.8-18.3,5.54,2.36.45,10.84-.11,5.02.3.13,3.49-3.58,7.99-7.24,5.57,2.38-7.8,18.3-4.1-1.75,3.96-9.29,1.36-2.81-.3-.13-2.29,2.41-7.32,6.56-4.97-2.12-.33-9.82.16-3.32-.3-.13-1.06,2.94-3.96,9.29-4.1-1.75Z"/><path class="cls-3" d="M355.97,40.29c2.29-4.16,6.68-5.17,10.97-2.8,4.26,2.35,5.87,6.15,3.62,10.23-.26.47-.5.78-.79,1.19l-10.61-5.85c-1,2.06-.54,3.43,1.99,4.82,2.31,1.28,3.45,1.12,4.07,0l.14-.26,3.9,2.15-.16.29c-1.56,2.83-5.41,3.29-9.54,1.01-4.34-2.39-6.13-6.16-3.58-10.79ZM360.33,41.04l6.92,3.81c.84-1.77.22-3.1-2.07-4.36-2.31-1.28-3.73-1.04-4.84.55Z"/><path class="cls-3" d="M372.13,49.3c2.61-3.97,7.06-4.63,11.16-1.93,4.07,2.68,5.36,6.59,2.8,10.48-.29.45-.56.74-.88,1.12l-10.12-6.66c-1.16,1.97-.8,3.38,1.6,4.96,2.21,1.45,3.35,1.39,4.05.32l.16-.25,3.72,2.45-.18.27c-1.78,2.7-5.65,2.86-9.59.26-4.14-2.73-5.63-6.62-2.72-11.03ZM376.43,50.38l6.6,4.34c.98-1.7.46-3.07-1.72-4.51-2.21-1.45-3.64-1.33-4.87.17Z"/><path class="cls-3" d="M446.39,135.08l17.52-9.41,4.91,9.15c2.18,4.05,1.28,7.9-2.75,10.07-4.03,2.16-7.76.8-9.93-3.26l-2.81-5.23-4.84,2.6-2.11-3.92ZM462.49,131.49l-5.62,3.02,2.58,4.81c1.17,2.17,2.34,2.85,4.54,1.67,2.14-1.15,2.25-2.52,1.09-4.69l-2.58-4.81Z"/><path class="cls-3" d="M462.18,149.07c4.36-1.89,8.45,0,10.4,4.49,1.94,4.47.89,8.45-3.39,10.31-.49.21-.87.31-1.36.46l-4.82-11.11c-2.05,1.02-2.52,2.39-1.38,5.03,1.05,2.42,2.05,3,3.22,2.49l.27-.12,1.77,4.09-.3.13c-2.97,1.29-6.29-.7-8.17-5.03-1.98-4.55-1.09-8.62,3.76-10.73ZM465.19,152.34l3.15,7.25c1.75-.89,2.07-2.32,1.03-4.72-1.05-2.42-2.32-3.1-4.17-2.53Z"/><path class="cls-3" d="M462.61,168.9l14.08-4.8,1.33,3.91-4.33,1.48.09.25c2.49-.44,5.31.48,6.56,4.16,1.31,3.85-.54,6.52-3.66,7.58l-8.77,2.99-1.44-4.22,7.36-2.51c2.25-.77,2.89-2.02,2.01-4.61-.91-2.67-2.3-3.26-4.69-2.45l-7.11,2.42-1.44-4.22Z"/><path class="cls-3" d="M471.99,185.3c2.13-.54,3.85.71,4.95,3.71l2.2,6.03.55-.14c1.87-.47,2.18-1.44,1.59-3.74-.55-2.19-1.36-2.93-3-2.52l-.12.03-1.1-4.35.09-.02c3.57-.9,6.8,1.46,8,6.21,1.22,4.81-.68,7.71-4.45,8.66l-8.46,2.14-1.02-4.03,3.31-.84-.06-.23c-2.41-.09-4.28-1.76-5.08-4.96-.79-3.11.18-5.34,2.59-5.96ZM472.76,191.72c.74,2.94,1.84,4.34,3.91,3.94l-1.84-4.86c-.35-1.01-.75-1.4-1.44-1.23-.78.2-.94.88-.62,2.15Z"/><path class="cls-3" d="M472.77,203.63l14.66-2.49.69,4.07-4.51.77.04.26c2.52-.04,5.16,1.32,5.81,5.15.68,4.01-1.57,6.35-4.82,6.9l-9.13,1.55-.75-4.39,7.67-1.3c2.34-.4,3.17-1.53,2.71-4.23-.47-2.78-1.75-3.59-4.24-3.16l-7.4,1.26-.75-4.39Z"/><path class="cls-3" d="M484.09,221.02c4.14-.35,7.03,2.12,7.41,6.55.26,3.02-.86,5.29-3.4,5.98l.02.24,3.58-.3.35,4.14-12.66,1.07c-5.18.44-7.75-2.5-8.2-7.8-.41-4.79,1.47-7.99,5.2-8.31l.38,4.44c-1.66.14-2.1.83-1.85,3.85.24,2.84.91,3.65,3.8,3.4l3.34-.28-.02-.24c-2.23-.29-3.89-1.91-4.17-5.22-.37-4.41,2.05-7.18,6.22-7.53ZM481.82,229.77c.24,2.84,1.16,4.16,3.2,3.99l.33-.03c2.01-.17,2.66-1.66,2.43-4.41-.24-2.84-1.12-4.02-3.3-3.83-2.19.19-2.88,1.5-2.65,4.28Z"/><path class="cls-3" d="M485.56,245.76l.86.02-.1,4.72-.86-.02c-2.94-.06-4.05.51-4.12,4.04-.07,3.5.95,4.21,3.74,4.26l12.02.25-.1,4.72-12.02-.25c-5.1-.1-8.11-2.6-7.98-9.07.13-6.44,3.3-8.78,8.55-8.67Z"/><path class="cls-3" d="M480.66,265.48c2.19.22,3.38,1.98,3.39,5.18v6.42s.57.06.57.06c1.92.19,2.54-.61,2.78-2.97.23-2.25-.27-3.22-1.96-3.39h-.12s.45-4.47.45-4.47h.09c3.66.38,5.89,3.71,5.4,8.58-.5,4.93-3.27,7.01-7.14,6.62l-8.69-.88.42-4.13,3.4.34.02-.24c-2.24-.91-3.42-3.12-3.09-6.4.32-3.19,1.99-4.96,4.47-4.71ZM479.19,271.78c-.3,3.01.24,4.71,2.33,5.04l-.07-5.2c.02-1.07-.23-1.58-.94-1.65-.8-.08-1.18.51-1.32,1.81Z"/><path class="cls-3" d="M474.76,285.73l15.39-1.06-.91,4.51-7.01.38-4.66-.3-.06.29,4.75,2.16,5.79,3.46-1.13,5.62-6.67.93-5.21.17-.06.29,4.41,1.55,6.33,3.03-.89,4.45-13.76-7.06,1.09-5.44,7.52-1.1,4.23-.27.06-.32-3.8-1.91-6.51-3.94,1.09-5.44Z"/><path class="cls-3" d="M473.32,309.93c2.1.64,2.93,2.6,2.32,5.74l-1.24,6.3.54.17c1.85.56,2.61-.1,3.3-2.38.66-2.16.36-3.21-1.26-3.71l-.11-.03,1.31-4.29.08.03c3.52,1.07,5.06,4.77,3.63,9.46-1.45,4.74-4.57,6.24-8.29,5.1l-8.35-2.55,1.21-3.98,3.27,1,.07-.23c-2.02-1.33-2.74-3.72-1.78-6.88.94-3.07,2.92-4.48,5.3-3.75ZM470.66,315.82c-.88,2.9-.68,4.67,1.3,5.39l.94-5.11c.23-1.05.08-1.59-.6-1.8-.77-.23-1.26.27-1.64,1.52Z"/><path class="cls-3" d="M463,330.65l18.18,8.08-2.45,5.51-10.85.28-5.02-.18-.13.3,3.52,3.55,7.12,8.1-2.46,5.53-18.18-8.08,1.81-4.07,9.22,4.1,2.79,1.4.13-.3-2.38-2.32-6.45-7.42,2.19-4.94,9.83-.18,3.32.21.13-.3-2.92-1.1-9.22-4.1,1.81-4.07Z"/><path class="cls-3" d="M458.12,359.04c4.13,2.35,5.07,6.75,2.64,11.01-2.41,4.23-6.23,5.78-10.28,3.47-.46-.26-.77-.51-1.18-.81l6-10.52c-2.04-1.03-3.42-.59-4.85,1.92-1.31,2.29-1.17,3.43-.06,4.07l.26.15-2.21,3.87-.28-.16c-2.81-1.6-3.21-5.46-.87-9.55,2.46-4.31,6.25-6.04,10.84-3.42ZM457.31,363.4l-3.91,6.86c1.76.87,3.1.26,4.39-2.01,1.31-2.3,1.09-3.72-.48-4.85Z"/><path class="cls-3" d="M448.88,375.08c3.93,2.67,4.52,7.13,1.77,11.18-2.74,4.03-6.67,5.27-10.52,2.65-.44-.3-.73-.57-1.11-.9l6.81-10.02c-1.96-1.19-3.37-.85-4.99,1.53-1.49,2.18-1.44,3.33-.38,4.05l.25.17-2.5,3.68-.27-.18c-2.68-1.82-2.77-5.69-.12-9.59,2.79-4.1,6.7-5.53,11.07-2.56ZM447.72,379.36l-4.44,6.53c1.69,1,3.07.5,4.54-1.66,1.49-2.18,1.38-3.62-.1-4.88Z"/><path class="cls-3" d="M366.31,445.57l9.53,17.46-9.12,4.98c-4.04,2.2-7.9,1.33-10.09-2.68-2.19-4.01-.85-7.75,3.19-9.96l5.21-2.84-2.63-4.82,3.91-2.13ZM370.01,461.65l-3.06-5.6-4.79,2.62c-2.16,1.18-2.84,2.36-1.64,4.55,1.17,2.14,2.54,2.23,4.7,1.05l4.79-2.62Z"/><path class="cls-3" d="M352.42,461.47c1.92,4.34.07,8.44-4.41,10.43-4.45,1.97-8.44.95-10.33-3.31-.22-.49-.32-.87-.47-1.35l11.08-4.91c-1.03-2.04-2.41-2.51-5.04-1.34-2.42,1.07-2.98,2.07-2.46,3.23l.12.27-4.07,1.8-.13-.3c-1.31-2.96.65-6.3,4.97-8.21,4.53-2.01,8.61-1.15,10.75,3.68ZM349.18,464.49l-7.22,3.2c.9,1.74,2.34,2.05,4.73.99,2.42-1.07,3.09-2.34,2.5-4.19Z"/><path class="cls-3" d="M332.6,462.03l4.9,14.04-3.9,1.36-1.51-4.32-.25.09c.46,2.48-.44,5.31-4.11,6.59-3.84,1.34-6.52-.49-7.61-3.6l-3.05-8.75,4.21-1.47,2.56,7.34c.78,2.24,2.04,2.87,4.62,1.97,2.66-.93,3.24-2.33,2.41-4.71l-2.47-7.09,4.21-1.47Z"/><path class="cls-3" d="M316.27,471.53c.55,2.13-.68,3.86-3.67,4.98l-6.01,2.24.14.55c.49,1.87,1.46,2.17,3.75,1.57,2.18-.57,2.92-1.38,2.5-3.01l-.03-.12,4.34-1.13.02.09c.93,3.56-1.42,6.81-6.16,8.05-4.8,1.25-7.71-.63-8.69-4.39l-2.2-8.45,4.02-1.05.86,3.3.23-.06c.08-2.41,1.74-4.29,4.92-5.12,3.1-.81,5.35.14,5.97,2.55ZM309.85,472.34c-2.93.76-4.33,1.87-3.92,3.94l4.85-1.88c1.01-.36,1.4-.76,1.22-1.45-.2-.78-.89-.93-2.15-.6Z"/><path class="cls-3" d="M297.93,472.43l2.59,14.65-4.06.72-.8-4.5-.26.05c.05,2.52-1.29,5.17-5.12,5.85-4,.71-6.36-1.53-6.93-4.77l-1.61-9.12,4.39-.78,1.36,7.66c.41,2.34,1.55,3.16,4.24,2.69,2.78-.49,3.57-1.78,3.13-4.26l-1.31-7.4,4.39-.78Z"/><path class="cls-3" d="M280.61,483.89c.38,4.14-2.07,7.05-6.5,7.46-3.02.28-5.29-.83-6-3.36l-.24.02.33,3.58-4.14.38-1.16-12.66c-.48-5.17,2.45-7.77,7.74-8.26,4.79-.44,8,1.41,8.34,5.14l-4.44.41c-.15-1.66-.85-2.1-3.87-1.82-2.84.26-3.64.93-3.38,3.83l.31,3.34.24-.02c.27-2.23,1.88-3.9,5.19-4.21,4.41-.4,7.19,1.99,7.57,6.16ZM271.85,481.68c-2.84.26-4.16,1.19-3.97,3.23l.03.33c.18,2.01,1.67,2.65,4.42,2.4,2.84-.26,4.01-1.14,3.81-3.33-.2-2.19-1.52-2.87-4.3-2.62Z"/><path class="cls-3" d="M255.9,485.55v.86s-4.73-.08-4.73-.08v-.86c.06-2.94-.51-4.05-4.04-4.1-3.5-.06-4.2.97-4.25,3.76l-.2,12.02-4.72-.08.2-12.02c.08-5.1,2.57-8.12,9.04-8.01,6.44.11,8.79,3.26,8.71,8.51Z"/><path class="cls-3" d="M236.14,480.76c-.21,2.19-1.96,3.39-5.15,3.42l-6.42.05-.05.56c-.18,1.92.63,2.53,2.99,2.76,2.25.21,3.22-.29,3.38-1.98v-.12s4.47.42,4.47.42v.09c-.35,3.67-3.67,5.92-8.54,5.46-4.94-.46-7.03-3.23-6.67-7.1l.82-8.69,4.14.39-.32,3.4.24.02c.9-2.24,3.1-3.44,6.38-3.13,3.19.3,4.97,1.96,4.74,4.44ZM229.83,479.33c-3.01-.28-4.71.27-5.02,2.36l5.2-.11c1.07.01,1.57-.24,1.64-.95.08-.8-.51-1.18-1.82-1.3Z"/><path class="cls-3" d="M215.85,475l1.17,15.38-4.52-.88-.43-7.01.27-4.67-.29-.06-2.13,4.76-3.42,5.81-5.62-1.09-.98-6.66-.2-5.21-.29-.06-1.52,4.42-2.98,6.35-4.46-.86,6.97-13.8,5.45,1.06,1.15,7.51.3,4.23.32.06,1.89-3.81,3.9-6.53,5.45,1.06Z"/><path class="cls-3" d="M191.64,473.74c-.63,2.11-2.58,2.95-5.72,2.36l-6.3-1.19-.16.54c-.55,1.85.12,2.61,2.4,3.29,2.16.64,3.21.34,3.7-1.29l.03-.11,4.3,1.28-.03.09c-1.05,3.53-4.74,5.09-9.43,3.7-4.75-1.41-6.27-4.53-5.16-8.26l2.49-8.37,3.98,1.19-.97,3.27.23.07c1.31-2.03,3.71-2.77,6.86-1.83,3.07.92,4.5,2.89,3.79,5.28ZM185.73,471.11c-2.9-.86-4.67-.65-5.39,1.34l5.12.91c1.05.22,1.59.07,1.79-.61.23-.77-.28-1.26-1.53-1.63Z"/><path class="cls-3" d="M170.85,463.56l-7.94,18.24-5.53-2.41-.36-10.84.15-5.02-.3-.13-3.52,3.55-8.05,7.18-5.55-2.42,7.94-18.24,4.08,1.78-4.03,9.25-1.38,2.8.3.13,2.31-2.4,7.37-6.51,4.95,2.16.25,9.83-.18,3.32.3.13,1.08-2.93,4.03-9.26,4.08,1.78Z"/><path class="cls-3" d="M142.41,458.88c-2.32,4.14-6.72,5.12-10.99,2.72-4.25-2.38-5.82-6.19-3.54-10.26.26-.47.5-.77.8-1.18l10.56,5.93c1.01-2.05.56-3.43-1.95-4.84-2.3-1.29-3.44-1.15-4.07-.03l-.15.26-3.88-2.18.16-.28c1.58-2.82,5.43-3.25,9.55-.94,4.32,2.43,6.08,6.21,3.5,10.81ZM138.05,458.1l-6.89-3.86c-.86,1.77-.24,3.1,2.04,4.38,2.3,1.29,3.72,1.07,4.85-.51Z"/><path class="cls-3" d="M126.32,449.75c-2.64,3.95-7.1,4.57-11.17,1.85-4.05-2.71-5.31-6.63-2.72-10.51.3-.44.56-.73.89-1.12l10.07,6.74c1.17-1.97.83-3.38-1.56-4.98-2.2-1.47-3.34-1.42-4.05-.35l-.17.25-3.7-2.48.18-.27c1.8-2.69,5.67-2.81,9.6-.19,4.12,2.76,5.58,6.67,2.64,11.06ZM122.03,448.63l-6.56-4.4c-.99,1.69-.48,3.07,1.69,4.53,2.2,1.47,3.63,1.36,4.88-.13Z"/><path class="cls-3" d="M55.25,367.67l-17.39,9.65-5.04-9.08c-2.23-4.02-1.39-7.89,2.61-10.1,4-2.22,7.75-.9,9.98,3.12l2.88,5.19,4.8-2.67,2.16,3.89ZM39.2,371.49l5.58-3.1-2.65-4.78c-1.2-2.15-2.38-2.82-4.56-1.61-2.13,1.18-2.22,2.55-1.02,4.71l2.65,4.78Z"/><path class="cls-3" d="M39.26,353.9c-4.33,1.95-8.44.13-10.46-4.34-2-4.44-1-8.44,3.25-10.36.49-.22.86-.32,1.35-.48l4.98,11.04c2.04-1.05,2.49-2.43,1.3-5.05-1.09-2.41-2.09-2.97-3.25-2.44l-.27.12-1.83-4.06.3-.13c2.95-1.33,6.3.61,8.24,4.92,2.04,4.52,1.21,8.61-3.61,10.78ZM36.21,350.68l-3.25-7.2c-1.74.91-2.03,2.35-.96,4.73,1.09,2.41,2.36,3.07,4.21,2.47Z"/><path class="cls-3" d="M38.55,334.08l-14.01,5-1.39-3.89,4.31-1.54-.09-.25c-2.48.48-5.32-.4-6.62-4.07-1.37-3.83.45-6.53,3.55-7.64l8.73-3.11,1.5,4.2-7.33,2.61c-2.24.8-2.86,2.06-1.94,4.63.95,2.66,2.35,3.23,4.73,2.38l7.08-2.53,1.5,4.2Z"/><path class="cls-3" d="M28.94,317.81c-2.12.57-3.86-.65-5-3.64l-2.29-5.99-.54.15c-1.86.5-2.16,1.47-1.54,3.76.59,2.18,1.4,2.91,3.03,2.47l.12-.03,1.16,4.33-.09.02c-3.55.96-6.82-1.36-8.09-6.09-1.29-4.79.57-7.72,4.33-8.72l8.43-2.27,1.08,4.01-3.3.89.06.23c2.41.06,4.3,1.7,5.16,4.89.83,3.1-.1,5.35-2.51,5.99ZM28.08,311.4c-.79-2.92-1.9-4.32-3.96-3.88l1.91,4.83c.36,1.01.77,1.39,1.46,1.21.77-.21.93-.9.59-2.16Z"/><path class="cls-3" d="M27.9,299.5l-14.62,2.7-.75-4.06,4.5-.83-.05-.26c-2.52.07-5.18-1.25-5.89-5.07-.74-4,1.48-6.37,4.72-6.97l9.11-1.68.81,4.38-7.65,1.41c-2.34.43-3.15,1.58-2.65,4.26.51,2.77,1.8,3.56,4.29,3.1l7.38-1.36.81,4.38Z"/><path class="cls-3" d="M16.34,282.28c-4.14.41-7.06-2.01-7.5-6.45-.3-3.01.79-5.3,3.31-6.03l-.02-.24-3.57.35-.41-4.14,12.64-1.25c5.17-.51,7.78,2.39,8.31,7.68.47,4.79-1.35,8.01-5.08,8.38l-.44-4.43c1.65-.16,2.09-.86,1.79-3.88-.28-2.84-.96-3.63-3.85-3.35l-3.34.33.02.24c2.23.26,3.91,1.85,4.24,5.16.44,4.4-1.94,7.2-6.11,7.62ZM18.48,273.5c-.28-2.84-1.22-4.15-3.25-3.94l-.33.03c-2.01.2-2.64,1.69-2.36,4.44.28,2.84,1.17,4,3.36,3.78,2.19-.22,2.86-1.54,2.58-4.31Z"/><path class="cls-3" d="M14.44,257.52h-.86s.08-4.73.08-4.73h.86c2.94.06,4.05-.51,4.1-4.04.06-3.5-.97-4.2-3.76-4.25l-12.02-.2.08-4.72,12.02.2c5.1.08,8.12,2.57,8.01,9.04-.11,6.44-3.26,8.79-8.51,8.71Z"/><path class="cls-3" d="M19.15,237.79c-2.19-.19-3.41-1.93-3.46-5.13l-.1-6.41-.56-.05c-1.92-.17-2.53.65-2.73,3.01-.19,2.25.32,3.21,2,3.36h.12s-.39,4.48-.39,4.48h-.09c-3.67-.33-5.94-3.62-5.52-8.5.43-4.94,3.17-7.05,7.05-6.72l8.69.75-.36,4.14-3.4-.29-.02.24c2.25.88,3.46,3.07,3.17,6.35-.28,3.19-1.92,4.99-4.41,4.77ZM20.53,231.47c.26-3.02-.31-4.7-2.4-5l.15,5.2c0,1.07.25,1.57.96,1.63.8.07,1.18-.52,1.29-1.82Z"/><path class="cls-3" d="M24.77,217.45l-15.37,1.28.84-4.52,7-.48,4.67.23.05-.29-4.77-2.1-5.83-3.38,1.05-5.63,6.65-1.03,5.21-.24.05-.29-4.43-1.49-6.37-2.94.83-4.47,13.85,6.87-1.02,5.46-7.5,1.2-4.23.33-.06.32,3.82,1.86,6.56,3.85-1.02,5.46Z"/><path class="cls-3" d="M25.86,193.21c-2.11-.61-2.97-2.56-2.4-5.7l1.15-6.31-.54-.16c-1.85-.54-2.61.14-3.27,2.42-.63,2.17-.31,3.22,1.31,3.69l.11.03-1.25,4.31-.09-.02c-3.54-1.03-5.13-4.7-3.76-9.41,1.38-4.76,4.49-6.3,8.22-5.22l8.38,2.43-1.16,3.99-3.28-.95-.07.23c2.03,1.3,2.8,3.69,1.88,6.85-.89,3.08-2.86,4.52-5.25,3.83ZM28.44,187.29c.84-2.91.61-4.68-1.38-5.38l-.87,5.13c-.21,1.05-.06,1.59.62,1.79.77.22,1.26-.28,1.62-1.54Z"/><path class="cls-3" d="M35.88,172.35l-18.29-7.81,2.37-5.54,10.84-.44,5.02.11.13-.3-3.57-3.5-7.24-8,2.38-5.57,18.29,7.81-1.75,4.09-9.28-3.96-2.81-1.36-.13.3,2.41,2.29,6.56,7.32-2.12,4.97-9.82.32-3.32-.16-.13.3,2.94,1.06,9.28,3.96-1.75,4.09Z"/><path class="cls-3" d="M40.36,143.9c-4.16-2.29-5.17-6.68-2.8-10.97,2.35-4.26,6.15-5.86,10.23-3.61.47.26.78.5,1.19.79l-5.85,10.61c2.06,1,3.43.54,4.83-1.98,1.28-2.31,1.12-3.45,0-4.07l-.26-.14,2.15-3.9.29.16c2.83,1.56,3.29,5.41,1.01,9.54-2.4,4.34-6.16,6.13-10.79,3.58ZM41.11,139.53l3.82-6.92c-1.77-.84-3.1-.22-4.36,2.07-1.28,2.31-1.04,3.73.55,4.85Z"/><path class="cls-3" d="M49.39,127.72c-3.96-2.61-4.62-7.07-1.92-11.15,2.68-4.06,6.59-5.36,10.48-2.79.45.29.74.56,1.12.88l-6.67,10.11c1.97,1.16,3.38.81,4.96-1.6,1.45-2.21,1.39-3.35.33-4.05l-.25-.16,2.45-3.72.27.18c2.7,1.78,2.85,5.65.25,9.59-2.73,4.14-6.62,5.62-11.03,2.71ZM50.48,123.42l4.35-6.59c-1.7-.98-3.07-.46-4.51,1.72-1.46,2.21-1.33,3.64.16,4.87Z"/><path id="_01" class="cls-3" d="M100.48,72.16c-.62-1.6-2.29-4.34-6.49-4.8-.73-.4-1.93-.44-2.45-.44-2.74,0-6.34,1.12-8.36,4.23-.92.53-2.3,2.03-3.25,3.88-.92,1.8-1.77,4.55-.64,7.55-.25,1.4.17,2.87,1.2,4.16,1.35,1.7,3.52,2.83,5.4,2.83.4,0,.77-.05,1.11-.15.41.12.96.18,1.59.18,2.68,0,6.14-1.11,7.92-4.21,1.96-.97,2.96-2.8,3.46-4.19.45-1.25.65-2.63.53-3.48.74-1.22.76-3.59-.01-5.57ZM91.54,68.36c.85,0,1.41.13,1.66.22l-3.87,8.12-4.65-5.2c1.75-2.3,4.63-3.14,6.85-3.14ZM80.43,81.41c-1.09-4.12,1.99-7.96,3.26-8.89l4.7,5.26-7.95,3.63ZM86.39,88.09c-.16.03-.33.05-.51.05-1.42,0-3.21-.96-4.27-2.29-.54-.68-1.12-1.73-.91-2.97l7.75-3.53-2.06,8.75ZM88.58,88.16c-.29,0-.53-.02-.72-.04l2.03-8.65,5.07,5.67c-1.99,2.86-5.62,3.01-6.37,3.01ZM98.59,80.75c-.4,1.11-1.19,2.55-2.68,3.32l-4.79-5.36,7.96-.4c-.01.54-.13,1.44-.49,2.44ZM99.33,76.87l-8.68.43,3.99-8.38c2.7.56,3.94,2.31,4.5,3.76.7,1.8.52,3.5.19,4.19ZM100.48,72.16c-.62-1.6-2.29-4.34-6.49-4.8-.73-.4-1.93-.44-2.45-.44-2.74,0-6.34,1.12-8.36,4.23-.92.53-2.3,2.03-3.25,3.88-.92,1.8-1.77,4.55-.64,7.55-.25,1.4.17,2.87,1.2,4.16,1.35,1.7,3.52,2.83,5.4,2.83.4,0,.77-.05,1.11-.15.41.12.96.18,1.59.18,2.68,0,6.14-1.11,7.92-4.21,1.96-.97,2.96-2.8,3.46-4.19.45-1.25.65-2.63.53-3.48.74-1.22.76-3.59-.01-5.57ZM91.54,68.36c.85,0,1.41.13,1.66.22l-3.87,8.12-4.65-5.2c1.75-2.3,4.63-3.14,6.85-3.14ZM80.43,81.41c-1.09-4.12,1.99-7.96,3.26-8.89l4.7,5.26-7.95,3.63ZM86.39,88.09c-.16.03-.33.05-.51.05-1.42,0-3.21-.96-4.27-2.29-.54-.68-1.12-1.73-.91-2.97l7.75-3.53-2.06,8.75ZM88.58,88.16c-.29,0-.53-.02-.72-.04l2.03-8.65,5.07,5.67c-1.99,2.86-5.62,3.01-6.37,3.01ZM98.59,80.75c-.4,1.11-1.19,2.55-2.68,3.32l-4.79-5.36,7.96-.4c-.01.54-.13,1.44-.49,2.44ZM99.33,76.87l-8.68.43,3.99-8.38c2.7.56,3.94,2.31,4.5,3.76.7,1.8.52,3.5.19,4.19ZM102.59,67.91c-.34-.35-2.09-2.32-4.75-3.25,0,0,0,0,0,0-1.96-.56-3.69-.71-4.43-.75-.08,0-.14,0-.2,0-.06,0-.12,0-.19,0-.16,0-.33,0-.49,0-3.96,0-8.34,2.05-11.72,5.48-3.48,3.53-5.62,7.9-5.3,12.27.86,11.88,12.17,13.41,16.18,13.55,3.99.14,7.59-1.29,10.24-3.5l1.27-1.2h0c2.4-2.57,3.84-6.08,4-10.21.2-5.04-2.17-9.84-4.6-12.38ZM76.83,81.62c-.06-3.96,1.74-8.09,4.92-11.32,3.14-3.18,7.16-5.08,10.77-5.08,6.98,0,10.42,3.29,10.52,10.07.12,8.61-6.06,15.69-14.38,16.47-.5.05-2.76.28-5.35-.53-4-1.25-6.42-4.82-6.49-9.61ZM105.86,80.23c-.32,8.1-6.02,13.58-14.19,13.62,0,0-3.61.17-5.67-.8.2,0,2.25.09,2.79.04,9.02-.85,15.72-8.51,15.59-17.82-.01-.98-.1-1.9-.24-2.75,1.09,2.22,1.83,4.93,1.72,7.71ZM96.5,85.4c1.96-.97,2.96-2.8,3.46-4.19.45-1.25.65-2.63.53-3.48.74-1.22.76-3.59-.01-5.57-.62-1.6-2.29-4.34-6.49-4.8-.73-.4-1.93-.44-2.45-.44-2.74,0-6.34,1.12-8.36,4.23-.92.53-2.3,2.03-3.25,3.88-.92,1.8-1.77,4.55-.64,7.55-.25,1.4.17,2.87,1.2,4.16,1.35,1.7,3.52,2.83,5.4,2.83.4,0,.77-.05,1.11-.15.41.12.96.18,1.59.18,2.68,0,6.14-1.11,7.92-4.21ZM98.59,80.75c-.4,1.11-1.19,2.55-2.68,3.32l-4.79-5.36,7.96-.4c-.01.54-.13,1.44-.49,2.44ZM94.64,68.92c2.7.56,3.94,2.31,4.5,3.76.7,1.8.52,3.5.19,4.19l-8.68.43,3.99-8.38ZM91.54,68.36c.85,0,1.41.13,1.66.22l-3.87,8.12-4.65-5.2c1.75-2.3,4.63-3.14,6.85-3.14ZM80.43,81.41c-1.09-4.12,1.99-7.96,3.26-8.89l4.7,5.26-7.95,3.63ZM86.39,88.09c-.16.03-.33.05-.51.05-1.42,0-3.21-.96-4.27-2.29-.54-.68-1.12-1.73-.91-2.97l7.75-3.53-2.06,8.75ZM89.89,79.48l5.07,5.67c-1.99,2.86-5.62,3.01-6.37,3.01-.29,0-.53-.02-.72-.04l2.03-8.65ZM100.48,72.16c-.62-1.6-2.29-4.34-6.49-4.8-.73-.4-1.93-.44-2.45-.44-2.74,0-6.34,1.12-8.36,4.23-.92.53-2.3,2.03-3.25,3.88-.92,1.8-1.77,4.55-.64,7.55-.25,1.4.17,2.87,1.2,4.16,1.35,1.7,3.52,2.83,5.4,2.83.4,0,.77-.05,1.11-.15.41.12.96.18,1.59.18,2.68,0,6.14-1.11,7.92-4.21,1.96-.97,2.96-2.8,3.46-4.19.45-1.25.65-2.63.53-3.48.74-1.22.76-3.59-.01-5.57ZM91.54,68.36c.85,0,1.41.13,1.66.22l-3.87,8.12-4.65-5.2c1.75-2.3,4.63-3.14,6.85-3.14ZM80.43,81.41c-1.09-4.12,1.99-7.96,3.26-8.89l4.7,5.26-7.95,3.63ZM86.39,88.09c-.16.03-.33.05-.51.05-1.42,0-3.21-.96-4.27-2.29-.54-.68-1.12-1.73-.91-2.97l7.75-3.53-2.06,8.75ZM88.58,88.16c-.29,0-.53-.02-.72-.04l2.03-8.65,5.07,5.67c-1.99,2.86-5.62,3.01-6.37,3.01ZM98.59,80.75c-.4,1.11-1.19,2.55-2.68,3.32l-4.79-5.36,7.96-.4c-.01.54-.13,1.44-.49,2.44ZM99.33,76.87l-8.68.43,3.99-8.38c2.7.56,3.94,2.31,4.5,3.76.7,1.8.52,3.5.19,4.19ZM100.48,72.16c-.62-1.6-2.29-4.34-6.49-4.8-.73-.4-1.93-.44-2.45-.44-2.74,0-6.34,1.12-8.36,4.23-.92.53-2.3,2.03-3.25,3.88-.92,1.8-1.77,4.55-.64,7.55-.25,1.4.17,2.87,1.2,4.16,1.35,1.7,3.52,2.83,5.4,2.83.4,0,.77-.05,1.11-.15.41.12.96.18,1.59.18,2.68,0,6.14-1.11,7.92-4.21,1.96-.97,2.96-2.8,3.46-4.19.45-1.25.65-2.63.53-3.48.74-1.22.76-3.59-.01-5.57ZM91.54,68.36c.85,0,1.41.13,1.66.22l-3.87,8.12-4.65-5.2c1.75-2.3,4.63-3.14,6.85-3.14ZM80.43,81.41c-1.09-4.12,1.99-7.96,3.26-8.89l4.7,5.26-7.95,3.63ZM86.39,88.09c-.16.03-.33.05-.51.05-1.42,0-3.21-.96-4.27-2.29-.54-.68-1.12-1.73-.91-2.97l7.75-3.53-2.06,8.75ZM88.58,88.16c-.29,0-.53-.02-.72-.04l2.03-8.65,5.07,5.67c-1.99,2.86-5.62,3.01-6.37,3.01ZM98.59,80.75c-.4,1.11-1.19,2.55-2.68,3.32l-4.79-5.36,7.96-.4c-.01.54-.13,1.44-.49,2.44ZM99.33,76.87l-8.68.43,3.99-8.38c2.7.56,3.94,2.31,4.5,3.76.7,1.8.52,3.5.19,4.19Z"/><path id="_01-2" class="cls-3" d="M435.3,84.53c-.62-1.6-2.29-4.34-6.49-4.8-.73-.4-1.93-.44-2.45-.44-2.74,0-6.34,1.12-8.36,4.23-.92.53-2.3,2.03-3.25,3.88-.92,1.8-1.77,4.55-.64,7.55-.25,1.4.17,2.87,1.2,4.16,1.35,1.7,3.52,2.83,5.4,2.83.4,0,.77-.05,1.11-.15.41.12.96.18,1.59.18,2.68,0,6.14-1.11,7.92-4.21,1.96-.97,2.96-2.8,3.46-4.19.45-1.25.65-2.63.53-3.48.74-1.22.76-3.59-.01-5.57ZM426.37,80.73c.85,0,1.41.13,1.66.22l-3.87,8.12-4.65-5.2c1.75-2.3,4.63-3.14,6.85-3.14ZM415.25,93.78c-1.09-4.12,1.99-7.96,3.26-8.89l4.7,5.26-7.95,3.63ZM421.21,100.46c-.16.03-.33.05-.51.05-1.42,0-3.21-.96-4.27-2.29-.54-.68-1.12-1.73-.91-2.97l7.75-3.53-2.06,8.75ZM423.4,100.53c-.29,0-.53-.02-.72-.04l2.03-8.65,5.07,5.67c-1.99,2.86-5.62,3.01-6.37,3.01ZM433.42,93.12c-.4,1.11-1.19,2.55-2.68,3.32l-4.79-5.36,7.96-.4c-.01.54-.13,1.44-.49,2.44ZM434.15,89.24l-8.68.43,3.99-8.38c2.7.56,3.94,2.31,4.5,3.76.7,1.8.52,3.5.19,4.19ZM435.3,84.53c-.62-1.6-2.29-4.34-6.49-4.8-.73-.4-1.93-.44-2.45-.44-2.74,0-6.34,1.12-8.36,4.23-.92.53-2.3,2.03-3.25,3.88-.92,1.8-1.77,4.55-.64,7.55-.25,1.4.17,2.87,1.2,4.16,1.35,1.7,3.52,2.83,5.4,2.83.4,0,.77-.05,1.11-.15.41.12.96.18,1.59.18,2.68,0,6.14-1.11,7.92-4.21,1.96-.97,2.96-2.8,3.46-4.19.45-1.25.65-2.63.53-3.48.74-1.22.76-3.59-.01-5.57ZM426.37,80.73c.85,0,1.41.13,1.66.22l-3.87,8.12-4.65-5.2c1.75-2.3,4.63-3.14,6.85-3.14ZM415.25,93.78c-1.09-4.12,1.99-7.96,3.26-8.89l4.7,5.26-7.95,3.63ZM421.21,100.46c-.16.03-.33.05-.51.05-1.42,0-3.21-.96-4.27-2.29-.54-.68-1.12-1.73-.91-2.97l7.75-3.53-2.06,8.75ZM423.4,100.53c-.29,0-.53-.02-.72-.04l2.03-8.65,5.07,5.67c-1.99,2.86-5.62,3.01-6.37,3.01ZM433.42,93.12c-.4,1.11-1.19,2.55-2.68,3.32l-4.79-5.36,7.96-.4c-.01.54-.13,1.44-.49,2.44ZM434.15,89.24l-8.68.43,3.99-8.38c2.7.56,3.94,2.31,4.5,3.76.7,1.8.52,3.5.19,4.19ZM437.41,80.28c-.34-.35-2.09-2.32-4.75-3.25,0,0,0,0,0,0-1.96-.56-3.69-.71-4.43-.75-.08,0-.14,0-.2,0-.06,0-.12,0-.19,0-.16,0-.33,0-.49,0-3.96,0-8.34,2.05-11.72,5.48-3.48,3.53-5.62,7.9-5.3,12.27.86,11.88,12.17,13.41,16.18,13.55,3.99.14,7.59-1.29,10.24-3.5l1.27-1.2h0c2.4-2.57,3.84-6.08,4-10.21.2-5.04-2.17-9.84-4.6-12.38ZM411.66,93.99c-.06-3.96,1.74-8.09,4.92-11.32,3.14-3.18,7.16-5.08,10.77-5.08,6.98,0,10.42,3.29,10.52,10.07.12,8.61-6.06,15.69-14.38,16.47-.5.05-2.76.28-5.35-.53-4-1.25-6.42-4.82-6.49-9.61ZM440.68,92.6c-.32,8.1-6.02,13.58-14.19,13.62,0,0-3.61.17-5.67-.8.2,0,2.25.09,2.79.04,9.02-.85,15.72-8.51,15.59-17.82-.01-.98-.1-1.9-.24-2.75,1.09,2.22,1.83,4.93,1.72,7.71ZM431.32,97.77c1.96-.97,2.96-2.8,3.46-4.19.45-1.25.65-2.63.53-3.48.74-1.22.76-3.59-.01-5.57-.62-1.6-2.29-4.34-6.49-4.8-.73-.4-1.93-.44-2.45-.44-2.74,0-6.34,1.12-8.36,4.23-.92.53-2.3,2.03-3.25,3.88-.92,1.8-1.77,4.55-.64,7.55-.25,1.4.17,2.87,1.2,4.16,1.35,1.7,3.52,2.83,5.4,2.83.4,0,.77-.05,1.11-.15.41.12.96.18,1.59.18,2.68,0,6.14-1.11,7.92-4.21ZM433.42,93.12c-.4,1.11-1.19,2.55-2.68,3.32l-4.79-5.36,7.96-.4c-.01.54-.13,1.44-.49,2.44ZM429.46,81.29c2.7.56,3.94,2.31,4.5,3.76.7,1.8.52,3.5.19,4.19l-8.68.43,3.99-8.38ZM426.37,80.73c.85,0,1.41.13,1.66.22l-3.87,8.12-4.65-5.2c1.75-2.3,4.63-3.14,6.85-3.14ZM415.25,93.78c-1.09-4.12,1.99-7.96,3.26-8.89l4.7,5.26-7.95,3.63ZM421.21,100.46c-.16.03-.33.05-.51.05-1.42,0-3.21-.96-4.27-2.29-.54-.68-1.12-1.73-.91-2.97l7.75-3.53-2.06,8.75ZM424.71,91.85l5.07,5.67c-1.99,2.86-5.62,3.01-6.37,3.01-.29,0-.53-.02-.72-.04l2.03-8.65ZM435.3,84.53c-.62-1.6-2.29-4.34-6.49-4.8-.73-.4-1.93-.44-2.45-.44-2.74,0-6.34,1.12-8.36,4.23-.92.53-2.3,2.03-3.25,3.88-.92,1.8-1.77,4.55-.64,7.55-.25,1.4.17,2.87,1.2,4.16,1.35,1.7,3.52,2.83,5.4,2.83.4,0,.77-.05,1.11-.15.41.12.96.18,1.59.18,2.68,0,6.14-1.11,7.92-4.21,1.96-.97,2.96-2.8,3.46-4.19.45-1.25.65-2.63.53-3.48.74-1.22.76-3.59-.01-5.57ZM426.37,80.73c.85,0,1.41.13,1.66.22l-3.87,8.12-4.65-5.2c1.75-2.3,4.63-3.14,6.85-3.14ZM415.25,93.78c-1.09-4.12,1.99-7.96,3.26-8.89l4.7,5.26-7.95,3.63ZM421.21,100.46c-.16.03-.33.05-.51.05-1.42,0-3.21-.96-4.27-2.29-.54-.68-1.12-1.73-.91-2.97l7.75-3.53-2.06,8.75ZM423.4,100.53c-.29,0-.53-.02-.72-.04l2.03-8.65,5.07,5.67c-1.99,2.86-5.62,3.01-6.37,3.01ZM433.42,93.12c-.4,1.11-1.19,2.55-2.68,3.32l-4.79-5.36,7.96-.4c-.01.54-.13,1.44-.49,2.44ZM434.15,89.24l-8.68.43,3.99-8.38c2.7.56,3.94,2.31,4.5,3.76.7,1.8.52,3.5.19,4.19ZM435.3,84.53c-.62-1.6-2.29-4.34-6.49-4.8-.73-.4-1.93-.44-2.45-.44-2.74,0-6.34,1.12-8.36,4.23-.92.53-2.3,2.03-3.25,3.88-.92,1.8-1.77,4.55-.64,7.55-.25,1.4.17,2.87,1.2,4.16,1.35,1.7,3.52,2.83,5.4,2.83.4,0,.77-.05,1.11-.15.41.12.96.18,1.59.18,2.68,0,6.14-1.11,7.92-4.21,1.96-.97,2.96-2.8,3.46-4.19.45-1.25.65-2.63.53-3.48.74-1.22.76-3.59-.01-5.57ZM426.37,80.73c.85,0,1.41.13,1.66.22l-3.87,8.12-4.65-5.2c1.75-2.3,4.63-3.14,6.85-3.14ZM415.25,93.78c-1.09-4.12,1.99-7.96,3.26-8.89l4.7,5.26-7.95,3.63ZM421.21,100.46c-.16.03-.33.05-.51.05-1.42,0-3.21-.96-4.27-2.29-.54-.68-1.12-1.73-.91-2.97l7.75-3.53-2.06,8.75ZM423.4,100.53c-.29,0-.53-.02-.72-.04l2.03-8.65,5.07,5.67c-1.99,2.86-5.62,3.01-6.37,3.01ZM433.42,93.12c-.4,1.11-1.19,2.55-2.68,3.32l-4.79-5.36,7.96-.4c-.01.54-.13,1.44-.49,2.44ZM434.15,89.24l-8.68.43,3.99-8.38c2.7.56,3.94,2.31,4.5,3.76.7,1.8.52,3.5.19,4.19Z"/><path id="_01-3" class="cls-3" d="M421.29,415.58c-.42-1.67-1.75-4.58-5.86-5.55-.68-.48-1.86-.68-2.37-.74-2.72-.34-6.43.33-8.82,3.18-.97.41-2.53,1.74-3.7,3.45-1.13,1.67-2.31,4.3-1.56,7.41-.42,1.36-.18,2.87.68,4.28,1.13,1.85,3.14,3.24,5.01,3.47.39.05.77.04,1.12-.02.39.17.93.3,1.56.37,2.66.33,6.23-.35,8.37-3.2,2.06-.73,3.28-2.42,3.95-3.73.6-1.18.97-2.53.96-3.39.89-1.12,1.19-3.47.67-5.53ZM412.89,410.71c.84.1,1.38.3,1.62.43l-4.83,7.59-3.98-5.73c2.02-2.07,4.98-2.55,7.19-2.28ZM400.26,422.31c-.58-4.22,2.95-7.66,4.32-8.42l4.02,5.8-8.34,2.62ZM405.36,429.66c-.16.01-.33,0-.51-.01-1.41-.17-3.07-1.35-3.96-2.8-.45-.74-.9-1.86-.54-3.06l8.12-2.56-3.11,8.43ZM407.52,430.01c-.28-.04-.52-.08-.71-.13l3.08-8.33,4.33,6.25c-2.33,2.59-5.95,2.3-6.7,2.21ZM418.37,423.88c-.54,1.05-1.5,2.39-3.06,2.97l-4.09-5.91,7.94.58c-.08.54-.31,1.41-.79,2.36ZM419.57,420.11l-8.67-.63,4.99-7.83c2.62.89,3.63,2.78,4.01,4.28.48,1.88.09,3.54-.33,4.18ZM421.29,415.58c-.42-1.67-1.75-4.58-5.86-5.55-.68-.48-1.86-.68-2.37-.74-2.72-.34-6.43.33-8.82,3.18-.97.41-2.53,1.74-3.7,3.45-1.13,1.67-2.31,4.3-1.56,7.41-.42,1.36-.18,2.87.68,4.28,1.13,1.85,3.14,3.24,5.01,3.47.39.05.77.04,1.12-.02.39.17.93.3,1.56.37,2.66.33,6.23-.35,8.37-3.2,2.06-.73,3.28-2.42,3.95-3.73.6-1.18.97-2.53.96-3.39.89-1.12,1.19-3.47.67-5.53ZM412.89,410.71c.84.1,1.38.3,1.62.43l-4.83,7.59-3.98-5.73c2.02-2.07,4.98-2.55,7.19-2.28ZM400.26,422.31c-.58-4.22,2.95-7.66,4.32-8.42l4.02,5.8-8.34,2.62ZM405.36,429.66c-.16.01-.33,0-.51-.01-1.41-.17-3.07-1.35-3.96-2.8-.45-.74-.9-1.86-.54-3.06l8.12-2.56-3.11,8.43ZM407.52,430.01c-.28-.04-.52-.08-.71-.13l3.08-8.33,4.33,6.25c-2.33,2.59-5.95,2.3-6.7,2.21ZM418.37,423.88c-.54,1.05-1.5,2.39-3.06,2.97l-4.09-5.91,7.94.58c-.08.54-.31,1.41-.79,2.36ZM419.57,420.11l-8.67-.63,4.99-7.83c2.62.89,3.63,2.78,4.01,4.28.48,1.88.09,3.54-.33,4.18ZM423.91,411.62c-.29-.39-1.79-2.56-4.32-3.81,0,0,0,0,0,0-1.88-.8-3.57-1.16-4.31-1.29-.08-.01-.14-.02-.2-.03-.06,0-.12-.02-.18-.03-.16-.02-.32-.05-.49-.07-3.93-.48-8.53,1.01-12.3,4.01-3.89,3.08-6.55,7.16-6.77,11.53-.6,11.9,10.44,14.8,14.4,15.43,3.94.62,7.69-.35,10.59-2.22l1.41-1.03h0c2.69-2.26,4.55-5.56,5.22-9.64.81-4.97-.95-10.04-3.05-12.85ZM396.67,422.08c.43-3.94,2.71-7.81,6.27-10.63,3.5-2.78,7.73-4.17,11.31-3.73,6.93.85,9.94,4.55,9.21,11.29-.93,8.56-7.93,14.83-16.29,14.59-.5-.01-2.77-.06-5.24-1.18-3.82-1.73-5.78-5.57-5.26-10.33ZM425.65,424.25c-1.31,8-7.64,12.74-15.75,11.78,0,0-3.61-.27-5.53-1.49.2.03,2.23.37,2.76.38,9.06.26,16.65-6.52,17.65-15.77.11-.98.14-1.9.1-2.76.81,2.34,1.22,5.11.77,7.86ZM415.72,428.23c2.06-.73,3.28-2.42,3.95-3.73.6-1.18.97-2.53.96-3.39.89-1.12,1.19-3.47.67-5.53-.42-1.67-1.75-4.58-5.86-5.55-.68-.48-1.86-.68-2.37-.74-2.72-.34-6.43.33-8.82,3.18-.97.41-2.53,1.74-3.7,3.45-1.13,1.67-2.31,4.3-1.56,7.41-.42,1.36-.18,2.87.68,4.28,1.13,1.85,3.14,3.24,5.01,3.47.39.05.77.04,1.12-.02.39.17.93.3,1.56.37,2.66.33,6.23-.35,8.37-3.2ZM418.37,423.88c-.54,1.05-1.5,2.39-3.06,2.97l-4.09-5.91,7.94.58c-.08.54-.31,1.41-.79,2.36ZM415.89,411.65c2.62.89,3.63,2.78,4.01,4.28.48,1.88.09,3.54-.33,4.18l-8.67-.63,4.99-7.83ZM412.89,410.71c.84.1,1.38.3,1.62.43l-4.83,7.59-3.98-5.73c2.02-2.07,4.98-2.55,7.19-2.28ZM400.26,422.31c-.58-4.22,2.95-7.66,4.32-8.42l4.02,5.8-8.34,2.62ZM405.36,429.66c-.16.01-.33,0-.51-.01-1.41-.17-3.07-1.35-3.96-2.8-.45-.74-.9-1.86-.54-3.06l8.12-2.56-3.11,8.43ZM409.89,421.55l4.33,6.25c-2.33,2.59-5.95,2.3-6.7,2.21-.28-.04-.52-.08-.71-.13l3.08-8.33ZM421.29,415.58c-.42-1.67-1.75-4.58-5.86-5.55-.68-.48-1.86-.68-2.37-.74-2.72-.34-6.43.33-8.82,3.18-.97.41-2.53,1.74-3.7,3.45-1.13,1.67-2.31,4.3-1.56,7.41-.42,1.36-.18,2.87.68,4.28,1.13,1.85,3.14,3.24,5.01,3.47.39.05.77.04,1.12-.02.39.17.93.3,1.56.37,2.66.33,6.23-.35,8.37-3.2,2.06-.73,3.28-2.42,3.95-3.73.6-1.18.97-2.53.96-3.39.89-1.12,1.19-3.47.67-5.53ZM412.89,410.71c.84.1,1.38.3,1.62.43l-4.83,7.59-3.98-5.73c2.02-2.07,4.98-2.55,7.19-2.28ZM400.26,422.31c-.58-4.22,2.95-7.66,4.32-8.42l4.02,5.8-8.34,2.62ZM405.36,429.66c-.16.01-.33,0-.51-.01-1.41-.17-3.07-1.35-3.96-2.8-.45-.74-.9-1.86-.54-3.06l8.12-2.56-3.11,8.43ZM407.52,430.01c-.28-.04-.52-.08-.71-.13l3.08-8.33,4.33,6.25c-2.33,2.59-5.95,2.3-6.7,2.21ZM418.37,423.88c-.54,1.05-1.5,2.39-3.06,2.97l-4.09-5.91,7.94.58c-.08.54-.31,1.41-.79,2.36ZM419.57,420.11l-8.67-.63,4.99-7.83c2.62.89,3.63,2.78,4.01,4.28.48,1.88.09,3.54-.33,4.18ZM421.29,415.58c-.42-1.67-1.75-4.58-5.86-5.55-.68-.48-1.86-.68-2.37-.74-2.72-.34-6.43.33-8.82,3.18-.97.41-2.53,1.74-3.7,3.45-1.13,1.67-2.31,4.3-1.56,7.41-.42,1.36-.18,2.87.68,4.28,1.13,1.85,3.14,3.24,5.01,3.47.39.05.77.04,1.12-.02.39.17.93.3,1.56.37,2.66.33,6.23-.35,8.37-3.2,2.06-.73,3.28-2.42,3.95-3.73.6-1.18.97-2.53.96-3.39.89-1.12,1.19-3.47.67-5.53ZM412.89,410.71c.84.1,1.38.3,1.62.43l-4.83,7.59-3.98-5.73c2.02-2.07,4.98-2.55,7.19-2.28ZM400.26,422.31c-.58-4.22,2.95-7.66,4.32-8.42l4.02,5.8-8.34,2.62ZM405.36,429.66c-.16.01-.33,0-.51-.01-1.41-.17-3.07-1.35-3.96-2.8-.45-.74-.9-1.86-.54-3.06l8.12-2.56-3.11,8.43ZM407.52,430.01c-.28-.04-.52-.08-.71-.13l3.08-8.33,4.33,6.25c-2.33,2.59-5.95,2.3-6.7,2.21ZM418.37,423.88c-.54,1.05-1.5,2.39-3.06,2.97l-4.09-5.91,7.94.58c-.08.54-.31,1.41-.79,2.36ZM419.57,420.11l-8.67-.63,4.99-7.83c2.62.89,3.63,2.78,4.01,4.28.48,1.88.09,3.54-.33,4.18Z"/><path id="_01-4" class="cls-3" d="M66.81,420.95c-1.7-.22-4.76-1.19-6.21-5.16-.56-.62-.89-1.77-1.01-2.27-.65-2.66-.43-6.43,2.11-9.13.29-1.01,1.42-2.72,2.99-4.08,1.53-1.32,4-2.8,7.17-2.43,1.3-.58,2.83-.52,4.33.17,1.97.9,3.59,2.74,4.04,4.56.09.38.13.76.12,1.11.21.37.41.89.56,1.5.64,2.61.39,6.23-2.19,8.69-.48,2.13-2.01,3.54-3.24,4.36-1.1.73-2.4,1.26-3.25,1.35-1.01,1.01-3.3,1.59-5.41,1.32ZM60.98,413.18c.2.82.46,1.34.62,1.56l6.96-5.7-6.16-3.27c-1.82,2.25-1.95,5.25-1.42,7.41ZM71,399.27c-4.26-.07-7.26,3.84-7.85,5.29l6.23,3.3,1.62-8.59ZM78.91,403.46c0-.16-.03-.33-.07-.5-.34-1.38-1.7-2.89-3.25-3.6-.79-.36-1.95-.67-3.1-.18l-1.58,8.37,8-4.09ZM79.51,405.57c-.07-.28-.14-.51-.21-.69l-7.91,4.04,6.72,3.56c2.3-2.62,1.58-6.18,1.4-6.91ZM74.7,417.07c.98-.66,2.19-1.77,2.59-3.39l-6.35-3.37,1.52,7.82c.52-.14,1.36-.47,2.25-1.06ZM71.11,418.71l-1.65-8.54-7.19,5.88c1.19,2.49,3.19,3.27,4.73,3.47,1.92.25,3.53-.33,4.11-.82ZM66.81,420.95c-1.7-.22-4.76-1.19-6.21-5.16-.56-.62-.89-1.77-1.01-2.27-.65-2.66-.43-6.43,2.11-9.13.29-1.01,1.42-2.72,2.99-4.08,1.53-1.32,4-2.8,7.17-2.43,1.3-.58,2.83-.52,4.33.17,1.97.9,3.59,2.74,4.04,4.56.09.38.13.76.12,1.11.21.37.41.89.56,1.5.64,2.61.39,6.23-2.19,8.69-.48,2.13-2.01,3.54-3.24,4.36-1.1.73-2.4,1.26-3.25,1.35-1.01,1.01-3.3,1.59-5.41,1.32ZM60.98,413.18c.2.82.46,1.34.62,1.56l6.96-5.7-6.16-3.27c-1.82,2.25-1.95,5.25-1.42,7.41ZM71,399.27c-4.26-.07-7.26,3.84-7.85,5.29l6.23,3.3,1.62-8.59ZM78.91,403.46c0-.16-.03-.33-.07-.5-.34-1.38-1.7-2.89-3.25-3.6-.79-.36-1.95-.67-3.1-.18l-1.58,8.37,8-4.09ZM79.51,405.57c-.07-.28-.14-.51-.21-.69l-7.91,4.04,6.72,3.56c2.3-2.62,1.58-6.18,1.4-6.91ZM74.7,417.07c.98-.66,2.19-1.77,2.59-3.39l-6.35-3.37,1.52,7.82c.52-.14,1.36-.47,2.25-1.06ZM71.11,418.71l-1.65-8.54-7.19,5.88c1.19,2.49,3.19,3.27,4.73,3.47,1.92.25,3.53-.33,4.11-.82ZM63.19,424.02c-.42-.25-2.75-1.47-4.29-3.84,0,0,0,0,0,0-1.02-1.77-1.57-3.41-1.79-4.12-.02-.07-.04-.14-.06-.19-.02-.06-.03-.12-.05-.18-.04-.16-.08-.32-.12-.48-.95-3.84,0-8.59,2.52-12.69,2.6-4.23,6.33-7.35,10.65-8.08,11.74-2,15.93,8.61,17.02,12.47,1.09,3.84.56,7.68-.95,10.78l-.86,1.52h0c-1.93,2.94-4.99,5.18-8.96,6.32-4.84,1.4-10.08.25-13.12-1.51ZM70.35,395.73c-3.86.89-7.44,3.62-9.81,7.48-2.34,3.81-3.22,8.17-2.36,11.67,1.67,6.78,5.69,9.34,12.3,7.81,8.39-1.94,13.78-9.63,12.56-17.9-.07-.49-.39-2.74-1.79-5.07-2.17-3.59-6.21-5.08-10.88-4ZM75.93,424.25c7.79-2.25,11.74-9.09,9.84-17.04,0,0-.7-3.55-2.14-5.31.06.19.63,2.17.71,2.7,1.33,8.96-4.51,17.3-13.58,19.39-.96.22-1.87.36-2.73.42,2.42.53,5.22.6,7.9-.17ZM78.71,413.92c-.48,2.13-2.01,3.54-3.24,4.36-1.1.73-2.4,1.26-3.25,1.35-1.01,1.01-3.3,1.59-5.41,1.32-1.7-.22-4.76-1.19-6.21-5.16-.56-.62-.89-1.77-1.01-2.27-.65-2.66-.43-6.43,2.11-9.13.29-1.01,1.42-2.72,2.99-4.08,1.53-1.32,4-2.8,7.17-2.43,1.3-.58,2.83-.52,4.33.17,1.97.9,3.59,2.74,4.04,4.56.09.38.13.76.12,1.11.21.37.41.89.56,1.5.64,2.61.39,6.23-2.19,8.69ZM74.7,417.07c.98-.66,2.19-1.77,2.59-3.39l-6.35-3.37,1.52,7.82c.52-.14,1.36-.47,2.25-1.06ZM62.26,416.05c1.19,2.49,3.19,3.27,4.73,3.47,1.92.25,3.53-.33,4.11-.82l-1.65-8.54-7.19,5.88ZM60.98,413.18c.2.82.46,1.34.62,1.56l6.96-5.7-6.16-3.27c-1.82,2.25-1.95,5.25-1.42,7.41ZM71,399.27c-4.26-.07-7.26,3.84-7.85,5.29l6.23,3.3,1.62-8.59ZM78.91,403.46c0-.16-.03-.33-.07-.5-.34-1.38-1.7-2.89-3.25-3.6-.79-.36-1.95-.67-3.1-.18l-1.58,8.37,8-4.09ZM71.38,408.92l6.72,3.56c2.3-2.62,1.58-6.18,1.4-6.91-.07-.28-.14-.51-.21-.69l-7.91,4.04ZM66.81,420.95c-1.7-.22-4.76-1.19-6.21-5.16-.56-.62-.89-1.77-1.01-2.27-.65-2.66-.43-6.43,2.11-9.13.29-1.01,1.42-2.72,2.99-4.08,1.53-1.32,4-2.8,7.17-2.43,1.3-.58,2.83-.52,4.33.17,1.97.9,3.59,2.74,4.04,4.56.09.38.13.76.12,1.11.21.37.41.89.56,1.5.64,2.61.39,6.23-2.19,8.69-.48,2.13-2.01,3.54-3.24,4.36-1.1.73-2.4,1.26-3.25,1.35-1.01,1.01-3.3,1.59-5.41,1.32ZM60.98,413.18c.2.82.46,1.34.62,1.56l6.96-5.7-6.16-3.27c-1.82,2.25-1.95,5.25-1.42,7.41ZM71,399.27c-4.26-.07-7.26,3.84-7.85,5.29l6.23,3.3,1.62-8.59ZM78.91,403.46c0-.16-.03-.33-.07-.5-.34-1.38-1.7-2.89-3.25-3.6-.79-.36-1.95-.67-3.1-.18l-1.58,8.37,8-4.09ZM79.51,405.57c-.07-.28-.14-.51-.21-.69l-7.91,4.04,6.72,3.56c2.3-2.62,1.58-6.18,1.4-6.91ZM74.7,417.07c.98-.66,2.19-1.77,2.59-3.39l-6.35-3.37,1.52,7.82c.52-.14,1.36-.47,2.25-1.06ZM71.11,418.71l-1.65-8.54-7.19,5.88c1.19,2.49,3.19,3.27,4.73,3.47,1.92.25,3.53-.33,4.11-.82ZM66.81,420.95c-1.7-.22-4.76-1.19-6.21-5.16-.56-.62-.89-1.77-1.01-2.27-.65-2.66-.43-6.43,2.11-9.13.29-1.01,1.42-2.72,2.99-4.08,1.53-1.32,4-2.8,7.17-2.43,1.3-.58,2.83-.52,4.33.17,1.97.9,3.59,2.74,4.04,4.56.09.38.13.76.12,1.11.21.37.41.89.56,1.5.64,2.61.39,6.23-2.19,8.69-.48,2.13-2.01,3.54-3.24,4.36-1.1.73-2.4,1.26-3.25,1.35-1.01,1.01-3.3,1.59-5.41,1.32ZM60.98,413.18c.2.82.46,1.34.62,1.56l6.96-5.7-6.16-3.27c-1.82,2.25-1.95,5.25-1.42,7.41ZM71,399.27c-4.26-.07-7.26,3.84-7.85,5.29l6.23,3.3,1.62-8.59ZM78.91,403.46c0-.16-.03-.33-.07-.5-.34-1.38-1.7-2.89-3.25-3.6-.79-.36-1.95-.67-3.1-.18l-1.58,8.37,8-4.09ZM79.51,405.57c-.07-.28-.14-.51-.21-.69l-7.91,4.04,6.72,3.56c2.3-2.62,1.58-6.18,1.4-6.91ZM74.7,417.07c.98-.66,2.19-1.77,2.59-3.39l-6.35-3.37,1.52,7.82c.52-.14,1.36-.47,2.25-1.06ZM71.11,418.71l-1.65-8.54-7.19,5.88c1.19,2.49,3.19,3.27,4.73,3.47,1.92.25,3.53-.33,4.11-.82Z"/></g></g></svg>