<?xml version="1.0" encoding="UTF-8"?><svg id="Layer_2" xmlns="http://www.w3.org/2000/svg" xmlns:xlink="http://www.w3.org/1999/xlink" viewBox="0 0 500 500"><defs><style>.cls-1{clip-path:url(#clippath);}.cls-2{fill:none;}.cls-2,.cls-3{stroke-width:0px;}.cls-3{fill:#ffbe41;}</style><clipPath id="clippath"><rect class="cls-2" width="500" height="500"/></clipPath></defs><g id="Layer_1-2"><g class="cls-1"><path class="cls-3" d="M90.29,86.52l-13.18-14.4,7.53-6.88c3.33-3.05,7.21-3.12,10.24.19s2.63,7.19-.7,10.24l-4.3,3.93,3.64,3.98-3.22,2.95ZM82.99,72.07l4.23,4.62,3.96-3.62c1.78-1.63,2.15-2.92.5-4.72-1.61-1.76-2.94-1.53-4.73.1l-3.96,3.62Z"/><path class="cls-3" d="M100.33,67.67c-2.85-3.69-2.04-8.03,1.76-10.97,3.78-2.92,7.83-2.88,10.62.74.32.42.51.75.76,1.18l-9.41,7.27c1.46,1.7,2.88,1.82,5.12.1,2.05-1.58,2.36-2.67,1.59-3.66l-.18-.23,3.46-2.67.2.25c1.94,2.51.85,6.15-2.82,8.98-3.85,2.97-7.94,3.11-11.11-.99ZM102.71,64.03l6.13-4.74c-1.27-1.45-2.71-1.41-4.74.16-2.05,1.58-2.39,2.95-1.4,4.58Z"/><path class="cls-3" d="M119.64,62.1l-7.94-12.25,3.4-2.2,2.44,3.76.22-.14c-1.01-2.26-.82-5.17,2.39-7.24,3.35-2.17,6.33-1.05,8.09,1.66l4.95,7.63-3.67,2.38-4.15-6.4c-1.27-1.96-2.61-2.26-4.86-.81-2.32,1.51-2.55,2.97-1.2,5.05l4.01,6.18-3.67,2.38Z"/><path class="cls-3" d="M133.59,48.89c-1.02-1.9-.25-3.84,2.34-5.6l5.21-3.54-.26-.49c-.9-1.67-1.89-1.73-3.94-.62-1.95,1.05-2.47,1.99-1.68,3.45l.06.1-3.87,2.09-.04-.08c-1.71-3.18-.24-6.82,4-9.1,4.28-2.31,7.5-1.19,9.31,2.17l4.06,7.54-3.59,1.94-1.59-2.95-.21.11c.49,2.32-.66,4.49-3.5,6.03-2.77,1.49-5.13,1.11-6.29-1.05ZM139.51,46.62c2.62-1.41,3.7-2.79,2.82-4.66l-4.19,2.92c-.88.57-1.15,1.05-.82,1.67.37.69,1.06.68,2.19.08Z"/><path class="cls-3" d="M151.43,43.49l-5.86-13.37,3.71-1.63,1.8,4.11.24-.11c-.64-2.39.03-5.23,3.53-6.76,3.66-1.6,6.42-.02,7.72,2.95l3.65,8.33-4,1.76-3.07-6.99c-.94-2.14-2.21-2.66-4.67-1.58-2.54,1.11-3,2.52-2,4.79l2.96,6.75-4,1.76Z"/><path class="cls-3" d="M165.94,28.31c-1.31-3.86.36-7.2,4.49-8.6,2.81-.96,5.24-.43,6.5,1.82l.22-.07-1.13-3.34,3.86-1.31,4.01,11.81c1.64,4.83-.55,7.97-5.49,9.65-4.47,1.52-7.96.49-9.14-2.99l4.14-1.41c.52,1.54,1.29,1.81,4.1.85,2.65-.9,3.26-1.72,2.34-4.43l-1.06-3.12-.22.07c.25,2.19-.9,4.15-3.99,5.2-4.11,1.4-7.32-.25-8.64-4.14ZM174.81,28.41c2.65-.9,3.69-2.08,3.05-3.99l-.1-.3c-.64-1.88-2.2-2.14-4.77-1.27-2.65.9-3.56,2.01-2.87,4.05.69,2.04,2.11,2.39,4.7,1.51Z"/><path class="cls-3" d="M192.85,28.28l-4.11-19.09,4.27-.92,1.63,7.58,4.76-1.02,3.44-8.67,5.13-1.1-4.61,10.83,8.64,8.27-5.13,1.1-6.51-6.29-4.81,1.04,1.58,7.35-4.27.92Z"/><path class="cls-3" d="M213.24,18.46l-1.11-9.02,4.34-.53.93,7.58c.29,2.34,1.39,3.2,4.14,2.87,2.83-.35,3.71-1.57,3.41-4.03l-.9-7.34,4.34-.53,1.78,14.49-4.05.5-.54-4.42-.23.03c-.08,2.48-1.56,4.98-5.38,5.45-4.08.5-6.32-1.78-6.72-5.01Z"/><path class="cls-3" d="M232.43,14.46c-.19-4.66,2.99-7.73,7.79-7.92,4.78-.19,8.05,2.19,8.23,6.76.02.52-.02.9-.06,1.4l-11.88.47c.21,2.24,1.29,3.16,4.12,3.04,2.59-.1,3.47-.81,3.42-2.06v-.29s4.36-.17,4.36-.17v.32c.14,3.17-2.86,5.51-7.49,5.69-4.86.19-8.28-2.06-8.48-7.24ZM236.48,12.87l7.74-.31c-.19-1.92-1.39-2.71-3.95-2.61-2.59.1-3.66,1.02-3.79,2.92Z"/><path class="cls-3" d="M251.63,26.07l.16-3.96,3.58.14c1.08.04,1.55-.23,1.87-.86l-6.54-14.93,4.95.2,2.82,6.79,1.08,3.48h.29s1.3-3.41,1.3-3.41l3.03-6.53,4.86.2-7.85,15.34c-1.52,3-3.51,3.77-7.17,3.62l-2.39-.1Z"/><path class="cls-3" d="M282.19,23.48l2.33-15.41-7.17-1.09.59-3.89,18.67,2.83-.59,3.89-7.17-1.09-2.33,15.41-4.32-.65Z"/><path class="cls-3" d="M297.25,18.56c1.09-4.53,4.98-6.63,9.65-5.5,4.65,1.12,7.15,4.29,6.08,8.74-.12.51-.27.86-.44,1.33l-11.56-2.78c-.41,2.21.38,3.39,3.13,4.05,2.52.61,3.56.17,3.85-1.05l.07-.28,4.25,1.02-.08.31c-.74,3.09-4.26,4.52-8.77,3.44-4.73-1.14-7.4-4.24-6.19-9.28ZM301.58,18.13l7.54,1.81c.34-1.9-.6-2.99-3.09-3.59-2.52-.61-3.8-.01-4.44,1.78Z"/><path class="cls-3" d="M315.45,23.04c1.46-4.43,5.56-6.18,10.29-4.62,4.73,1.55,7,5.4,5.54,9.83-1.44,4.37-5.55,6.15-10.28,4.6-4.73-1.56-6.99-5.42-5.55-9.8ZM327.16,26.89c.8-2.44.18-3.9-2.62-4.82-2.82-.93-4.17-.11-4.96,2.32-.8,2.44-.19,3.83,2.64,4.76,2.8.92,4.15.17,4.95-2.27Z"/><path class="cls-3" d="M333.97,37.03l2.29-14.96,4.12,1.84-1.14,6.79-1.29,4.4.27.12,3.09-4.08,4.56-4.79,5.14,2.29-.54,6.58-.96,5.02.27.12,2.44-3.89,4.26-5.41,4.07,1.81-9.72,11.65-4.98-2.22.57-7.43.65-4.11-.29-.13-2.65,3.22-5.17,5.38-4.98-2.22Z"/><path class="cls-3" d="M364.09,44.1l.09-.15,3.73,2.28-.27.45c-.94,1.54-.55,2.63,2.83,4.7,2.98,1.82,3.95,1.8,4.64.68.62-1.02.28-1.74-1.26-3.09l-4.27-3.52c-2.7-2.29-3.55-4.86-1.9-7.57,1.53-2.51,5.18-3.9,10.78-.49,5.12,3.12,6.07,6.94,3.93,10.45l-.09.15-3.76-2.29.21-.35c.97-1.59.56-2.76-2.75-4.78-2.69-1.64-3.83-1.62-4.48-.55-.59.97-.26,1.65.98,2.75l4.22,3.6c3.37,2.87,3.6,5.51,2.21,7.79-1.65,2.71-5.25,3.86-10.55.63-5.05-3.08-6.67-6.8-4.3-10.68Z"/><path class="cls-3" d="M381.89,54.3c2.76-3.76,7.2-4.15,11.22-1.21,4.02,2.95,4.98,7.3,2.22,11.06-2.72,3.71-7.18,4.13-11.2,1.18-4.02-2.95-4.96-7.32-2.24-11.04ZM391.83,61.58c1.52-2.07,1.38-3.65-1-5.39-2.4-1.76-3.93-1.4-5.44.67-1.52,2.07-1.37,3.59,1.03,5.34,2.37,1.74,3.89,1.44,5.41-.62Z"/><path class="cls-3" d="M396.63,67.47l5.97-6.86,3.3,2.87-5.01,5.76c-1.55,1.78-1.45,3.18.64,5,2.15,1.87,3.65,1.71,5.28-.16l4.86-5.58,3.3,2.87-9.58,11.02-3.08-2.68,2.92-3.36-.18-.15c-1.89,1.6-4.74,2.17-7.65-.35-3.1-2.7-2.91-5.89-.77-8.35Z"/><path class="cls-3" d="M404,87.88l14.04-13.61,2.82,2.91-2.87,2.78.2.21c2.37-1.57,4.74-1.27,7.13,1.2,3.12,3.22,2.73,7.09-.59,10.31-3.33,3.22-7.14,3.52-10.21.36-2.35-2.43-2.46-4.92-.96-7.06l-.14-.15-6.38,6.19-3.04-3.14ZM416.22,88.05c1.95,2.01,3.53,2.3,5.43.46,1.92-1.87,1.66-3.44-.27-5.42-1.97-2.03-3.67-2.41-5.53-.6l-.17.16c-1.8,1.74-1.37,3.44.53,5.41Z"/><path class="cls-3" d="M471.51,196.12l19.15-3.78,1.98,10c.88,4.43-1.08,7.79-5.48,8.65-4.4.87-7.51-1.49-8.38-5.92l-1.13-5.72-5.29,1.04-.85-4.29ZM487.65,197.39l-6.15,1.21,1.04,5.26c.47,2.37,1.38,3.35,3.78,2.88,2.34-.46,2.84-1.72,2.37-4.09l-1.04-5.26Z"/><path class="cls-3" d="M482.4,214.47c4.63-.51,7.92,2.43,8.45,7.21.53,4.75-1.61,8.18-6.16,8.69-.52.06-.9.04-1.4.04l-1.31-11.82c-2.22.36-3.06,1.51-2.74,4.32.29,2.58,1.05,3.4,2.3,3.26l.29-.03.48,4.34-.32.04c-3.16.35-5.7-2.47-6.21-7.08-.54-4.84,1.47-8.4,6.62-8.98ZM484.27,218.39l.86,7.7c1.9-.33,2.61-1.58,2.33-4.13-.29-2.58-1.28-3.58-3.18-3.58Z"/><path class="cls-3" d="M477.12,233.89l14.59-.43.12,4.05-4.49.13v.26c2.47.31,4.85,1.99,4.96,5.8.12,3.99-2.39,5.96-5.62,6.05l-9.09.27-.13-4.37,7.63-.22c2.33-.07,3.29-1.06,3.21-3.74-.08-2.77-1.22-3.72-3.69-3.65l-7.37.22-.13-4.37Z"/><path class="cls-3" d="M481.16,252.65c2.15.11,3.41,1.78,3.58,4.91l.33,6.29.55.03c1.89.1,2.46-.72,2.58-3.05.11-2.21-.43-3.14-2.08-3.23h-.12s.22-4.4.22-4.4h.09c3.61.19,5.96,3.34,5.72,8.14-.24,4.86-2.86,7.03-6.67,6.84l-8.55-.43.21-4.07,3.35.17v-.23c-2.22-.78-3.49-2.89-3.33-6.12.16-3.14,1.71-4.96,4.15-4.84ZM480.03,258.89c-.15,2.97.47,4.6,2.53,4.82l-.33-5.09c-.03-1.05-.3-1.53-1-1.57-.79-.04-1.14.56-1.2,1.84Z"/><path class="cls-3" d="M476.54,270.73l14.47,1.9-.53,4.02-4.45-.58-.03.26c2.38.69,4.46,2.73,3.96,6.52-.52,3.96-3.31,5.5-6.52,5.08l-9.01-1.19.57-4.33,7.57,1c2.31.3,3.42-.52,3.77-3.18.36-2.74-.61-3.87-3.06-4.19l-7.31-.96.57-4.33Z"/><path class="cls-3" d="M482.01,290.99c3.98.88,5.98,4.03,5.04,8.3-.64,2.9-2.35,4.71-4.92,4.62l-.05.23,3.44.76-.88,3.98-12.18-2.68c-4.98-1.09-6.54-4.6-5.42-9.69,1.01-4.61,3.7-7.06,7.29-6.27l-.94,4.27c-1.59-.35-2.21.17-2.85,3.07-.6,2.73-.21,3.68,2.58,4.3l3.22.71.05-.23c-2.01-.92-3.09-2.92-2.39-6.1.93-4.24,4-6.13,8.01-5.25ZM477.34,298.53c-.6,2.73-.13,4.24,1.84,4.67l.31.07c1.93.42,2.97-.78,3.56-3.42.6-2.73.12-4.09-1.98-4.55s-3.14.56-3.72,3.24Z"/><path class="cls-3" d="M468.12,314.03l18.45,6.35-1.42,4.13-7.33-2.52-1.58,4.6,5.64,7.42-1.71,4.96-6.88-9.54-11.54,3.11,1.71-4.96,8.75-2.32,1.6-4.65-7.11-2.44,1.42-4.13Z"/><path class="cls-3" d="M465.97,336.55l8.29,3.72-1.79,3.99-6.96-3.13c-2.15-.97-3.46-.47-4.6,2.06-1.17,2.6-.58,3.99,1.68,5l6.75,3.03-1.79,3.99-13.32-5.98,1.67-3.72,4.07,1.83.09-.21c-2.08-1.35-3.45-3.91-1.87-7.42,1.68-3.75,4.79-4.49,7.77-3.15Z"/><path class="cls-3" d="M459.46,355.06c4.08,2.26,5.06,6.56,2.74,10.77-2.31,4.18-6.04,5.75-10.04,3.53-.46-.25-.76-.49-1.17-.78l5.75-10.4c-2.02-.98-3.37-.53-4.74,1.94-1.25,2.27-1.11,3.38,0,3.99l.25.14-2.11,3.83-.28-.16c-2.78-1.54-3.22-5.31-.98-9.37,2.35-4.26,6.05-6.01,10.59-3.5ZM458.72,359.35l-3.75,6.78c1.74.83,3.04.22,4.28-2.03,1.25-2.27,1.03-3.66-.53-4.76Z"/><path class="cls-3" d="M439.58,365.45l3.3,2.19-1.98,2.98c-.6.9-.61,1.45-.24,2.04l16.15,2.17-2.74,4.12-7.27-1.12-3.54-.88-.16.24,2.24,2.89,4,5.98-2.69,4.05-9.03-14.68c-1.77-2.86-1.4-4.95.64-8.01l1.32-1.99Z"/><path class="cls-3" d="M425.9,392.9l11.95,10.01,4.66-5.56,3.02,2.53-12.12,14.48-3.02-2.53,4.66-5.56-11.95-10.01,2.81-3.35Z"/><path class="cls-3" d="M422.28,408.32c3.31,3.28,3.08,7.69-.31,11.1-3.37,3.39-7.38,3.88-10.63.66-.37-.37-.6-.68-.91-1.07l8.37-8.44c-1.67-1.5-3.09-1.43-5.09.57-1.83,1.84-1.99,2.95-1.1,3.84l.21.21-3.08,3.1-.23-.23c-2.25-2.24-1.65-5.99,1.61-9.28,3.43-3.45,7.46-4.13,11.14-.47ZM420.4,412.25l-5.46,5.5c1.45,1.27,2.87,1.04,4.67-.78,1.83-1.84,1.99-3.24.79-4.72Z"/><path class="cls-3" d="M409.01,421.56c3.03,3.54,2.41,7.96-1.38,11.2s-8.24,3.19-11.28-.35c-3-3.5-2.39-7.93,1.4-11.18,3.78-3.24,8.26-3.17,11.26.33ZM399.66,429.58c1.67,1.95,3.24,2.17,5.48.26,2.26-1.93,2.25-3.5.58-5.45s-3.18-2.15-5.44-.21c-2.23,1.92-2.29,3.46-.62,5.41Z"/><path class="cls-3" d="M387.48,430.14l11.62,9.7-3.71,2.58-5.22-4.49-3.1-3.38-.24.17,1.89,4.75,1.75,6.38-4.62,3.21-5.36-3.87-3.8-3.42-.24.17,2.07,4.1,2.43,6.44-3.66,2.55-4.95-14.34,4.47-3.11,6.07,4.33,3.18,2.68.26-.18-1.39-3.93-1.93-7.21,4.47-3.11Z"/><path class="cls-3" d="M365.84,452.28l.08.15-3.88,2.02-.24-.46c-.83-1.6-1.97-1.83-5.49,0-3.1,1.62-3.58,2.46-2.97,3.62.55,1.06,1.35,1.14,3.29.52l5.22-1.83c3.36-1.12,6-.53,7.46,2.29,1.36,2.61.67,6.45-5.14,9.48-5.32,2.77-9.08,1.61-10.98-2.03l-.08-.15,3.9-2.03.19.36c.86,1.65,2.08,1.91,5.51.12,2.79-1.45,3.36-2.44,2.78-3.55-.52-1.01-1.28-1.07-2.86-.58l-5.26,1.75c-4.2,1.4-6.58.24-7.81-2.14-1.47-2.82-.59-6.49,4.91-9.36,5.24-2.73,9.27-2.2,11.37,1.83Z"/><path class="cls-3" d="M347.89,462.26c1.79,4.3-.17,8.31-4.77,10.22-4.6,1.92-8.83.49-10.62-3.82-1.77-4.25.18-8.28,4.78-10.2,4.6-1.92,8.84-.46,10.61,3.79ZM336.51,467c.99,2.37,2.41,3.07,5.13,1.94,2.74-1.14,3.23-2.64,2.24-5-.99-2.37-2.36-3.02-5.11-1.88-2.72,1.13-3.25,2.58-2.26,4.95Z"/><path class="cls-3" d="M329.02,468.05l2.78,8.66-4.16,1.33-2.33-7.27c-.72-2.25-1.97-2.89-4.6-2.04-2.72.87-3.35,2.24-2.59,4.6l2.26,7.05-4.16,1.33-4.46-13.9,3.88-1.25,1.36,4.25.22-.07c-.39-2.45.6-5.18,4.26-6.35,3.91-1.25,6.54.56,7.54,3.67Z"/><path class="cls-3" d="M307.75,463.77l4.34,19.06-3.95.9-.89-3.89-.28.06c.11,2.84-1.38,4.71-4.73,5.47-4.38,1-7.48-1.35-8.51-5.86-1.03-4.52.71-7.93,5-8.91,3.3-.75,5.48.46,6.54,2.85l.2-.05-1.97-8.67,4.26-.97ZM301.26,474.13c-2.73.62-3.8,1.82-3.21,4.41.59,2.61,2.07,3.2,4.77,2.59,2.76-.63,3.96-1.89,3.39-4.42l-.05-.23c-.56-2.44-2.23-2.96-4.9-2.35Z"/><path class="cls-3" d="M180.16,465.38l-6.68,18.34-9.58-3.49c-4.24-1.54-6.1-4.95-4.57-9.17,1.53-4.21,5.16-5.66,9.4-4.11l5.47,1.99,1.84-5.06,4.11,1.5ZM170.72,478.53l2.14-5.89-5.04-1.83c-2.27-.83-3.58-.56-4.42,1.74-.82,2.24,0,3.32,2.27,4.14l5.04,1.83Z"/><path class="cls-3" d="M158.8,465.19c-1.96,4.23-6.18,5.52-10.54,3.5-4.34-2.01-6.17-5.62-4.25-9.77.22-.48.43-.79.69-1.22l10.79,4.99c.84-2.08.29-3.4-2.28-4.58-2.35-1.09-3.46-.86-3.98.28l-.12.26-3.97-1.84.13-.29c1.33-2.88,5.07-3.59,9.27-1.65,4.42,2.04,6.43,5.61,4.25,10.31ZM154.47,464.76l-7.03-3.25c-.7,1.79,0,3.05,2.33,4.13,2.35,1.09,3.73.76,4.71-.87Z"/><path class="cls-3" d="M144.95,450.63l-7.2,12.7-3.52-2,2.21-3.9-.23-.13c-1.54,1.94-4.21,3.11-7.53,1.22-3.47-1.97-3.85-5.13-2.26-7.95l4.48-7.91,3.8,2.16-3.77,6.64c-1.15,2.03-.8,3.36,1.53,4.69,2.41,1.37,3.82.89,5.04-1.26l3.64-6.41,3.8,2.16Z"/><path class="cls-3" d="M126.81,444.36c-1.21,1.78-3.29,1.99-6.05.5l-5.54-2.99-.31.46c-1.06,1.57-.66,2.47,1.27,3.78,1.83,1.25,2.91,1.27,3.84-.1l.07-.1,3.64,2.47-.05.07c-2.03,2.99-5.94,3.36-9.92.66-4.02-2.73-4.52-6.1-2.37-9.26l4.81-7.08,3.37,2.29-1.88,2.77.19.13c1.83-1.5,4.29-1.49,6.96.33,2.6,1.77,3.35,4.04,1.97,6.06ZM122.06,440.15c-2.46-1.67-4.18-1.99-5.43-.35l4.52,2.37c.92.52,1.46.54,1.86-.04.44-.65.12-1.26-.94-1.98Z"/><path class="cls-3" d="M113.75,431l-9.15,11.38-3.16-2.54,2.81-3.5-.2-.16c-1.83,1.67-4.65,2.39-7.63,0-3.11-2.5-2.98-5.69-.95-8.21l5.7-7.08,3.41,2.74-4.79,5.95c-1.46,1.82-1.33,3.19.76,4.87,2.16,1.74,3.62,1.49,5.18-.44l4.62-5.75,3.41,2.74Z"/><path class="cls-3" d="M93.6,425.15c-2.82,2.95-6.54,3.02-9.7,0-2.15-2.05-2.8-4.45-1.39-6.6l-.17-.16-2.43,2.55-2.95-2.82,8.61-9.02c3.52-3.69,7.32-3.2,11.09.4,3.41,3.26,4.12,6.83,1.58,9.48l-3.16-3.02c1.13-1.18,1-1.98-1.14-4.03-2.02-1.93-3.04-2.09-5.01-.03l-2.27,2.38.17.16c1.83-1.24,4.09-1.12,6.45,1.13,3.14,3,3.16,6.6.33,9.57ZM89.58,417.25c-2.02-1.93-3.56-2.31-4.94-.85l-.22.23c-1.37,1.43-.88,2.95,1.08,4.82,2.02,1.93,3.43,2.23,4.92.67s1.15-2.97-.83-4.86Z"/><path class="cls-3" d="M81.1,401.3l-15,12.5-2.8-3.36,5.95-4.96-3.12-3.74-9.28.98-3.36-4.03,11.74-.94,3.32-11.49,3.36,4.03-2.55,8.69,3.15,3.78,5.78-4.81,2.8,3.36Z"/><path class="cls-3" d="M62.96,387.81l-7.47,5.17-2.49-3.59,6.28-4.35c1.94-1.34,2.19-2.72.62-5-1.62-2.35-3.12-2.56-5.15-1.15l-6.08,4.21-2.49-3.59,12-8.31,2.32,3.35-3.67,2.54.13.19c2.23-1.08,5.13-.93,7.32,2.23,2.34,3.38,1.37,6.43-1.32,8.28Z"/><path class="cls-3" d="M50.48,372.66c-4.04,2.33-8.23.94-10.63-3.22-2.38-4.14-1.8-8.14,2.16-10.42.45-.26.81-.4,1.27-.6l5.93,10.3c1.89-1.22,2.19-2.61.78-5.06-1.29-2.25-2.33-2.69-3.41-2.07l-.25.14-2.18-3.79.28-.16c2.75-1.58,6.21-.01,8.52,4,2.43,4.21,2.02,8.28-2.48,10.87ZM47.19,369.82l-3.87-6.71c-1.61,1.06-1.76,2.49-.48,4.71,1.29,2.25,2.6,2.77,4.35,2Z"/><path class="cls-3" d="M51.87,350.3l-3.58,1.69-1.53-3.24c-.46-.98-.92-1.27-1.63-1.26l-10.21,12.71-2.11-4.48,4.72-5.64,2.59-2.57-.12-.26-3.63.43-7.19.33-2.08-4.4,17.24-.14c3.36-.04,4.96,1.36,6.53,4.68l1.02,2.16Z"/><path class="cls-3" d="M35.44,324.4l-14.75,5.04,2.35,6.87-3.72,1.27-6.11-17.87,3.72-1.27,2.35,6.87,14.75-5.04,1.41,4.14Z"/><path class="cls-3" d="M24.13,313.31c-4.52,1.12-8.17-1.36-9.34-6.02-1.15-4.64.51-8.32,4.95-9.43.51-.13.89-.16,1.38-.22l2.87,11.54c2.15-.65,2.83-1.9,2.15-4.65-.63-2.52-1.49-3.23-2.71-2.93l-.28.07-1.05-4.24.31-.08c3.08-.77,5.98,1.7,7.09,6.19,1.17,4.72-.34,8.52-5.37,9.77ZM21.75,309.67l-1.87-7.52c-1.84.58-2.38,1.91-1.76,4.4.63,2.52,1.74,3.38,3.63,3.12Z"/><path class="cls-3" d="M19.7,295.1c-4.6.75-8.04-2.08-8.85-7s1.56-8.7,6.16-9.45c4.54-.74,8.01,2.08,8.82,7,.8,4.92-1.59,8.7-6.13,9.44ZM17.72,282.94c-2.53.41-3.54,1.64-3.06,4.54.48,2.93,1.82,3.75,4.35,3.33,2.53-.41,3.49-1.6,3.01-4.54-.47-2.9-1.77-3.76-4.29-3.34Z"/><path class="cls-3" d="M23.56,272.23l-14.32,4.89-.28-4.51,6.55-2.13,4.5-.89-.02-.29-5.05-.86-6.36-1.82-.35-5.61,6.09-2.57,4.9-1.47-.02-.29-4.58-.36-6.76-1.27-.28-4.45,14.83,3.23.34,5.44-6.85,2.93-3.95,1.32.02.32,4.08.86,7.17,2.1.34,5.44Z"/><path class="cls-3" d="M15.89,242.23h-.17s.28-4.37.28-4.37l.52.03c1.8.12,2.59-.74,2.84-4.69.23-3.49-.25-4.34-1.55-4.42-1.19-.08-1.67.56-2.15,2.55l-1.14,5.41c-.78,3.45-2.65,5.4-5.82,5.2-2.94-.19-5.86-2.77-5.44-9.31.39-5.99,3.33-8.6,7.43-8.34h.17s-.28,4.4-.28,4.4l-.41-.03c-1.86-.12-2.71.79-2.96,4.65-.2,3.14.35,4.14,1.6,4.22,1.13.07,1.58-.54,1.98-2.15l1.22-5.41c.98-4.32,3.2-5.75,5.88-5.58,3.17.2,5.86,2.86,5.46,9.05-.38,5.9-2.92,9.06-7.46,8.77Z"/><path class="cls-3" d="M16.65,221.73c-4.61-.69-7.02-4.44-6.28-9.37.74-4.93,4.15-7.8,8.76-7.11,4.55.68,6.99,4.44,6.25,9.37-.74,4.93-4.18,7.8-8.73,7.11ZM18.48,209.55c-2.54-.38-3.87.48-4.31,3.39-.44,2.94.59,4.12,3.12,4.51,2.54.38,3.81-.46,4.25-3.4.44-2.91-.53-4.12-3.07-4.5Z"/><path class="cls-3" d="M21.46,202.59l-8.85-2.1,1.01-4.25,7.43,1.76c2.3.54,3.49-.19,4.13-2.88.66-2.78-.18-4.03-2.59-4.6l-7.2-1.71,1.01-4.25,14.2,3.37-.94,3.97-4.34-1.03-.05.23c2.29.93,4.12,3.19,3.23,6.94-.95,4-3.87,5.31-7.04,4.56Z"/><path class="cls-3" d="M36.12,186.59l-18.56-6.14,1.27-3.85,3.79,1.25.09-.28c-2.49-1.38-3.32-3.61-2.24-6.88,1.41-4.26,5.02-5.71,9.42-4.25,4.4,1.46,6.42,4.7,5.04,8.88-1.06,3.21-3.22,4.46-5.81,4.12l-.06.19,8.44,2.79-1.37,4.15ZM30.61,175.68c.88-2.66.41-4.19-2.11-5.03-2.54-.84-3.81.12-4.68,2.75-.89,2.68-.43,4.37,2.03,5.18l.22.07c2.38.79,3.68-.38,4.54-2.98Z"/><path class="cls-3" d="M470.77,164.73c.36.6.55,1.35.55,2.23,0,.41.34.74.75.74.34,0,.63-.23.71-.55.02-.06.03-.13.03-.2-.01-1.15-.27-2.15-.76-2.98-.23-.38-.45-.64-.64-.87.23-.17.45-.37.66-.59.11.24.19.52.25.92.05.41.43.69.84.64.31-.04.54-.26.62-.54.03-.09.03-.19.02-.29-.13-.99-.44-1.57-.76-2.01.18-.34.4-.82.57-1.44.09-.34.16-.71.21-1.12.18-1.79-.59-3.37-1.27-4.37-1.4-2.08-2.85-3.24-2.86-3.25-1.13-.88-2.44-2.35-3.82-4.26-2.38-3.31-4.72-7.67-6.11-11.39-1.21-3.23-1.96-6.71-2.23-10.37.46.25.91.52,1.34.82,1.93,1.34,3.58,3.14,4.77,5.23.14.25.41.39.7.37.28-.02.53-.2.64-.47.43-1.1,1.04-2.1,1.8-2.97.23-.27.25-.66.03-.94-2.38-3.05-5.69-5.44-9.33-6.73-1.49-.53-2.67-.56-3.59-.12,0-.98.14-1.95.46-2.86.09-.27.03-.56-.17-.76-.24-.25-.48-.5-.73-.75l-.72-.74c-.17-.18-.41-.26-.65-.22-.24.04-.45.19-.55.41-.61,1.27-1.11,2.59-1.51,3.94-.58-1.55-1.04-3.14-1.33-4.76-.07-.39-.45-.66-.84-.6-.68.1-1.39-.01-1.99-.33-.23-.12-.51-.11-.73.02-.22.14-.36.38-.36.64.03,2.52.7,5.51,1.6,8.33-1.21-.8-2.48-1.46-3.83-1.93-1.23-.44-2.55-.74-3.9-.89-.19-.02-.39.03-.54.15-.7.55-1.4,1.09-2.1,1.65-.21.17-.32.44-.27.7.04.27.23.49.48.58,1.3.48,2.56,1.07,3.77,1.75-.39-.03-.78-.06-1.18-.07-.08,0-.17.01-.25.04-.51.17-1.45.6-2.02,1.64-.26.47-.4,1-.43,1.57-.02.35.22.66.55.75,5.1,1.34,9.94,3.95,13.93,7.49-3.65-1.66-7.66-2.53-11.67-2.49-.4,0-.73.33-.74.73-.02,1.02-.05,2.05-.08,3.08,0,.21.07.41.22.56.15.15.35.22.56.21,6.34-.36,12.9,1.64,18.02,5.46,2.37,3.81,4.06,8.1,4.85,12.53.05.25.08.55.12.88.2,1.66.5,4.17,2.42,5.74.8.65,1.87,1.15,3.01,1.35.04.2.09.4.15.6.31.99.83,1.69,1.21,2.11.28.3.75.32,1.05.04.11-.1.18-.22.21-.35.06-.24,0-.5-.17-.7-.28-.3-.66-.82-.88-1.54,0-.03-.02-.06-.02-.09.41-.03.82-.11,1.22-.24.06.08.13.16.19.23.18.21.35.41.52.7h0ZM456.95,121.73c3.19,1.13,6.11,3.17,8.28,5.78-.4.51-.76,1.06-1.07,1.64-1.21-1.77-2.74-3.32-4.48-4.53-.85-.58-1.76-1.1-2.7-1.52-.62-.28-1.26-.53-1.91-.74-.39-.13-.81.09-.94.48-.14.38.09.81.48.94.46.15.91.32,1.35.51.23,4.11,1.02,8.02,2.38,11.63,1.28,3.41,3.33,7.35,5.5,10.58-1.17-.07-2.49-.43-3.13-1.56-1.94-3.4-3.68-6.94-5.18-10.51-.1-.24-.45-1.09-.83-2.31,0,0,0-.01,0-.02,0,0,0-.01,0-.02-.63-2.01-1.36-5.03-1.23-8.04.04-.84.17-1.87.82-2.36.55-.41,1.42-.39,2.67.06h0ZM452.4,116.91l.37.38c-.41,1.39-.51,2.86-.3,4.32-.28.58-.4,1.22-.46,1.83-.38-.65-.73-1.31-1.06-1.98.34-1.56.82-3.08,1.45-4.55ZM447.33,115.39c.8,3.87,2.41,7.59,4.68,10.82.1,1.34.32,2.63.58,3.79-.23-.2-.46-.4-.69-.59-.44-.35-1.03-.82-1.77-1.32-1.76-3.7-3.53-8.87-3.85-12.82.34.08.7.12,1.05.12h0ZM437.91,121.87c.28-.22.56-.44.83-.65,1.14.15,2.24.41,3.27.78,1.88.66,3.63,1.69,5.2,3.03.23.6.46,1.18.69,1.74-.82-.43-1.74-.84-2.79-1.2-.49-.17-.99-.31-1.5-.44-1.79-1.31-3.7-2.41-5.71-3.26h0ZM437.66,127.21c.04-.12.09-.24.15-.35.29-.52.75-.78,1.06-.9,1.96.05,3.9.4,5.77,1.03,3.16,1.08,5.22,2.72,6.33,3.6.81.64,1.58,1.34,2.35,2.11.37,1.17.7,2,.83,2.31.77,1.83,1.61,3.66,2.5,5.46-.76-1.04-1.57-2.04-2.43-2.99-4.42-4.86-10.28-8.48-16.56-10.27h0ZM439.59,136.52c.02-.52.03-1.04.04-1.56,5.19.09,10.33,1.79,14.58,4.81.14.18.3.34.44.52-4.57-2.56-9.86-3.9-15.06-3.76h0ZM465.21,161.49c-1.46-1.19-1.7-3.25-1.89-4.76-.04-.36-.08-.69-.13-.96-.55-3.09-1.52-6.12-2.84-8.97,1.05.88,2.61,1.28,4.52,1.18,1.37,1.87,2.7,3.33,3.87,4.24.26.2,1.46,1.29,2.54,2.9.54.81,1.16,2.05,1.02,3.4-.12,1.19-.62,2.05-.76,2.27-.43.63-.91,1.09-1.45,1.39-1.57.86-3.69.29-4.89-.69h0Z"/><path class="cls-3" d="M261.35,485.66c.7.05,1.42.33,2.14.83.34.23.8.15,1.03-.19.19-.28.17-.65-.04-.9-.04-.05-.09-.1-.15-.14-.94-.65-1.91-1.01-2.87-1.08-.44-.03-.78,0-1.08.03,0-.29-.05-.58-.11-.88.26.05.54.14.9.33.36.19.81.05,1-.32.14-.27.1-.6-.09-.82-.06-.07-.14-.14-.23-.18-.89-.46-1.53-.54-2.08-.53-.18-.35-.44-.8-.85-1.29-.22-.27-.49-.54-.8-.81-1.36-1.17-3.1-1.45-4.31-1.48-2.51-.06-4.29.47-4.3.47-1.36.42-3.33.65-5.68.68-4.07.05-8.99-.55-12.83-1.55-3.34-.86-6.62-2.26-9.77-4.13.47-.23.95-.44,1.44-.63,2.21-.81,4.63-1.12,7.02-.9.28.03.56-.11.71-.36.15-.24.14-.55-.02-.79-.65-.99-1.12-2.06-1.4-3.18-.08-.34-.4-.58-.76-.56-3.86.19-7.72,1.53-10.87,3.77-1.29.92-2,1.86-2.16,2.87-.8-.56-1.51-1.24-2.07-2.02-.17-.23-.44-.35-.72-.3-.34.05-.68.11-1.03.16l-1.02.16c-.24.04-.45.19-.55.41-.11.22-.1.48.02.69.69,1.23,1.48,2.39,2.36,3.5-1.6-.41-3.17-.96-4.66-1.65-.36-.17-.8-.02-.98.34-.31.62-.81,1.13-1.42,1.44-.23.12-.39.35-.4.61-.02.26.1.51.32.66,2.08,1.43,4.91,2.59,7.74,3.48-1.35.53-2.62,1.19-3.78,2.02-1.07.76-2.07,1.66-2.97,2.68-.13.15-.2.34-.19.53.05.89.09,1.77.14,2.66.01.27.17.51.42.63.24.12.53.1.75-.06,1.14-.79,2.34-1.48,3.6-2.08-.25.3-.5.61-.73.93-.05.07-.09.14-.11.22-.16.51-.34,1.53.18,2.59.24.48.59.9,1.04,1.25.28.21.66.2.93-.02,4.03-3.4,8.95-5.86,14.13-7.09-3.46,2.03-6.47,4.81-8.74,8.12-.23.33-.15.79.17,1.02.82.61,1.65,1.22,2.47,1.84.17.12.38.17.58.14.21-.04.38-.16.49-.34,3.36-5.4,8.75-9.62,14.83-11.61,4.48.25,8.96,1.34,13.04,3.23.23.11.49.25.79.41,1.47.79,3.7,1.98,6.09,1.31.99-.28,2.01-.87,2.83-1.69.19.08.38.16.57.22.98.32,1.86.29,2.42.22.41-.05.69-.43.64-.83-.02-.15-.08-.27-.17-.38-.16-.19-.41-.3-.67-.26-.41.05-1.05.07-1.77-.16-.03,0-.06-.02-.09-.03.21-.36.39-.73.5-1.14.1,0,.2-.02.3-.02.28-.03.54-.05.87-.03h0ZM218.21,472.24c2.76-1.96,6.11-3.18,9.49-3.46.19.62.43,1.23.73,1.82-2.15-.03-4.29.33-6.28,1.06-.97.36-1.91.81-2.8,1.34-.58.35-1.16.73-1.7,1.14-.33.25-.39.71-.15,1.04.24.33.71.39,1.04.15.39-.29.79-.56,1.19-.81,3.49,2.17,7.15,3.77,10.89,4.74,3.53.92,7.93,1.5,11.82,1.58-.73.92-1.78,1.79-3.08,1.66-3.9-.37-7.79-.98-11.58-1.8-.25-.05-1.16-.26-2.37-.65,0,0-.01,0-.02,0,0,0-.01,0-.02,0-2.01-.64-4.9-1.78-7.29-3.62-.67-.52-1.43-1.22-1.45-2.03-.02-.68.5-1.38,1.58-2.15h0ZM211.66,473.2l.52-.08c.9,1.13,2.05,2.06,3.36,2.73.31.56.77,1.03,1.23,1.43-.75-.06-1.49-.15-2.23-.27-1.08-1.17-2.05-2.44-2.89-3.8ZM207.5,476.47c3.62,1.57,7.6,2.39,11.55,2.39,1.15.69,2.33,1.25,3.43,1.7-.29.08-.59.14-.88.23-.54.16-1.26.37-2.1.68-4.03-.69-9.28-2.21-12.71-4.22.26-.24.5-.5.7-.79h0ZM207.39,487.91c-.02-.35-.04-.7-.06-1.06.78-.84,1.62-1.59,2.52-2.23,1.63-1.16,3.47-2,5.47-2.51.62.16,1.23.3,1.82.43-.82.43-1.69.94-2.59,1.59-.42.31-.83.63-1.22.97-2.1.7-4.1,1.64-5.95,2.8h0ZM211.61,491.17c-.08-.1-.15-.21-.2-.32-.26-.53-.21-1.06-.13-1.39,1.17-1.58,2.57-2.96,4.16-4.13,2.7-1.97,5.23-2.71,6.58-3.11.99-.3,2-.53,3.08-.71,1.17.37,2.04.57,2.37.64,1.94.42,3.92.79,5.9,1.1-1.29.02-2.57.11-3.84.27-6.52.83-12.85,3.54-17.92,7.65h0ZM220.34,494.95c-.42-.31-.84-.62-1.25-.93,3.06-4.19,7.4-7.43,12.31-9.17.23-.02.45-.05.68-.06-4.72,2.27-8.86,5.83-11.74,10.16h0ZM255.5,488.33c-1.81.51-3.64-.48-4.98-1.19-.32-.17-.61-.33-.86-.44-2.84-1.32-5.88-2.27-8.97-2.84,1.32-.36,2.55-1.4,3.57-3.02,2.31-.05,4.28-.3,5.7-.73.32-.1,1.9-.45,3.84-.41.97.02,2.34.23,3.37,1.12.91.78,1.32,1.69,1.42,1.92.27.71.37,1.38.3,1.98-.2,1.78-1.89,3.19-3.37,3.61h0Z"/><path class="cls-3" d="M64.5,97.84c.39-.58,1-1.06,1.79-1.44.37-.18.53-.62.35-.99-.15-.31-.48-.47-.8-.41-.07.01-.13.03-.19.06-1.03.49-1.83,1.15-2.38,1.95-.25.37-.4.68-.52.95-.25-.14-.53-.25-.82-.35.17-.2.39-.39.73-.61.35-.22.45-.68.23-1.03-.17-.26-.47-.38-.75-.33-.1.02-.19.05-.27.11-.85.54-1.23,1.06-1.51,1.54-.39-.02-.92-.02-1.54.09-.35.06-.71.15-1.1.28-1.7.59-2.81,1.95-3.44,2.99-1.3,2.14-1.74,3.95-1.74,3.96-.32,1.39-1.1,3.21-2.26,5.25-2,3.55-4.98,7.51-7.76,10.33-2.42,2.46-5.27,4.6-8.47,6.39.04-.52.09-1.05.18-1.56.4-2.32,1.35-4.57,2.74-6.53.17-.23.18-.54.04-.79-.14-.25-.41-.4-.69-.38-1.18.07-2.34-.06-3.45-.38-.34-.1-.7.06-.87.37-1.77,3.44-2.54,7.45-2.18,11.3.15,1.58.61,2.66,1.4,3.31-.89.41-1.83.69-2.79.78-.28.03-.52.21-.62.47-.12.32-.25.65-.37.97l-.37.96c-.09.23-.06.48.08.68.14.2.36.32.61.33,1.41.02,2.82-.08,4.21-.29-1.16,1.18-2.41,2.26-3.76,3.21-.33.23-.41.68-.19,1.02.38.58.57,1.27.54,1.95-.01.26.11.51.33.66.22.15.5.17.73.05,2.28-1.09,4.7-2.95,6.88-4.96-.22,1.43-.28,2.86-.14,4.28.12,1.3.4,2.62.83,3.92.06.19.19.34.37.43.79.4,1.58.81,2.38,1.21.24.12.53.1.75-.05.22-.15.35-.41.33-.68-.11-1.38-.11-2.77,0-4.16.14.37.27.74.43,1.1.03.08.08.15.14.21.37.39,1.15,1.06,2.34,1.14.54.03,1.08-.06,1.6-.27.32-.13.51-.47.45-.82-.93-5.19-.59-10.68.94-15.78.03,4.01.93,8.01,2.65,11.63.17.36.61.52.97.36.94-.41,1.88-.82,2.83-1.22.19-.08.34-.24.41-.44.07-.2.05-.41-.05-.6-2.99-5.61-3.94-12.39-2.62-18.65,2.46-3.75,5.64-7.08,9.33-9.66.21-.15.46-.3.74-.48,1.42-.88,3.57-2.21,4.18-4.61.25-.99.25-2.18-.05-3.3.17-.12.33-.25.48-.38.77-.69,1.18-1.46,1.4-1.98.16-.38-.02-.81-.4-.97-.14-.06-.28-.07-.41-.05-.24.04-.46.2-.56.45-.16.38-.46.94-1.03,1.45-.02.02-.05.04-.07.06-.2-.36-.44-.7-.73-1.01.04-.09.09-.18.13-.27.12-.25.22-.49.41-.77h0ZM31.29,128.46c-.32-3.37.31-6.88,1.76-9.95.63.15,1.28.24,1.93.28-1.1,1.84-1.86,3.88-2.23,5.97-.17,1.02-.25,2.06-.24,3.09,0,.68.05,1.36.13,2.04.05.41.42.7.83.65.41-.04.7-.42.65-.83-.06-.49-.09-.96-.11-1.44,3.63-1.93,6.85-4.3,9.55-7.05,2.56-2.59,5.27-6.11,7.29-9.44.42,1.09.65,2.44-.1,3.5-2.27,3.19-4.75,6.25-7.36,9.12-.17.19-.8.87-1.75,1.73,0,0-.01.01-.02.01,0,0-.01.01-.02.01-1.56,1.42-4,3.35-6.78,4.5-.78.32-1.77.63-2.48.24-.6-.32-.95-1.13-1.07-2.45h0ZM28.84,134.61l.19-.5c1.43-.21,2.81-.74,4.05-1.54.64,0,1.28-.15,1.85-.35-.43.61-.88,1.22-1.35,1.79-1.55.35-3.14.55-4.74.6ZM29.58,139.85c3.17-2.35,5.87-5.38,7.85-8.8,1.18-.65,2.25-1.39,3.19-2.12-.08.29-.17.58-.24.88-.13.55-.31,1.28-.46,2.16-2.61,3.15-6.56,6.93-10.02,8.89-.07-.35-.19-.68-.33-1h0ZM39.43,145.67c-.31-.16-.63-.32-.94-.48-.34-1.09-.57-2.2-.67-3.3-.19-1.99,0-4,.57-5.99.45-.46.88-.91,1.29-1.36-.04.93-.03,1.94.09,3.04.06.52.13,1.03.23,1.54-.44,2.17-.63,4.37-.56,6.56h0ZM44.37,143.65c-.13.02-.26.02-.38.01-.59-.04-1.02-.35-1.26-.58-.78-1.8-1.28-3.71-1.49-5.66-.35-3.32.27-5.88.6-7.26.24-1.01.55-2,.93-3.02.91-.83,1.52-1.48,1.74-1.73,1.34-1.47,2.64-3,3.9-4.56-.63,1.13-1.19,2.28-1.69,3.46-2.55,6.05-3.38,12.89-2.36,19.34h0ZM52.01,137.99c-.48.21-.96.41-1.43.62-2.1-4.75-2.72-10.13-1.77-15.25.1-.2.18-.41.29-.61-.4,5.22.61,10.59,2.92,15.25h0ZM63.89,104.24c-.47,1.82-2.24,2.91-3.53,3.71-.31.19-.59.37-.82.53-2.57,1.8-4.91,3.95-6.95,6.35.35-1.33.07-2.91-.83-4.6,1.12-2.03,1.88-3.85,2.22-5.3.07-.32.56-1.87,1.57-3.53.5-.83,1.37-1.91,2.66-2.36,1.13-.39,2.12-.3,2.38-.27.75.12,1.38.37,1.87.73,1.44,1.06,1.81,3.23,1.43,4.73h0Z"/></g></g></svg>