<svg xmlns="http://www.w3.org/2000/svg" xmlns:xlink="http://www.w3.org/1999/xlink" width="500" height="500" viewBox="0 0 500 500"><defs><clipPath id="a"><rect width="500" height="500" transform="translate(-1701 6456)" fill="none" stroke="#707070" stroke-width="1"/></clipPath><clipPath id="b"><rect width="500" height="500" fill="none"/></clipPath></defs><g transform="translate(1701 -6456)" clip-path="url(#a)"><g transform="translate(-1701 6458)"><g clip-path="url(#b)"><path d="M150.546,48.67,142.138,30.8l9.336-4.393c4.135-1.945,7.908-.853,9.84,3.255s.382,7.737-3.752,9.682l-5.335,2.51,2.321,4.934Zm-2.713-16.154,2.7,5.735,4.908-2.309c2.214-1.042,2.953-2.171,1.9-4.412-1.03-2.188-2.384-2.365-4.6-1.323Z" transform="translate(-3.324 -3.889)" fill="#ffbe41"/><path d="M164.23,34.031c-1.656-4.415.417-8.372,4.97-10.081,4.525-1.7,8.425-.453,10.05,3.88a11.4,11.4,0,0,1,.386,1.366l-11.26,4.224c.908,2.083,2.243,2.622,4.92,1.617,2.456-.922,3.072-1.877,2.628-3.064l-.1-.276,4.139-1.552.113.3c1.129,3.007-1.01,6.2-5.4,7.848-4.609,1.729-8.6.647-10.447-4.266m3.384-2.812,7.34-2.754c-.794-1.78-2.2-2.166-4.627-1.255-2.455.922-3.194,2.142-2.714,4.008" transform="translate(-2.856 -3.938)" fill="#ffbe41"/><path d="M183.048,34.9l-4.085-14.192,3.937-1.134,1.256,4.363.255-.074c-.318-2.485.731-5.241,4.442-6.309,3.881-1.117,6.439.846,7.344,3.991l2.544,8.838-4.25,1.223-2.137-7.422c-.651-2.266-1.864-2.96-4.47-2.21-2.69.775-3.344,2.128-2.65,4.537l2.062,7.167Z" transform="translate(-2.523 -4.068)" fill="#ffbe41"/><path d="M198.78,26.607c-.438-2.136.877-3.791,3.9-4.744l6.076-1.913-.112-.549c-.386-1.877-1.33-2.224-3.641-1.749-2.195.452-2.971,1.214-2.632,2.86l.024.114-4.36.9-.018-.086c-.736-3.581,1.756-6.681,6.52-7.662,4.823-.991,7.614,1.022,8.393,4.8l1.746,8.49-4.042.831-.684-3.321-.231.048c-.2,2.389-1.943,4.162-5.149,4.822-3.117.642-5.291-.417-5.791-2.843m6.4-.474c2.945-.606,4.391-1.626,4.084-3.7l-4.906,1.611c-1.022.3-1.423.685-1.281,1.377.16.78.832.973,2.1.711" transform="translate(-2.111 -4.149)" fill="#ffbe41"/><path d="M216.1,26.823l-1.844-14.653,4.066-.512.567,4.5.263-.033c.073-2.5,1.532-5.065,5.363-5.547,4.007-.5,6.233,1.83,6.641,5.077l1.148,9.125-4.387.552-.964-7.663c-.294-2.34-1.384-3.212-4.076-2.874-2.779.349-3.633,1.587-3.321,4.073l.931,7.4Z" transform="translate(-1.754 -4.215)" fill="#ffbe41"/><path d="M232.826,16.4c-.186-4.124,2.375-6.895,6.792-7.093,3.005-.135,5.213,1.064,5.8,3.6l.235-.01-.16-3.564,4.124-.186.567,12.606c.232,5.154-2.787,7.592-8.059,7.829-4.771.215-7.871-1.771-8.037-5.482l4.417-.2c.076,1.649.746,2.12,3.749,1.985,2.828-.128,3.655-.754,3.525-3.641l-.149-3.328-.236.01c-.373,2.2-2.044,3.781-5.342,3.93-4.387.2-7.039-2.31-7.225-6.463M241.412,19c2.827-.128,4.176-.985,4.084-3.017l-.015-.324c-.089-2-1.537-2.7-4.276-2.581-2.828.127-4.03.948-3.932,3.128s1.37,2.919,4.139,2.795" transform="translate(-1.35 -4.245)" fill="#ffbe41"/><path d="M256.02,24.071l1.044-19.722,4.416.234-.835,15.749,11.744.622-.211,3.974Z" transform="translate(-0.845 -4.349)" fill="#ffbe41"/><path d="M273.521,17.539c.612-4.677,4.36-7.19,9.358-6.536s7.975,4.044,7.364,8.722c-.6,4.619-4.355,7.162-9.354,6.508s-7.971-4.074-7.368-8.693m12.367,1.616c.336-2.573-.56-3.908-3.513-4.295-2.98-.389-4.162.675-4.5,3.248s.539,3.846,3.52,4.235c2.953.386,4.155-.616,4.491-3.189" transform="translate(-0.466 -4.206)" fill="#ffbe41"/><path d="M290.236,27.283l2.976-14.466,4.014.826-.79,3.841.26.053a4.7,4.7,0,0,1,5.7-3.131c3.234.665,4.105,3.161,3.523,5.992l-.494,2.4-4.331-.891.31-1.5c.326-1.589-.165-2.412-1.928-2.774-1.934-.4-2.811.354-3.185,2.173l-1.724,8.373Z" transform="translate(-0.1 -4.165)" fill="#ffbe41"/><path d="M308.844,31.22l6.132-18.772,5.687,1.859,1.379,10.682.328,4.976.308.1,3.146-3.84,7.279-7.855,5.716,1.868-6.132,18.771-4.2-1.372,3.111-9.526,1.1-2.9-.309-.1L330.335,27.7l-6.668,7.124-5.1-1.665-1.177-9.686-.132-3.3-.308-.1-.794,3-3.111,9.525Z" transform="translate(0.305 -4.173)" fill="#ffbe41"/><path d="M336.238,32.605c1.9-4.318,6.143-5.7,10.595-3.75,4.426,1.943,6.349,5.556,4.489,9.794a10.911,10.911,0,0,1-.676,1.248l-11.012-4.835c-.8,2.126-.223,3.443,2.394,4.593,2.4,1.054,3.512.8,4.022-.36l.118-.27,4.049,1.778-.131.3c-1.292,2.942-5.054,3.737-9.344,1.852-4.507-1.978-6.612-5.542-4.5-10.346m4.385.348,7.179,3.152c.674-1.829-.061-3.086-2.436-4.128-2.4-1.054-3.784-.695-4.743.976" transform="translate(0.884 -3.834)" fill="#ffbe41"/><path d="M352.146,39.643c2.223-4.161,6.565-5.217,10.855-2.925,4.265,2.278,5.9,6.028,3.724,10.111a11.155,11.155,0,0,1-.77,1.192l-10.611-5.668c-.966,2.059-.488,3.417,2.034,4.765,2.315,1.235,3.44,1.069,4.038-.05l.139-.26,3.9,2.083-.152.286c-1.513,2.835-5.326,3.339-9.462,1.13-4.344-2.319-6.168-6.037-3.7-10.665m4.348.685,6.918,3.695c.811-1.772.174-3.082-2.114-4.3-2.314-1.236-3.719-.985-4.8.609" transform="translate(1.224 -3.67)" fill="#ffbe41"/><path d="M407.727,88.213l14.447-13.476,7.039,7.547c3.117,3.342,3.231,7.269-.089,10.366s-7.251,2.731-10.368-.611l-4.024-4.312-3.988,3.72Zm14.553-7.526-4.636,4.324,3.7,3.968c1.67,1.79,2.971,2.148,4.783.459,1.768-1.649,1.522-2.993-.147-4.783Z" transform="translate(2.458 -2.817)" fill="#ffbe41"/><path d="M425.739,96.767c3.695-2.934,8.1-2.176,11.123,1.634,3.007,3.787,3.02,7.88-.6,10.759a10.948,10.948,0,0,1-1.182.788l-7.48-9.421c-1.7,1.5-1.806,2.94-.029,5.179,1.633,2.056,2.732,2.35,3.725,1.561l.23-.183,2.751,3.463-.253.2c-2.518,2-6.215.945-9.132-2.726-3.061-3.856-3.257-7.992.852-11.256m3.716,2.357,4.877,6.142c1.451-1.3,1.388-2.757-.226-4.789-1.632-2.055-3.021-2.383-4.651-1.353" transform="translate(2.782 -2.376)" fill="#ffbe41"/><path d="M430.732,114.972l12.247-8.257,2.292,3.4-3.765,2.538.147.22c2.268-1.066,5.213-.918,7.372,2.285,2.257,3.349,1.178,6.389-1.537,8.218l-7.627,5.142-2.472-3.667,6.4-4.318c1.956-1.318,2.243-2.685.726-4.934-1.565-2.322-3.054-2.528-5.132-1.127l-6.185,4.17Z" transform="translate(2.959 -2.12)" fill="#ffbe41"/><path d="M443.436,127.372c1.9-1.077,3.878-.335,5.717,2.249l3.692,5.194.487-.276c1.667-.945,1.706-1.951.544-4-1.106-1.949-2.07-2.453-3.531-1.624l-.1.058-2.2-3.873.078-.044c3.18-1.8,6.9-.387,9.3,3.844,2.429,4.283,1.372,7.56-1.987,9.466l-7.54,4.277-2.036-3.59,2.95-1.673-.116-.205c-2.336.545-4.559-.567-6.174-3.414-1.571-2.77-1.234-5.165.92-6.386m2.425,5.947c1.483,2.617,2.9,3.677,4.778,2.748l-3.044-4.172c-.6-.88-1.089-1.144-1.705-.795-.692.392-.669,1.091-.029,2.219" transform="translate(3.194 -1.738)" fill="#ffbe41"/><path d="M448.58,143.927l13.373-6.273,1.74,3.711-4.111,1.927.112.24c2.4-.7,5.292-.1,6.932,3.392,1.716,3.657.18,6.493-2.783,7.883l-8.327,3.906-1.878-4,6.993-3.281c2.135-1,2.63-2.308,1.477-4.764-1.188-2.535-2.629-2.967-4.9-1.9l-6.753,3.167Z" transform="translate(3.348 -1.447)" fill="#ffbe41"/><path d="M463.709,156.621c3.868-1.443,7.292.144,8.838,4.287,1.051,2.819.589,5.289-1.651,6.627l.083.222,3.343-1.248,1.443,3.868-11.825,4.41c-4.835,1.8-8.082-.321-9.927-5.266-1.67-4.475-.732-8.035,2.75-9.334l1.546,4.144c-1.548.577-1.79,1.36-.74,4.178.99,2.653,1.841,3.247,4.549,2.237l3.121-1.164-.082-.222c-2.209.321-4.227-.784-5.382-3.878-1.536-4.117.037-7.409,3.933-8.863m.168,8.97c.99,2.653,2.22,3.672,4.126,2.961l.3-.113c1.878-.7,2.1-2.294,1.143-4.864-.99-2.653-2.141-3.545-4.185-2.782s-2.357,2.2-1.389,4.8" transform="translate(3.448 -1.045)" fill="#ffbe41"/><path d="M463.554,181.055l19.105-5.024,1.125,4.277-15.256,4.011,2.993,11.378-3.85,1.013Z" transform="translate(3.674 -0.611)" fill="#ffbe41"/><path d="M474.975,195.7c4.643-.841,8.177,1.966,9.075,6.927s-1.426,8.829-6.069,9.67c-4.585.83-8.149-1.971-9.047-6.933s1.457-8.834,6.041-9.664m2.222,12.274c2.553-.463,3.555-1.723,3.023-4.653-.535-2.959-1.909-3.759-4.462-3.3s-3.5,1.683-2.966,4.643c.531,2.929,1.853,3.769,4.4,3.307" transform="translate(3.787 -0.186)" fill="#ffbe41"/><path d="M470.8,214.567,485.486,213l.436,4.074-3.9.417.029.265a4.7,4.7,0,0,1,4.719,4.475c.35,3.284-1.763,4.874-4.635,5.179l-2.433.261-.47-4.4,1.525-.163c1.611-.173,2.246-.894,2.056-2.682-.21-1.964-1.194-2.568-3.042-2.372l-8.5.909Z" transform="translate(3.831 0.193)" fill="#ffbe41"/><path d="M472.953,233.382l19.753.323-.1,5.986-9.8,4.469-4.659,1.782-.006.324,4.6,1.874,9.656,4.641-.1,6.015-19.754-.324.073-4.422,10.025.164,3.093.2.005-.324-3.077-1.2-8.777-4.273.088-5.365,8.913-3.982,3.114-1.1,0-.325-3.1.127L472.88,237.8Z" transform="translate(3.869 0.637)" fill="#ffbe41"/><path d="M479.77,260.016c4.693.473,7.32,4.087,6.831,8.925-.485,4.809-3.33,7.752-7.934,7.287a11.241,11.241,0,0,1-1.4-.259L478.478,264c-2.269-.111-3.344.847-3.631,3.692-.264,2.611.319,3.587,1.58,3.715l.294.03-.444,4.4-.323-.032c-3.2-.324-5.111-3.657-4.64-8.32.493-4.9,3.237-8,8.456-7.47m1.02,4.279L480,272.1c1.948.079,2.916-1.009,3.177-3.589.265-2.611-.5-3.813-2.389-4.212" transform="translate(3.841 1.216)" fill="#ffbe41"/><path d="M477.973,277.34c4.644.831,6.987,4.634,6.13,9.421-.851,4.758-3.912,7.474-8.466,6.659a10.6,10.6,0,0,1-1.373-.365l2.119-11.837c-2.255-.284-3.4.589-3.9,3.4-.463,2.582.044,3.6,1.292,3.824l.29.052-.779,4.352-.319-.057c-3.162-.566-4.818-4.036-3.992-8.649.866-4.845,3.839-7.727,9-6.8m.691,4.346-1.38,7.717c1.935.227,2.984-.784,3.441-3.337.462-2.581-.211-3.841-2.061-4.38" transform="translate(3.787 1.591)" fill="#ffbe41"/><path d="M448.888,345.092l17.236,9.642-5.037,9c-2.231,3.987-5.933,5.293-9.9,3.077s-4.812-6.068-2.581-10.056l2.877-5.146-4.758-2.662Zm11.6,11.558-5.531-3.094-2.648,4.733c-1.194,2.136-1.138,3.485,1.023,4.693,2.11,1.181,3.314.537,4.508-1.6Z" transform="translate(3.307 3.07)" fill="#ffbe41"/><path d="M446.205,364.9c3.918,2.624,4.539,7.048,1.833,11.09-2.69,4.017-6.585,5.276-10.429,2.7a10.879,10.879,0,0,1-1.111-.885l6.693-9.993c-1.952-1.166-3.351-.825-4.942,1.551-1.459,2.179-1.4,3.316-.352,4.022l.245.164-2.46,3.674-.27-.181c-2.67-1.788-2.793-5.631-.184-9.525,2.738-4.09,6.616-5.538,10.977-2.619m-1.113,4.258-4.363,6.515c1.682.985,3.049.481,4.492-1.676,1.46-2.178,1.348-3.6-.129-4.839" transform="translate(3.016 3.467)" fill="#ffbe41"/><path d="M430.5,375.184l11.6,9.147-2.538,3.219-3.566-2.812-.163.208c1.707,1.835,2.464,4.685.072,7.716-2.5,3.173-5.724,3.07-8.295,1.044l-7.223-5.7,2.737-3.474,6.066,4.784c1.853,1.461,3.242,1.317,4.922-.813,1.734-2.2,1.475-3.68-.492-5.231l-5.858-4.619Z" transform="translate(2.734 3.725)" fill="#ffbe41"/><path d="M422.506,391.083c1.6,1.478,1.5,3.589-.4,6.128l-3.817,5.1.413.38c1.408,1.3,2.378,1.029,3.975-.7,1.518-1.648,1.7-2.719.468-3.857l-.087-.081,3.017-3.272.064.06c2.687,2.477,2.474,6.447-.822,10.024-3.335,3.619-6.777,3.613-9.616,1l-6.372-5.872,2.8-3.034,2.492,2.3.159-.174c-1.23-2.057-.851-4.512,1.366-6.917,2.156-2.34,4.538-2.751,6.358-1.073m-4.921,4.122c-2.036,2.21-2.616,3.882-1.157,5.386l3.042-4.17c.654-.84.757-1.387.237-1.866-.585-.539-1.243-.3-2.122.65" transform="translate(2.493 4.049)" fill="#ffbe41"/><path d="M408.376,401.024l10.061,10.81-3,2.793-3.092-3.324-.2.18c1.406,2.074,1.719,5.006-1.109,7.636-2.956,2.752-6.126,2.158-8.354-.237l-6.266-6.732,3.237-3.013,5.26,5.654c1.606,1.726,3,1.8,4.986-.05,2.051-1.908,2.021-3.411.315-5.245l-5.081-5.459Z" transform="translate(2.212 4.288)" fill="#ffbe41"/><path d="M400.872,419.308c2.56,3.238,2.1,6.983-1.366,9.726-2.359,1.866-4.852,2.184-6.812.464l-.185.147,2.211,2.8L391.483,435l-7.827-9.9c-3.2-4.046-2.175-7.788,1.964-11.062,3.745-2.962,7.421-3.163,9.725-.25l-3.469,2.745c-1.024-1.3-1.843-1.286-4.2.579-2.219,1.755-2.525,2.748-.732,5.014l2.066,2.614.185-.147c-.983-2-.551-4.262,2.038-6.31,3.444-2.725,7.06-2.24,9.64,1.02m-8.485,2.914c-2.218,1.756-2.812,3.24-1.551,4.835l.2.254c1.242,1.573,2.828,1.3,4.98-.4,2.22-1.756,2.714-3.126,1.361-4.836s-2.818-1.568-4.992.151" transform="translate(1.893 4.52)" fill="#ffbe41"/><path d="M377.607,426.695l10.665,16.629-3.723,2.388-8.516-13.279-9.9,6.352-2.149-3.351Z" transform="translate(1.506 4.846)" fill="#ffbe41"/><path d="M367.112,442.05c2.231,4.157.651,8.384-3.792,10.766s-8.835,1.363-11.066-2.794c-2.2-4.1-.638-8.356,3.805-10.74s8.85-1.336,11.052,2.767m-10.988,5.9c1.227,2.286,2.733,2.849,5.357,1.441,2.649-1.421,2.987-2.974,1.76-5.26s-2.679-2.811-5.329-1.39c-2.624,1.408-3.015,2.923-1.789,5.209" transform="translate(1.229 5.093)" fill="#ffbe41"/><path d="M347.808,443.933l6.014,13.489-3.743,1.67-1.6-3.581-.242.108a4.7,4.7,0,0,1-2.806,5.867c-3.016,1.345-5.179-.177-6.355-2.815l-1-2.236,4.04-1.8.623,1.4c.66,1.481,1.541,1.863,3.183,1.13,1.8-.8,2.078-1.928,1.322-3.624l-3.481-7.807Z" transform="translate(0.942 5.222)" fill="#ffbe41"/><path d="M330.76,451.655l5.965,18.834-5.707,1.806-7.351-7.879-3.17-3.852-.31.1-.317,4.958-1.334,10.628-5.734,1.818-5.965-18.835,4.217-1.335,3.026,9.559.794,3,.31-.1.161-3.3,1.264-9.679,5.117-1.619,6.606,7.186,2.031,2.6.31-.1-1.1-2.9-3.027-9.558Z" transform="translate(0.261 5.39)" fill="#ffbe41"/><path d="M307.368,466.376c.976,4.615-1.668,8.217-6.428,9.224-4.729,1-8.4-.816-9.355-5.345a11.037,11.037,0,0,1-.177-1.409l11.768-2.487c-.584-2.2-1.824-2.928-4.621-2.337-2.567.542-3.321,1.395-3.059,2.635l.061.288-4.326.914-.067-.318c-.664-3.144,1.929-5.981,6.516-6.952,4.817-1.018,8.6.653,9.689,5.786M303.6,468.65l-7.673,1.622c.518,1.88,1.848,2.473,4.387,1.935,2.568-.543,3.48-1.639,3.286-3.557" transform="translate(-0.082 5.578)" fill="#ffbe41"/><path d="M290.318,469.933c.62,4.676-2.29,8.065-7.109,8.706-4.792.637-8.31-1.453-8.92-6.041a11.176,11.176,0,0,1-.069-1.418L286.14,469.6c-.416-2.234-1.6-3.058-4.43-2.682-2.6.345-3.417,1.138-3.25,2.394l.039.292-4.382.583-.043-.322c-.423-3.185,2.379-5.817,7.025-6.434,4.88-.648,8.529,1.306,9.22,6.506m-3.93,1.979-7.772,1.033c.373,1.913,1.654,2.6,4.225,2.263,2.6-.345,3.595-1.37,3.547-3.3" transform="translate(-0.453 5.644)" fill="#ffbe41"/><path d="M212.792,462.289l-4.23,19.293-10.08-2.21c-4.463-.979-6.787-4.143-5.815-8.579s4.414-6.367,8.877-5.388l5.76,1.264,1.169-5.328Zm-7.7,14.458,1.358-6.191-5.3-1.162c-2.391-.524-3.665-.079-4.2,2.34-.518,2.361.449,3.328,2.837,3.851Z" transform="translate(-2.229 5.601)" fill="#ffbe41"/><path d="M192.942,465.435c-1.38,4.51-5.437,6.383-10.087,4.961-4.624-1.413-6.954-4.778-5.6-9.2a11.256,11.256,0,0,1,.527-1.318l11.5,3.517c.551-2.2-.179-3.445-2.914-4.282-2.508-.767-3.58-.385-3.951.826l-.086.282-4.229-1.293.1-.311c.94-3.072,4.583-4.3,9.065-2.93,4.708,1.44,7.215,4.735,5.68,9.752m-4.4.166-7.5-2.293c-.456,1.894.422,3.057,2.9,3.815,2.508.767,3.839.249,4.6-1.522" transform="translate(-2.568 5.466)" fill="#ffbe41"/><path d="M178.621,453.347l-5.413,13.74-3.812-1.5,1.664-4.223-.247-.1c-1.264,2.163-3.774,3.709-7.367,2.294-3.756-1.481-4.589-4.6-3.389-7.64l3.371-8.556,4.114,1.621-2.83,7.185c-.864,2.194-.327,3.483,2.2,4.477,2.606,1.026,3.948.35,4.867-1.98l2.734-6.938Z" transform="translate(-2.946 5.296)" fill="#ffbe41"/><path d="M161.028,450.289c-.955,1.962-3.006,2.471-5.985,1.381l-5.984-2.193-.244.5c-.839,1.724-.3,2.575,1.817,3.608,2.015.981,3.095.851,3.831-.66l.051-.105,4,1.95-.039.079c-1.6,3.287-5.467,4.224-9.841,2.094-4.426-2.156-5.41-5.455-3.719-8.928l3.8-7.792,3.711,1.807-1.485,3.048.212.1c1.616-1.771,4.079-2.113,7.021-.68,2.863,1.394,3.941,3.558,2.856,5.784m-5.363-3.53c-2.7-1.317-4.471-1.391-5.494.439l4.871,1.716c.992.385,1.545.328,1.856-.309.348-.716-.066-1.278-1.232-1.846" transform="translate(-3.281 5.141)" fill="#ffbe41"/><path d="M147.513,439.614l-7.468,12.741-3.534-2.072,2.3-3.916-.229-.133c-1.583,1.941-4.3,3.082-7.633,1.129-3.483-2.042-3.825-5.249-2.17-8.071l4.65-7.934,3.814,2.236-3.905,6.663c-1.192,2.033-.86,3.39,1.48,4.761,2.417,1.416,3.847.957,5.114-1.206l3.771-6.433Z" transform="translate(-3.636 4.948)" fill="#ffbe41"/><path d="M127.918,437.7c-2.367,3.381-6.089,4.015-9.711,1.477-2.463-1.726-3.482-4.023-2.4-6.394l-.194-.136-2.047,2.923-3.38-2.37,7.24-10.336c2.959-4.226,6.839-4.316,11.162-1.289,3.912,2.741,5.158,6.206,3.025,9.248L128,428.287c.947-1.352.7-2.134-1.759-3.861-2.318-1.623-3.357-1.631-5.014.736l-1.912,2.729.192.136c1.639-1.516,3.927-1.75,6.631.144,3.6,2.521,4.169,6.126,1.784,9.53m-5.222-7.294c-2.318-1.624-3.91-1.767-5.077-.1l-.186.267c-1.151,1.642-.431,3.082,1.815,4.655,2.319,1.625,3.772,1.706,5.024-.081s.695-3.149-1.576-4.74" transform="translate(-4.02 4.689)" fill="#ffbe41"/><path d="M114.012,417.509l-12.87,14.979-3.353-2.88,10.277-11.962-8.921-7.663,2.593-3.018Z" transform="translate(-4.29 4.417)" fill="#ffbe41"/><path d="M96.3,411.857c-3.342,3.331-7.847,3.031-11.406-.543s-3.843-8.077-.5-11.407c3.3-3.289,7.826-3.009,11.385.564s3.822,8.1.521,11.386m-8.8-8.836c-1.838,1.831-1.945,3.436.156,5.547,2.123,2.131,3.708,2.009,5.547.177s1.925-3.374-.2-5.505c-2.1-2.111-3.666-2.051-5.505-.219" transform="translate(-4.633 4.213)" fill="#ffbe41"/><path d="M89.012,393.879l-11.185,9.647-2.676-3.1,2.969-2.562-.174-.2a4.7,4.7,0,0,1-6.427-1c-2.157-2.5-1.323-5.011.864-6.9l1.853-1.6,2.888,3.349-1.161,1c-1.228,1.059-1.341,2.013-.166,3.375,1.289,1.5,2.444,1.435,3.851.222l6.475-5.584Z" transform="translate(-4.889 4.008)" fill="#ffbe41"/><path d="M76.873,379.8,60.567,390.95l-3.377-4.941,5.419-9.31,2.773-4.145-.183-.267-4.835,1.126L49.8,375.2l-3.393-4.965,16.305-11.147,2.5,3.652L56.936,368.4,54.3,370.026l.183.267,3.205-.8,9.629-1.584,3.028,4.429-4.972,8.4-1.907,2.7.184.267L66.1,381.81l8.274-5.656Z" transform="translate(-5.409 3.374)" fill="#ffbe41"/><path d="M55.79,361.67c-4.134,2.269-8.346.784-10.687-3.479-2.327-4.236-1.652-8.272,2.4-10.5a10.866,10.866,0,0,1,1.3-.577l5.788,10.54c1.933-1.2,2.274-2.594.9-5.1-1.262-2.3-2.3-2.774-3.408-2.163l-.259.141L49.7,346.656l.285-.155c2.816-1.547,6.283.113,8.539,4.221,2.369,4.315,1.868,8.422-2.73,10.948m-3.267-2.947-3.773-6.872c-1.649,1.04-1.83,2.485-.582,4.758,1.264,2.3,2.578,2.856,4.356,2.114" transform="translate(-5.466 3.088)" fill="#ffbe41"/><path d="M47.441,346.38c-4.3,1.949-8.383.145-10.392-4.285-2-4.4-1.015-8.376,3.2-10.289a11.268,11.268,0,0,1,1.336-.476l4.969,10.953c2.018-1.044,2.467-2.413,1.284-5.017-1.083-2.39-2.078-2.943-3.233-2.419l-.268.122-1.827-4.027.3-.134c2.926-1.327,6.258.594,8.194,4.863,2.033,4.483,1.221,8.542-3.559,10.709m-3.033-3.189-3.239-7.141c-1.723.91-2.015,2.338-.943,4.7,1.084,2.39,2.352,3.045,4.182,2.441" transform="translate(-5.634 2.75)" fill="#ffbe41"/><path d="M33.654,278.382,14.027,280.6,12.87,270.343c-.512-4.54,1.736-7.761,6.248-8.27s7.449,2.126,7.962,6.668l.66,5.859,5.421-.611Zm-16.169-2.626,6.3-.71-.609-5.391c-.274-2.432-1.107-3.5-3.567-3.217-2.4.271-3.005,1.5-2.731,3.928Z" transform="translate(-6.141 1.261)" fill="#ffbe41"/><path d="M24.215,260.652c-4.714.156-7.8-3.073-7.965-7.936-.16-4.833,2.266-8.129,6.893-8.283a10.921,10.921,0,0,1,1.418.072l.4,12.021c2.265-.192,3.2-1.285,3.106-4.144-.087-2.623-.795-3.514-2.062-3.471l-.294.009-.148-4.419.325-.011c3.211-.106,5.555,2.942,5.711,7.628.165,4.92-2.14,8.361-7.384,8.536m-1.583-4.108-.262-7.838c-1.94.183-2.756,1.39-2.67,3.983.088,2.623,1.008,3.712,2.931,3.855" transform="translate(-6.066 0.878)" fill="#ffbe41"/><path d="M31.051,243.139,16.3,242.491l.179-4.093,4.536.2.012-.265c-2.458-.494-4.736-2.362-4.566-6.221.178-4.034,2.853-5.835,6.121-5.692l9.189.4-.193,4.417-7.716-.339c-2.357-.1-3.4.824-3.519,3.533-.123,2.8.951,3.849,3.455,3.958l7.451.329Z" transform="translate(-6.064 0.486)" fill="#ffbe41"/><path d="M28.213,225.527c-2.165-.262-3.317-2.033-3.26-5.2l.118-6.37-.556-.067c-1.9-.23-2.532.555-2.815,2.9-.269,2.224.206,3.2,1.874,3.4l.118.014-.534,4.419-.088-.011c-3.628-.438-5.777-3.787-5.194-8.615.592-4.887,3.387-6.895,7.221-6.431l8.6,1.04-.5,4.1-3.366-.407-.028.234c2.2.949,3.328,3.163,2.936,6.413-.382,3.159-2.076,4.885-4.534,4.588M29.8,219.3c.362-2.986-.147-4.68-2.21-5.048l-.031,5.162c-.039,1.064.2,1.567.9,1.652.79.1,1.186-.479,1.342-1.767" transform="translate(-6.032 0.118)" fill="#ffbe41"/><path d="M33.922,209.245l-14.482-2.9.8-4.018,4.452.891.052-.261c-2.352-.861-4.318-3.059-3.561-6.846.793-3.959,3.713-5.33,6.921-4.687l9.018,1.8-.867,4.335-7.573-1.515c-2.313-.463-3.486.294-4.019,2.954-.55,2.747.353,3.948,2.809,4.441l7.314,1.463Z" transform="translate(-5.996 -0.279)" fill="#ffbe41"/><path d="M29.345,190.069c-3.969-1.138-5.779-4.448-4.561-8.7.829-2.892,2.668-4.6,5.264-4.35l.065-.227-3.429-.983,1.137-3.969,12.13,3.477c4.961,1.421,6.31,5.059,4.856,10.133-1.316,4.592-4.185,6.9-7.756,5.874l1.218-4.251c1.587.454,2.248-.032,3.077-2.922.78-2.721.449-3.706-2.33-4.5l-3.2-.918-.064.227c1.967,1.054,2.935,3.141,2.024,6.316-1.211,4.223-4.431,5.938-8.429,4.793m5.195-7.315c.78-2.721.4-4.273-1.559-4.833l-.313-.089c-1.927-.553-3.054.6-3.81,3.233-.779,2.721-.383,4.122,1.715,4.724s3.2-.371,3.968-3.035" transform="translate(-5.888 -0.702)" fill="#ffbe41"/><path d="M44.041,170.4l-18.354-7.313,1.638-4.109,14.654,5.839,4.355-10.931,3.7,1.473Z" transform="translate(-5.86 -1.093)" fill="#ffbe41"/><path d="M43.418,151.836c-4.232-2.082-5.408-6.44-3.182-10.965s6.4-6.252,10.628-4.169c4.18,2.057,5.383,6.427,3.156,10.951s-6.422,6.239-10.6,4.182m5.507-11.191c-2.328-1.146-3.882-.726-5.2,1.945-1.328,2.7-.7,4.159,1.63,5.3s3.815.728,5.144-1.971c1.315-2.673.751-4.133-1.577-5.278" transform="translate(-5.567 -1.487)" fill="#ffbe41"/><path d="M58.044,139.117,45.3,131.65l2.072-3.535,3.382,1.983.134-.229a4.7,4.7,0,0,1-1.132-6.4c1.669-2.849,4.313-2.87,6.805-1.41l2.11,1.237-2.235,3.814-1.322-.774c-1.4-.82-2.337-.618-3.247.933-1,1.7-.568,2.776,1.035,3.715L60.28,135.3Z" transform="translate(-5.433 -1.807)" fill="#ffbe41"/><path d="M67.731,123.024,51.916,111.2l3.582-4.791,10.561,2.118,4.818,1.283.2-.26-2.63-4.211-5.107-9.413,3.6-4.815,15.815,11.825-2.648,3.54-8.025-6-2.39-1.971-.194.26,1.79,2.774,4.61,8.6-3.211,4.3-9.553-1.989-3.167-.933-.194.26,2.584,1.711,8.027,6Z" transform="translate(-5.289 -2.46)" fill="#ffbe41"/><path d="M77.813,97.257c-3.488-3.175-3.446-7.643-.171-11.239,3.253-3.574,7.291-4.242,10.714-1.127a10.9,10.9,0,0,1,.966,1.04l-8.1,8.892c1.756,1.442,3.191,1.312,5.116-.8,1.768-1.94,1.881-3.072.943-3.926l-.219-.2,2.978-3.269.24.219c2.375,2.163,1.928,5.981-1.228,9.447-3.315,3.64-7.363,4.5-11.244.964m1.731-4.045,5.278-5.8c-1.517-1.223-2.944-.927-4.691.991-1.766,1.94-1.866,3.364-.588,4.806" transform="translate(-4.782 -2.639)" fill="#ffbe41"/><path d="M89.572,84.415c-3.235-3.432-2.854-7.884.687-11.221,3.518-3.316,7.595-3.675,10.771-.307A11.057,11.057,0,0,1,101.914,74l-8.754,8.25c1.643,1.571,3.083,1.551,5.163-.411,1.91-1.8,2.11-2.92,1.24-3.842l-.2-.215,3.218-3.034.223.236c2.2,2.339,1.467,6.112-1.943,9.328-3.583,3.377-7.688,3.924-11.287.1m2.034-3.9,5.707-5.379c-1.421-1.335-2.866-1.148-4.753.631-1.91,1.8-2.118,3.211-.953,4.747" transform="translate(-4.517 -2.908)" fill="#ffbe41"/><path d="M403.954,70.414a23.8,23.8,0,0,0,2.194-3.647.571.571,0,0,0-1.03-.49,22.78,22.78,0,0,1-2.09,3.471,13.3,13.3,0,0,1-4.446,4.1,8.68,8.68,0,0,1-8.062,0,9.425,9.425,0,0,1-2.479-2.062,10.821,10.821,0,0,0,3.463-.3c4.167-1.069,6.889-4.612,8.39-8.46a21.7,21.7,0,0,0,1.661-7.63,6.167,6.167,0,0,1,3.814,1.962l.026.032a6.379,6.379,0,0,1,1,4.593.571.571,0,0,0,1.136.113,7.527,7.527,0,0,0-1.255-5.429,7.442,7.442,0,0,0-4.76-2.436,9.064,9.064,0,0,0-2.419-5.947,7.159,7.159,0,0,0-4.449-1.7,12.218,12.218,0,0,0-4.681.683,22.582,22.582,0,0,0-6.288,3.467c-3.3,2.483-5.979,6.06-5.884,10.36a10.374,10.374,0,0,0,1.355,4.948,12.163,12.163,0,0,0,7.228,5.48,10.5,10.5,0,0,0,3.607,3.342,9.6,9.6,0,0,0,9.093.02,14.411,14.411,0,0,0,4.874-4.459m-23.8-4.935c-.007-.013-.015-.029-.023-.042A9.336,9.336,0,0,1,378.937,61c-.063-3.908,2.444-7.124,5.431-9.371,4.589-3.454,8.035-4.042,10.119-3.928a6.622,6.622,0,0,1,3.384,1.034l.036.027c.011.009.022.018.035.027.049.035,4.888,3.567.891,13.81-1.359,3.483-3.78,6.764-7.558,7.756a9.33,9.33,0,0,1-4.589.049,11.073,11.073,0,0,1-6.534-4.93" transform="translate(1.806 -3.43)" fill="#ffbe41"/><path d="M394.426,76.118h0a8.825,8.825,0,0,1-4.491-1.169,10.442,10.442,0,0,1-3.621-3.344,13.327,13.327,0,0,1-4.146-2.051,10.849,10.849,0,0,1-3.109-3.468,10.507,10.507,0,0,1-1.37-5c-.113-5.126,3.665-8.748,5.928-10.45a22.693,22.693,0,0,1,6.319-3.483,12.77,12.77,0,0,1,4.056-.71c.223,0,.448.007.666.022a7.3,7.3,0,0,1,4.516,1.734,9.324,9.324,0,0,1,2.446,5.932,7.532,7.532,0,0,1,4.745,2.464,7.636,7.636,0,0,1,1.277,5.506.641.641,0,0,1-.667.594.714.714,0,0,1-.531-.224.637.637,0,0,1-.156-.5,6.307,6.307,0,0,0-.977-4.513l-.028-.035a6.05,6.05,0,0,0-3.62-1.9A21.761,21.761,0,0,1,400,63.059c-1.029,2.637-3.5,7.252-8.465,8.527a10.894,10.894,0,0,1-3.23.323,9.241,9.241,0,0,0,2.265,1.837l.005,0a9,9,0,0,0,4.03.98,8.31,8.31,0,0,0,3.93-.98,13.186,13.186,0,0,0,4.408-4.064,22.658,22.658,0,0,0,2.08-3.454.627.627,0,0,1,.579-.377.75.75,0,0,1,.623.339.626.626,0,0,1,.026.622,23.905,23.905,0,0,1-2.2,3.664,14.517,14.517,0,0,1-4.912,4.492A10.169,10.169,0,0,1,394.426,76.118Zm-.434-29.457a12.553,12.553,0,0,0-3.987.7,22.476,22.476,0,0,0-6.257,3.451c-2.229,1.677-5.952,5.241-5.841,10.27a10.265,10.265,0,0,0,1.338,4.893l0,.005a12.077,12.077,0,0,0,7.162,5.427l.037.011.022.032a10.251,10.251,0,0,0,3.568,3.308l.005,0a8.606,8.606,0,0,0,4.382,1.14h0a9.948,9.948,0,0,0,4.6-1.123,14.3,14.3,0,0,0,4.836-4.426,23.69,23.69,0,0,0,2.184-3.63.406.406,0,0,0-.013-.411.534.534,0,0,0-.437-.237.409.409,0,0,0-.382.252,22.878,22.878,0,0,1-2.1,3.488,13.4,13.4,0,0,1-4.483,4.129,8.527,8.527,0,0,1-4.032,1.006,9.22,9.22,0,0,1-4.13-1l-.008,0a9.624,9.624,0,0,1-2.5-2.083l-.176-.2.266.019c.262.019.529.029.792.029a10.615,10.615,0,0,0,2.636-.329c4.873-1.25,7.3-5.8,8.315-8.394a21.4,21.4,0,0,0,1.654-7.591v-.13l.128.023a6.224,6.224,0,0,1,3.883,2l.021.026a6.535,6.535,0,0,1,1.027,4.674.419.419,0,0,0,.1.336.5.5,0,0,0,.369.152.426.426,0,0,0,.449-.4,7.408,7.408,0,0,0-1.23-5.348,7.336,7.336,0,0,0-4.693-2.4l-.086-.014-.007-.086c-.111-1.465-.568-4.176-2.384-5.875a7.09,7.09,0,0,0-4.381-1.675C394.43,46.669,394.211,46.662,393.992,46.662Zm-5.135,24.116a8.556,8.556,0,0,1-2.2-.263h0a11.105,11.105,0,0,1-6.6-4.983l0,0-.018-.032a9.45,9.45,0,0,1-1.207-4.488,9.669,9.669,0,0,1,1.588-5.369,15.653,15.653,0,0,1,3.886-4.091c2.4-1.808,6.036-3.963,9.705-3.963.163,0,.326,0,.485.013a6.733,6.733,0,0,1,3.444,1.056l.039.029.026.02a6.463,6.463,0,0,1,2.006,3.134,11.476,11.476,0,0,1,.487,4.3,21.794,21.794,0,0,1-1.561,6.508,15.657,15.657,0,0,1-2.892,4.846,9.391,9.391,0,0,1-7.185,3.288Zm-2.135-.471a8.277,8.277,0,0,0,2.135.252,9.172,9.172,0,0,0,7.023-3.215,15.44,15.44,0,0,0,2.851-4.779,21.588,21.588,0,0,0,1.546-6.434,11.271,11.271,0,0,0-.474-4.216,6.267,6.267,0,0,0-1.925-3.031c-.013-.008-.027-.02-.041-.031l-.032-.024a6.5,6.5,0,0,0-3.325-1.013c-.155-.009-.314-.013-.473-.013-3.609,0-7.2,2.131-9.574,3.919a15.435,15.435,0,0,0-3.832,4.033A9.453,9.453,0,0,0,379.047,61a9.333,9.333,0,0,0,1.173,4.375c.01.016.018.031.025.045l0,0a10.884,10.884,0,0,0,6.47,4.877Z" transform="translate(1.806 -3.43)" fill="#ffbe41"/><path d="M393.09,65.172a6.246,6.246,0,0,0-1.2-8.74,6.181,6.181,0,0,0-2.574-1.154A.571.571,0,0,0,389.1,56.4a5.045,5.045,0,0,1,2.1.942,5.089,5.089,0,1,1-6.053-.082.571.571,0,0,0-.665-.927,6.239,6.239,0,1,0,8.608,8.839" transform="translate(1.895 -3.241)" fill="#ffbe41"/><path d="M388.112,67.748h0a6.287,6.287,0,0,1-3.829-1.288,6.352,6.352,0,0,1,.134-10.216.652.652,0,0,1,.384-.13.711.711,0,0,1,.654.508.626.626,0,0,1-.245.727,4.994,4.994,0,0,0-.1,8.028,4.991,4.991,0,0,0,6.988-.96,4.993,4.993,0,0,0-.96-6.988,4.934,4.934,0,0,0-2.057-.922.641.641,0,0,1-.528-.721.663.663,0,0,1,.646-.629.746.746,0,0,1,.142.014,6.347,6.347,0,0,1-1.224,12.577ZM384.8,56.332a.437.437,0,0,0-.257.089,6.133,6.133,0,0,0-.129,9.864,6.129,6.129,0,1,0,4.879-10.9.528.528,0,0,0-.1-.01.444.444,0,0,0-.428.431.426.426,0,0,0,.352.485,5.151,5.151,0,0,1,2.147.962,5.205,5.205,0,0,1-3.152,9.353,5.155,5.155,0,0,1-3.141-1.057,5.213,5.213,0,0,1,.11-8.38.412.412,0,0,0,.165-.482A.5.5,0,0,0,384.8,56.332Z" transform="translate(1.895 -3.241)" fill="#ffbe41"/><path d="M386.234,55.766a.57.57,0,1,0,.571-.425.574.574,0,0,0-.571.425" transform="translate(1.99 -3.239)" fill="#ffbe41"/><path d="M386.784,55.231h.026a.683.683,0,0,1,.414,1.2.684.684,0,0,1-.441.16.665.665,0,0,1-.368-.109.679.679,0,0,1,.369-1.249Zm0,1.139a.465.465,0,0,0,.3-.108.464.464,0,0,0-.281-.811h-.018a.46.46,0,0,0-.249.846A.447.447,0,0,0,386.783,56.37Z" transform="translate(1.99 -3.239)" fill="#ffbe41"/><path d="M405.648,63.419a.571.571,0,1,0,.693.276.575.575,0,0,0-.693-.276" transform="translate(2.405 -3.064)" fill="#ffbe41"/><path d="M405.831,63.278a.68.68,0,0,1,.5,1.143.687.687,0,0,1-.781.155.684.684,0,0,1,.059-1.261A.647.647,0,0,1,405.831,63.278Zm0,1.139a.458.458,0,0,0,.41-.672.47.47,0,0,0-.413-.248.431.431,0,0,0-.146.025.465.465,0,0,0-.042.855A.46.46,0,0,0,405.834,64.417Z" transform="translate(2.405 -3.064)" fill="#ffbe41"/><path d="M134.369,49.478a23.978,23.978,0,0,0-2.6-3.373.571.571,0,0,0-.833.781,22.69,22.69,0,0,1,2.47,3.21,13.312,13.312,0,0,1,2.2,5.634,8.683,8.683,0,0,1-2.939,7.507,9.413,9.413,0,0,1-2.824,1.556,10.762,10.762,0,0,0,.98-3.335c.523-4.269-1.785-8.1-4.821-10.9a21.7,21.7,0,0,0-6.5-4.327,6.178,6.178,0,0,1,3.218-2.837l.039-.011a6.377,6.377,0,0,1,4.643.741.571.571,0,0,0,.518-1.017,7.524,7.524,0,0,0-5.511-.81,7.434,7.434,0,0,0-4,3.546,9.059,9.059,0,0,0-6.419.085,7.164,7.164,0,0,0-3.208,3.522,12.234,12.234,0,0,0-1.071,4.607,22.666,22.666,0,0,0,.936,7.119c1.111,3.979,3.465,7.777,7.5,9.256a10.389,10.389,0,0,0,5.1.542,12.165,12.165,0,0,0,7.737-4.734,10.5,10.5,0,0,0,4.427-2.141,9.6,9.6,0,0,0,3.332-8.46A14.408,14.408,0,0,0,134.369,49.478ZM121.1,69.845l-.047.007a9.342,9.342,0,0,1-4.562-.508c-3.661-1.365-5.741-4.871-6.747-8.472-1.543-5.532-.835-8.956.031-10.854a6.621,6.621,0,0,1,2.2-2.775l.038-.022c.013-.007.026-.015.038-.023.051-.033,5.1-3.252,13.185,4.2,2.748,2.535,4.921,5.985,4.468,9.865a9.343,9.343,0,0,1-1.626,4.291,11.078,11.078,0,0,1-6.974,4.287" transform="translate(-4.075 -3.527)" fill="#ffbe41"/><path d="M123.975,41.986a8.831,8.831,0,0,1,3.994,1.027.632.632,0,0,1,.341.739.7.7,0,0,1-.647.551.683.683,0,0,1-.311-.079,7.475,7.475,0,0,0-3.377-.883,4,4,0,0,0-1.182.148l-.007,0-.04.011a5.978,5.978,0,0,0-3.082,2.679,21.757,21.757,0,0,1,6.412,4.3c2.081,1.92,5.479,5.9,4.855,10.99a10.786,10.786,0,0,1-.877,3.125,9.219,9.219,0,0,0,2.538-1.441l0,0a8.565,8.565,0,0,0,2.9-7.41,13.205,13.205,0,0,0-2.179-5.587,22.581,22.581,0,0,0-2.458-3.195.624.624,0,0,1-.13-.7.74.74,0,0,1,.654-.445h0a.634.634,0,0,1,.469.214,24.084,24.084,0,0,1,2.608,3.388,14.517,14.517,0,0,1,2.391,6.211,10.173,10.173,0,0,1-.609,4.706,8.843,8.843,0,0,1-2.762,3.851,10.442,10.442,0,0,1-4.434,2.153,13.327,13.327,0,0,1-3.421,3.113,10.848,10.848,0,0,1-4.363,1.632,8.36,8.36,0,0,1-1.434.11,10.963,10.963,0,0,1-3.722-.657,10.742,10.742,0,0,1-4.9-3.728,16.672,16.672,0,0,1-2.672-5.6,22.774,22.774,0,0,1-.94-7.153,12.341,12.341,0,0,1,1.081-4.648,7.312,7.312,0,0,1,3.26-3.574,7.087,7.087,0,0,1,3.078-.642,11.656,11.656,0,0,1,3.338.526,7.5,7.5,0,0,1,4.025-3.521A5.444,5.444,0,0,1,123.975,41.986Zm3.687,2.1a.477.477,0,0,0,.434-.383.417.417,0,0,0-.228-.493,8.611,8.611,0,0,0-3.894-1,5.214,5.214,0,0,0-1.534.2,7.307,7.307,0,0,0-3.944,3.5l-.044.075-.083-.025a11.5,11.5,0,0,0-3.356-.542,6.871,6.871,0,0,0-2.983.62,7.1,7.1,0,0,0-3.156,3.47,12.124,12.124,0,0,0-1.061,4.566,22.558,22.558,0,0,0,.932,7.084,16.455,16.455,0,0,0,2.636,5.529,10.526,10.526,0,0,0,4.8,3.654,10.741,10.741,0,0,0,3.647.643,8.11,8.11,0,0,0,1.4-.107h.006a12.077,12.077,0,0,0,7.664-4.692l.023-.031.038-.009a10.251,10.251,0,0,0,4.381-2.117l0,0a8.623,8.623,0,0,0,2.694-3.758,9.953,9.953,0,0,0,.6-4.6,14.3,14.3,0,0,0-2.358-6.116,23.866,23.866,0,0,0-2.584-3.357.415.415,0,0,0-.309-.145h0a.522.522,0,0,0-.453.313.407.407,0,0,0,.089.462,22.8,22.8,0,0,1,2.482,3.226,13.419,13.419,0,0,1,2.213,5.681,8.784,8.784,0,0,1-2.974,7.6l0,0a9.617,9.617,0,0,1-2.856,1.574l-.251.091.116-.241a10.592,10.592,0,0,0,.97-3.3c.612-4.992-2.736-8.911-4.786-10.8a21.392,21.392,0,0,0-6.466-4.306l-.121-.048.068-.111a6.269,6.269,0,0,1,3.282-2.886l.03-.009.005,0a4.175,4.175,0,0,1,1.249-.159,7.694,7.694,0,0,1,3.476.907A.466.466,0,0,0,127.663,44.085Zm-12.5,2.285c2.179,0,5.708.859,10.144,4.952a15.663,15.663,0,0,1,3.458,4.46,9.668,9.668,0,0,1,1.045,5.5,9.473,9.473,0,0,1-1.649,4.347,11.108,11.108,0,0,1-7.047,4.328l-.038.006a7.214,7.214,0,0,1-1.237.091,9.807,9.807,0,0,1-3.385-.6,9.668,9.668,0,0,1-4.419-3.435,15.667,15.667,0,0,1-2.395-5.11c-1.552-5.563-.837-9.014.036-10.929a6.73,6.73,0,0,1,2.238-2.823l.039-.023a.386.386,0,0,0,.033-.02A6.212,6.212,0,0,1,115.158,46.369Zm4.676,23.463a7.015,7.015,0,0,0,1.194-.087l.049-.008h.006a10.888,10.888,0,0,0,6.9-4.246,9.215,9.215,0,0,0,1.6-4.236,9.453,9.453,0,0,0-1.023-5.376,15.446,15.446,0,0,0-3.41-4.4c-2.42-2.232-6.119-4.894-10-4.894a5.98,5.98,0,0,0-3.056.7c-.013.009-.029.019-.045.028l-.034.02a6.5,6.5,0,0,0-2.152,2.726c-.858,1.882-1.559,5.28-.025,10.779a15.45,15.45,0,0,0,2.36,5.039,9.453,9.453,0,0,0,4.319,3.36A9.586,9.586,0,0,0,119.834,69.832Z" transform="translate(-4.075 -3.527)" fill="#ffbe41"/><path d="M125.594,57.4a6.246,6.246,0,0,0-8.577-2.067,6.177,6.177,0,0,0-2.012,1.976.571.571,0,0,0,.964.611,5.043,5.043,0,0,1,1.644-1.613,5.09,5.09,0,1,1-2.282,5.606.571.571,0,0,0-1.106.282,6.239,6.239,0,1,0,11.368-4.8" transform="translate(-3.933 -3.259)" fill="#ffbe41"/><path d="M120.262,54.311h0a6.406,6.406,0,0,1,3.067.784A6.346,6.346,0,0,1,120.282,67a6.405,6.405,0,0,1-3.066-.784,6.35,6.35,0,0,1-3.1-3.995.634.634,0,0,1,.1-.558.744.744,0,0,1,.579-.273.631.631,0,0,1,.634.495A4.987,4.987,0,1,0,117.67,56.4a4.936,4.936,0,0,0-1.609,1.579.626.626,0,0,1-.539.309.751.751,0,0,1-.64-.381.629.629,0,0,1,.031-.656,6.347,6.347,0,0,1,5.349-2.942Zm.02,12.473a6.127,6.127,0,0,0,2.941-11.5,6.186,6.186,0,0,0-2.961-.757,6.128,6.128,0,0,0-5.164,2.84.4.4,0,0,0-.024.433.534.534,0,0,0,.448.268.407.407,0,0,0,.354-.207,5.207,5.207,0,1,1-.046,5.51,5.211,5.211,0,0,1-.605-1.431.413.413,0,0,0-.421-.33.521.521,0,0,0-.406.188.414.414,0,0,0-.066.369,6.132,6.132,0,0,0,5.951,4.614Z" transform="translate(-3.933 -3.259)" fill="#ffbe41"/><path d="M114.373,60.168a.57.57,0,1,0-.188-.687.576.576,0,0,0,.188.687" transform="translate(-3.934 -3.156)" fill="#ffbe41"/><path d="M114.709,60.386h0a.678.678,0,0,1-.624-.948.684.684,0,0,1,1.267.05.677.677,0,0,1-.643.9Zm0-1.131a.452.452,0,0,0-.421.27.468.468,0,0,0,.152.554.461.461,0,0,0,.272.088.458.458,0,0,0,.435-.608A.453.453,0,0,0,114.707,59.254Z" transform="translate(-3.934 -3.156)" fill="#ffbe41"/><path d="M128.575,44.88a.57.57,0,1,0,.509-.545.575.575,0,0,0-.509.545" transform="translate(-3.62 -3.478)" fill="#ffbe41"/><path d="M129.143,44.222a.68.68,0,0,1,.475,1.168.657.657,0,0,1-.46.189.708.708,0,0,1-.508-.217.659.659,0,0,1-.185-.486.687.687,0,0,1,.607-.649A.665.665,0,0,1,129.143,44.222Zm.015,1.137a.433.433,0,0,0,.307-.126.461.461,0,1,0-.781-.351.437.437,0,0,0,.124.327A.5.5,0,0,0,129.158,45.36Z" transform="translate(-3.62 -3.478)" fill="#ffbe41"/><path d="M24.242,294.45a23.8,23.8,0,0,0-3.865,1.781.571.571,0,0,0,.575.985,22.71,22.71,0,0,1,3.679-1.693,13.338,13.338,0,0,1,5.981-.887,8.68,8.68,0,0,1,6.664,4.538,9.381,9.381,0,0,1,.889,3.1,10.78,10.78,0,0,0-3.034-1.7c-4.045-1.46-8.29-.062-11.7,2.274a21.726,21.726,0,0,0-5.666,5.372,6.178,6.178,0,0,1-2.049-3.768c0-.017,0-.023,0-.041a6.374,6.374,0,0,1,1.756-4.361.571.571,0,0,0-.877-.731,7.526,7.526,0,0,0-2.017,5.193,7.442,7.442,0,0,0,2.566,4.692,9.058,9.058,0,0,0-1.347,6.278,7.163,7.163,0,0,0,2.719,3.911,12.24,12.24,0,0,0,4.254,2.069,22.612,22.612,0,0,0,7.148.672c4.126-.2,8.353-1.646,10.695-5.255a10.374,10.374,0,0,0,1.663-4.852,12.157,12.157,0,0,0-2.893-8.6,10.5,10.5,0,0,0-1.1-4.793,9.6,9.6,0,0,0-7.506-5.132A14.415,14.415,0,0,0,24.242,294.45Zm16.9,17.473a.363.363,0,0,0,0,.047,9.354,9.354,0,0,1-1.511,4.335c-2.146,3.265-6.027,4.513-9.762,4.691-5.735.273-8.916-1.18-10.574-2.447a6.613,6.613,0,0,1-2.216-2.758c-.005-.014-.009-.029-.013-.042s-.009-.029-.014-.043c-.021-.056-2.035-5.7,7.033-11.917,3.084-2.115,6.93-3.466,10.613-2.16a9.345,9.345,0,0,1,3.821,2.54A11.082,11.082,0,0,1,41.143,311.923Z" transform="translate(-6.102 1.945)" fill="#ffbe41"/><path d="M29.5,293.325h0a11.362,11.362,0,0,1,1.288.072,10.176,10.176,0,0,1,4.453,1.642,8.838,8.838,0,0,1,3.139,3.55,10.435,10.435,0,0,1,1.113,4.8,13.314,13.314,0,0,1,2.274,4.027,10.844,10.844,0,0,1,.619,4.617,10.5,10.5,0,0,1-1.681,4.9c-2.792,4.3-7.953,5.17-10.782,5.3-.49.023-.977.035-1.447.035a21.308,21.308,0,0,1-5.736-.711,12.345,12.345,0,0,1-4.291-2.088,7.31,7.31,0,0,1-2.758-3.974,9.318,9.318,0,0,1,1.316-6.281,7.534,7.534,0,0,1-2.537-4.706,7.662,7.662,0,0,1,2.042-5.269.628.628,0,0,1,.493-.242.747.747,0,0,1,.651.425.626.626,0,0,1-.1.688,6.248,6.248,0,0,0-1.732,4.28c0,.015,0,.023,0,.035v.01a5.953,5.953,0,0,0,1.924,3.605,21.775,21.775,0,0,1,5.619-5.293,15.177,15.177,0,0,1,8.309-2.89,10.236,10.236,0,0,1,3.486.6,10.805,10.805,0,0,1,2.852,1.551,9.146,9.146,0,0,0-.841-2.8,8.565,8.565,0,0,0-6.58-4.481,10.005,10.005,0,0,0-1.1-.059,14.285,14.285,0,0,0-4.836.94,22.6,22.6,0,0,0-3.662,1.685.668.668,0,0,1-.339.1.706.706,0,0,1-.651-.537.631.631,0,0,1,.3-.734,23.909,23.909,0,0,1,3.883-1.789A15.618,15.618,0,0,1,29.5,293.325Zm-1.024,28.736c.467,0,.951-.012,1.437-.035,2.786-.132,7.87-.985,10.608-5.205a10.253,10.253,0,0,0,1.646-4.8v-.006A12.068,12.068,0,0,0,39.3,303.5l-.025-.03v-.039a10.244,10.244,0,0,0-1.088-4.743l0-.005a8.618,8.618,0,0,0-3.063-3.464,9.955,9.955,0,0,0-4.356-1.606,11.127,11.127,0,0,0-1.263-.071,15.4,15.4,0,0,0-5.224,1.008,23.69,23.69,0,0,0-3.848,1.773.412.412,0,0,0-.2.488.487.487,0,0,0,.44.375.453.453,0,0,0,.229-.067,22.818,22.818,0,0,1,3.7-1.7,14.5,14.5,0,0,1,4.911-.953,10.234,10.234,0,0,1,1.12.061,8.782,8.782,0,0,1,6.748,4.594,9.549,9.549,0,0,1,.9,3.139l.032.266-.209-.167a10.6,10.6,0,0,0-3-1.681,10.018,10.018,0,0,0-3.412-.59,14.961,14.961,0,0,0-8.186,2.852,21.413,21.413,0,0,0-5.638,5.345l-.074.107-.093-.091a6.246,6.246,0,0,1-2.081-3.842v-.009c0-.008,0-.013,0-.024a6.475,6.475,0,0,1,1.781-4.444.408.408,0,0,0,.07-.455.521.521,0,0,0-.453-.3.418.418,0,0,0-.325.163A7.434,7.434,0,0,0,14.69,304.5a7.338,7.338,0,0,0,2.532,4.622l.063.059-.043.075c-.733,1.273-1.881,3.771-1.335,6.2a7.1,7.1,0,0,0,2.679,3.849,12.128,12.128,0,0,0,4.216,2.05A21.09,21.09,0,0,0,28.479,322.061Zm3.191-21.055a9.137,9.137,0,0,1,3.061.52A9.525,9.525,0,0,1,38.6,304.1a11.115,11.115,0,0,1,2.65,7.833.265.265,0,0,0,0,.035v.005a9.515,9.515,0,0,1-1.529,4.39,9.669,9.669,0,0,1-4.333,3.543,15.659,15.659,0,0,1-5.515,1.2c-.467.022-.931.033-1.379.033-2.733,0-6.56-.434-9.268-2.5a6.718,6.718,0,0,1-2.254-2.81c0-.011-.008-.024-.012-.036l0-.009c0-.014-.008-.026-.013-.038-.021-.055-2.071-5.772,7.074-12.044A14.049,14.049,0,0,1,31.67,301.006ZM28.494,320.92c.444,0,.9-.011,1.368-.033a15.443,15.443,0,0,0,5.438-1.179,9.454,9.454,0,0,0,4.237-3.463,9.273,9.273,0,0,0,1.493-4.279.447.447,0,0,1,0-.057,10.893,10.893,0,0,0-2.6-7.67,9.231,9.231,0,0,0-3.773-2.506,8.918,8.918,0,0,0-2.988-.508,13.833,13.833,0,0,0-7.526,2.655,21.6,21.6,0,0,0-4.895,4.444,11.277,11.277,0,0,0-1.982,3.749,6.237,6.237,0,0,0-.115,3.595c.007.018.012.035.017.052l0,.008c0,.009.005.018.009.028a6.485,6.485,0,0,0,2.18,2.708C22.018,320.494,25.794,320.92,28.494,320.92Z" transform="translate(-6.102 1.945)" fill="#ffbe41"/><path d="M30.063,304.457a6.245,6.245,0,0,0-3.924,7.9,6.16,6.16,0,0,0,1.477,2.4.571.571,0,0,0,.811-.8,5.043,5.043,0,0,1-1.209-1.962,5.092,5.092,0,1,1,4.959,3.472.571.571,0,0,0,.029,1.141,6.239,6.239,0,1,0-2.144-12.151" transform="translate(-5.857 2.178)" fill="#ffbe41"/><path d="M32.046,304.022h0a6.349,6.349,0,0,1,.163,12.7h-.02a.681.681,0,0,1-.014-1.36,4.988,4.988,0,1,0-3.669-1.478.623.623,0,0,1,.145.7.736.736,0,0,1-.654.454.638.638,0,0,1-.458-.2,6.268,6.268,0,0,1-1.5-2.443,6.348,6.348,0,0,1,6.011-8.372Zm.143,12.477H32.2a6.123,6.123,0,1,0-4.509-1.816.419.419,0,0,0,.3.136.519.519,0,0,0,.452-.32.407.407,0,0,0-.1-.466,5.2,5.2,0,1,1,3.83,1.543.462.462,0,0,0,.008.923Z" transform="translate(-5.857 2.178)" fill="#ffbe41"/><path d="M30.284,315.8a.57.57,0,1,0-.711.03.575.575,0,0,0,.711-.03" transform="translate(-5.78 2.41)" fill="#ffbe41"/><path d="M29.909,316.052h0a.68.68,0,0,1-.4-.131.683.683,0,0,1,.332-1.223.664.664,0,0,1,.068,0,.679.679,0,0,1,.448,1.191A.677.677,0,0,1,29.909,316.052Zm0-1.138-.046,0a.465.465,0,0,0-.224.829.459.459,0,0,0,.272.088h0a.458.458,0,0,0,.3-.112.46.46,0,0,0-.3-.807Z" transform="translate(-5.78 2.41)" fill="#ffbe41"/><path d="M18.541,298.554a.57.57,0,1,0-.418-.617.574.574,0,0,0,.418.617" transform="translate(-6.025 2.032)" fill="#ffbe41"/><path d="M18.689,298.683h0a.672.672,0,0,1-.176-.024.68.68,0,0,1,.024-1.319.667.667,0,0,1,.15-.017.689.689,0,0,1,.584.327.661.661,0,0,1,.01.676A.685.685,0,0,1,18.689,298.683Zm0-1.141a.445.445,0,0,0-.1.011.471.471,0,0,0-.354.4.465.465,0,0,0,.337.5.456.456,0,0,0,.12.016h0a.466.466,0,0,0,.4-.245.439.439,0,0,0-.005-.455A.468.468,0,0,0,18.687,297.543Z" transform="translate(-6.025 2.032)" fill="#ffbe41"/><path d="M464.293,332.027a23.809,23.809,0,0,0,3.993,1.474.571.571,0,0,0,.29-1.1,22.726,22.726,0,0,1-3.8-1.4,13.337,13.337,0,0,1-4.856-3.6,8.682,8.682,0,0,1-1.5-7.921,9.4,9.4,0,0,1,1.563-2.82,10.757,10.757,0,0,0,.944,3.345c1.828,3.894,5.818,5.906,9.879,6.663a21.729,21.729,0,0,0,7.806.207,6.19,6.19,0,0,1-1.216,4.114.382.382,0,0,0-.028.031,6.378,6.378,0,0,1-4.325,1.841.571.571,0,0,0,.1,1.137,7.536,7.536,0,0,0,5.1-2.246,7.441,7.441,0,0,0,1.5-5.132,9.056,9.056,0,0,0,5.391-3.486,7.154,7.154,0,0,0,.844-4.688,12.228,12.228,0,0,0-1.545-4.472,22.635,22.635,0,0,0-4.579-5.53c-3.057-2.778-7.071-4.742-11.278-3.846a10.373,10.373,0,0,0-4.607,2.255,12.159,12.159,0,0,0-4.034,8.124,10.485,10.485,0,0,0-2.61,4.168A9.6,9.6,0,0,0,459,328.072,14.4,14.4,0,0,0,464.293,332.027Zm.4-24.306c.012-.009.025-.02.036-.031a9.344,9.344,0,0,1,4.133-2c3.827-.791,7.454,1.071,10.22,3.585,4.25,3.863,5.471,7.14,5.747,9.208A6.614,6.614,0,0,1,484.45,322a.371.371,0,0,1-.02.04c-.007.013-.013.027-.019.04-.025.054-2.59,5.468-13.4,3.454-3.676-.685-7.351-2.45-9.031-5.977a9.356,9.356,0,0,1-.907-4.5,11.083,11.083,0,0,1,3.625-7.339" transform="translate(3.528 2.183)" fill="#ffbe41"/><path d="M473.082,334.1a.656.656,0,0,1-.652-.658.645.645,0,0,1,.6-.7,6.268,6.268,0,0,0,4.25-1.8l0,0c.011-.013.016-.019.029-.032A6.015,6.015,0,0,0,478.5,327a17.722,17.722,0,0,1-2.993.245,25.649,25.649,0,0,1-4.724-.475,16.669,16.669,0,0,1-5.814-2.17,10.546,10.546,0,0,1-5.063-7.667,9.142,9.142,0,0,0-1.383,2.571A8.566,8.566,0,0,0,460,327.323a13.23,13.23,0,0,0,4.817,3.572,22.609,22.609,0,0,0,3.781,1.4.642.642,0,0,1,.484.728.67.67,0,0,1-.645.612h0a.727.727,0,0,1-.185-.025,23.918,23.918,0,0,1-4.011-1.481,14.506,14.506,0,0,1-5.329-3.986,10.173,10.173,0,0,1-1.987-4.309,8.843,8.843,0,0,1,.291-4.73,10.428,10.428,0,0,1,2.608-4.182,13.322,13.322,0,0,1,1.24-4.456,10.845,10.845,0,0,1,2.827-3.7,10.525,10.525,0,0,1,4.656-2.279,10.128,10.128,0,0,1,2.106-.222,11.7,11.7,0,0,1,4.977,1.175,17.436,17.436,0,0,1,4.292,2.919,22.744,22.744,0,0,1,4.6,5.557,12.339,12.339,0,0,1,1.558,4.513,7.3,7.3,0,0,1-.86,4.76c-1.343,2.124-3.906,3.106-5.372,3.511a7.566,7.566,0,0,1-1.533,5.122,7.68,7.68,0,0,1-5.171,2.282C473.127,334.1,473.1,334.1,473.082,334.1Zm5.634-7.366v.13a6.3,6.3,0,0,1-1.244,4.188l0,0-.018.02a6.5,6.5,0,0,1-4.4,1.883.425.425,0,0,0-.4.472.438.438,0,0,0,.433.449l.05,0a7.452,7.452,0,0,0,5.025-2.207,7.369,7.369,0,0,0,1.477-5.058l0-.087.084-.023c1.419-.382,4-1.337,5.327-3.439a7.086,7.086,0,0,0,.828-4.616,12.122,12.122,0,0,0-1.532-4.432,22.527,22.527,0,0,0-4.557-5.5c-3.671-3.336-6.987-4.037-9.122-4.037a9.91,9.91,0,0,0-2.06.217,10.282,10.282,0,0,0-4.556,2.229l0,0a12.072,12.072,0,0,0-3.994,8.049l0,.039-.027.028a10.237,10.237,0,0,0-2.583,4.123l0,.006a8.623,8.623,0,0,0-.283,4.615A9.954,9.954,0,0,0,459.089,328a14.291,14.291,0,0,0,5.25,3.924,23.7,23.7,0,0,0,3.975,1.468.508.508,0,0,0,.129.018.454.454,0,0,0,.427-.421.42.42,0,0,0-.322-.488,22.832,22.832,0,0,1-3.818-1.411,13.446,13.446,0,0,1-4.9-3.634,8.783,8.783,0,0,1-1.524-8.019,9.425,9.425,0,0,1,1.582-2.857l.165-.211.03.266a10.336,10.336,0,0,0,5,7.773,16.453,16.453,0,0,0,5.738,2.14,25.434,25.434,0,0,0,4.684.471,17.4,17.4,0,0,0,3.083-.264Zm-3.209-.64a24.859,24.859,0,0,1-4.517-.451,15.652,15.652,0,0,1-5.3-1.937,9.668,9.668,0,0,1-3.809-4.1,9.385,9.385,0,0,1-.917-4.557,11.117,11.117,0,0,1,3.666-7.414c.012-.009.021-.018.03-.025a9.514,9.514,0,0,1,4.186-2.025,9.031,9.031,0,0,1,1.825-.186c1.968,0,5.038.659,8.491,3.8,4.273,3.885,5.5,7.188,5.782,9.275a6.729,6.729,0,0,1-.392,3.578.474.474,0,0,1-.025.049l-.014.03C484.492,322.168,482.635,326.1,475.507,326.1Zm-4.839-20.477a8.814,8.814,0,0,0-1.78.182,9.3,9.3,0,0,0-4.079,1.969c-.017.015-.031.028-.046.039a10.894,10.894,0,0,0-3.582,7.264,9.33,9.33,0,0,0,.9,4.44,9.453,9.453,0,0,0,3.726,4.008,15.435,15.435,0,0,0,5.227,1.909,24.639,24.639,0,0,0,4.477.447c6.961,0,8.786-3.8,8.8-3.838.008-.016.015-.031.023-.046a.3.3,0,0,0,.016-.031l0-.005a6.492,6.492,0,0,0,.373-3.454c-.275-2.051-1.489-5.3-5.713-9.142C475.611,306.268,472.6,305.619,470.669,305.619Z" transform="translate(3.528 2.183)" fill="#ffbe41"/><path d="M467.1,320.406a6.242,6.242,0,0,0,9.015-5.555.571.571,0,0,0-1.141-.005,5.1,5.1,0,0,1-7.366,4.539,5.1,5.1,0,1,1,5.782-8.259.571.571,0,0,0,.786-.827,6.239,6.239,0,1,0-7.076,10.107" transform="translate(3.675 2.275)" fill="#ffbe41"/><path d="M469.862,321.166a6.271,6.271,0,0,1-2.814-.662,6.348,6.348,0,0,1,2.834-12.032,6.351,6.351,0,0,1,4.366,1.747.629.629,0,0,1,.163.708.732.732,0,0,1-.655.465.64.64,0,0,1-.445-.188,5.012,5.012,0,0,0-1.221-.853,4.928,4.928,0,0,0-2.21-.52,5.016,5.016,0,0,0-2.6.727,4.987,4.987,0,0,0,2.583,9.248,5,5,0,0,0,4.476-2.769,4.944,4.944,0,0,0,.522-2.193.649.649,0,0,1,.679-.656.707.707,0,0,1,.5.2.638.638,0,0,1,.181.465,6.35,6.35,0,0,1-3.052,5.39A6.381,6.381,0,0,1,469.862,321.166Zm.02-12.475a6.164,6.164,0,0,0-3.194.893A6.127,6.127,0,1,0,476,314.85a.419.419,0,0,0-.117-.309.487.487,0,0,0-.345-.133.428.428,0,0,0-.46.438,5.208,5.208,0,0,1-2.5,4.42,5.235,5.235,0,0,1-2.713.759,5.141,5.141,0,0,1-2.308-.543,5.207,5.207,0,0,1,2.325-9.869,5.145,5.145,0,0,1,2.308.543,5.232,5.232,0,0,1,1.274.89.42.42,0,0,0,.294.127.515.515,0,0,0,.452-.327.406.406,0,0,0-.111-.468,6.132,6.132,0,0,0-4.215-1.687Z" transform="translate(3.675 2.275)" fill="#ffbe41"/><path d="M474.843,311.935a.57.57,0,1,0,.524.482.575.575,0,0,0-.524-.482" transform="translate(3.906 2.348)" fill="#ffbe41"/><path d="M474.8,311.824h0l.047,0a.682.682,0,0,1,.625.575.653.653,0,0,1-.152.532.712.712,0,0,1-.533.247.653.653,0,0,1-.415-.149.68.68,0,0,1,.428-1.207Zm-.013,1.137a.49.49,0,0,0,.367-.171.437.437,0,0,0,.1-.357.462.462,0,0,0-.423-.39H474.8a.461.461,0,0,0-.29.818A.436.436,0,0,0,474.791,312.961Z" transform="translate(3.906 2.348)" fill="#ffbe41"/><path d="M470.949,332.436a.57.57,0,1,0-.141.732.575.575,0,0,0,.141-.732" transform="translate(3.811 2.788)" fill="#ffbe41"/><path d="M470.459,332.047h0a.665.665,0,0,1,.584.334.688.688,0,0,1-.168.872.684.684,0,0,1-.782.043.688.688,0,0,1-.3-.738A.668.668,0,0,1,470.459,332.047Zm-.006,1.133a.46.46,0,0,0,.4-.689.443.443,0,0,0-.395-.225h0a.454.454,0,0,0-.453.344.467.467,0,0,0,.2.5A.459.459,0,0,0,470.454,333.18Z" transform="translate(3.811 2.788)" fill="#ffbe41"/><path d="M230.5,476.6a23.881,23.881,0,0,0,.763,4.186.571.571,0,0,0,1.1-.312,22.693,22.693,0,0,1-.725-3.986,13.332,13.332,0,0,1,.628-6.013,8.683,8.683,0,0,1,6.052-5.327,9.408,9.408,0,0,1,3.223-.09,10.789,10.789,0,0,0-2.4,2.516c-2.421,3.556-2.121,8.015-.705,11.894a21.7,21.7,0,0,0,3.8,6.824,6.179,6.179,0,0,1-4.16,1.047.277.277,0,0,0-.041-.007,6.373,6.373,0,0,1-3.788-2.785.571.571,0,0,0-.926.667,7.523,7.523,0,0,0,4.529,3.244,7.438,7.438,0,0,0,5.182-1.318,9.062,9.062,0,0,0,5.745,2.865,7.167,7.167,0,0,0,4.465-1.66,12.257,12.257,0,0,0,3.062-3.606,22.656,22.656,0,0,0,2.429-6.757c.836-4.045.482-8.5-2.431-11.665a10.368,10.368,0,0,0-4.287-2.818,12.158,12.158,0,0,0-9.046.664,10.484,10.484,0,0,0-4.916-.125,9.6,9.6,0,0,0-6.838,5.994A14.418,14.418,0,0,0,230.5,476.6Zm21.127-12.026.045.015a9.336,9.336,0,0,1,3.822,2.541c2.63,2.89,2.873,6.96,2.117,10.621-1.162,5.624-3.36,8.343-5,9.634a6.607,6.607,0,0,1-3.222,1.461l-.045,0-.044,0c-.06.006-6.025.554-9.795-9.776-1.281-3.512-1.634-7.573.547-10.816a9.359,9.359,0,0,1,3.411-3.07,11.085,11.085,0,0,1,8.163-.616" transform="translate(-1.403 5.635)" fill="#ffbe41"/><path d="M248.931,490.121l-.158,0c-2.51-.075-4.661-1.781-5.757-2.836a8.219,8.219,0,0,1-4.349,1.356,4.5,4.5,0,0,1-.841-.069,7.633,7.633,0,0,1-4.6-3.288.63.63,0,0,1-.06-.673.744.744,0,0,1,.644-.4.632.632,0,0,1,.519.28,6.228,6.228,0,0,0,3.715,2.741.333.333,0,0,1,.05.009,3.07,3.07,0,0,0,.582.045,6.8,6.8,0,0,0,3.384-1.014,21.752,21.752,0,0,1-3.731-6.759c-.971-2.66-2.169-7.754.717-11.994a10.815,10.815,0,0,1,2.211-2.377,10.64,10.64,0,0,0-1.11-.059,8.179,8.179,0,0,0-1.806.177h-.006a8.566,8.566,0,0,0-5.972,5.259,13.225,13.225,0,0,0-.622,5.964,22.589,22.589,0,0,0,.722,3.967.633.633,0,0,1-.1.568.745.745,0,0,1-.587.282h0a.633.633,0,0,1-.627-.478,23.986,23.986,0,0,1-.767-4.205,14.527,14.527,0,0,1,.719-6.617,10.175,10.175,0,0,1,2.7-3.9,8.839,8.839,0,0,1,4.219-2.157,8.658,8.658,0,0,1,2.078-.241,12.328,12.328,0,0,1,2.849.357A13.283,13.283,0,0,1,248.5,462.8a10.328,10.328,0,0,1,3.551.6,10.488,10.488,0,0,1,4.333,2.848c3.473,3.773,3.03,8.988,2.457,11.761a22.763,22.763,0,0,1-2.441,6.79,12.368,12.368,0,0,1-3.09,3.638A7.418,7.418,0,0,1,248.931,490.121Zm-5.886-3.116.062.061c1.052,1.027,3.188,2.76,5.672,2.834l.151,0a7.2,7.2,0,0,0,4.244-1.64,12.151,12.151,0,0,0,3.034-3.574,22.546,22.546,0,0,0,2.416-6.724c.564-2.732,1-7.867-2.4-11.568a10.246,10.246,0,0,0-4.238-2.787l-.006,0a10.108,10.108,0,0,0-3.479-.584,13.059,13.059,0,0,0-5.482,1.244l-.035.017-.038-.009a12.136,12.136,0,0,0-2.835-.36,8.438,8.438,0,0,0-2.028.235h-.006a8.62,8.62,0,0,0-4.117,2.106,9.955,9.955,0,0,0-2.639,3.82,14.312,14.312,0,0,0-.705,6.517,23.77,23.77,0,0,0,.76,4.167.413.413,0,0,0,.416.319h0a.522.522,0,0,0,.412-.195.414.414,0,0,0,.059-.376,22.8,22.8,0,0,1-.729-4.005,13.439,13.439,0,0,1,.635-6.062,8.785,8.785,0,0,1,6.127-5.395h.005a8.413,8.413,0,0,1,1.857-.183,10.887,10.887,0,0,1,1.4.092l.265.035-.213.161a10.613,10.613,0,0,0-2.375,2.49c-2.831,4.159-1.649,9.175-.693,11.8a21.39,21.39,0,0,0,3.776,6.79l.085.1-.111.067a7.007,7.007,0,0,1-3.609,1.111,3.226,3.226,0,0,1-.631-.051l-.03-.005a6.453,6.453,0,0,1-3.864-2.83.414.414,0,0,0-.342-.189.527.527,0,0,0-.449.282.412.412,0,0,0,.043.446,7.405,7.405,0,0,0,4.457,3.2,4.272,4.272,0,0,0,.8.065,8.035,8.035,0,0,0,4.3-1.368Zm6.071,1.968a7.158,7.158,0,0,1-3.986-1.425c-2.354-1.636-4.28-4.472-5.724-8.43a15.664,15.664,0,0,1-1.031-5.548,9.668,9.668,0,0,1,1.59-5.367,9.444,9.444,0,0,1,3.452-3.107,12.753,12.753,0,0,1,5.142-1.154,8.791,8.791,0,0,1,3.109.533l.008,0,.029.01a9.4,9.4,0,0,1,3.873,2.573,9.663,9.663,0,0,1,2.355,5.078,15.662,15.662,0,0,1-.212,5.639c-1.168,5.656-3.385,8.4-5.039,9.7a6.716,6.716,0,0,1-3.281,1.484c-.031,0-.061,0-.081.005S249.243,488.973,249.117,488.973Zm-.557-24.812a12.524,12.524,0,0,0-5.047,1.132,9.208,9.208,0,0,0-3.365,3.032,9.452,9.452,0,0,0-1.553,5.248,15.447,15.447,0,0,0,1.018,5.47c3.373,9.243,8.509,9.711,9.5,9.711.115,0,.176-.006.177-.006l.043,0h.012l.038,0a6.484,6.484,0,0,0,3.161-1.438c1.625-1.28,3.805-3.979,4.96-9.57a15.445,15.445,0,0,0,.21-5.56,9.448,9.448,0,0,0-2.3-4.965,9.157,9.157,0,0,0-3.773-2.51l-.042-.014-.009,0A8.576,8.576,0,0,0,248.56,464.161Z" transform="translate(-1.403 5.635)" fill="#ffbe41"/><path d="M241.685,473.2a6.245,6.245,0,0,0,6.677,5.766,6.182,6.182,0,0,0,2.693-.835.571.571,0,0,0-.576-.985,5.037,5.037,0,0,1-2.2.682,5.089,5.089,0,1,1,4.6-3.939.571.571,0,0,0,1.112.256,6.239,6.239,0,1,0-12.3-.945" transform="translate(-1.157 5.713)" fill="#ffbe41"/><path d="M247.9,479.088h0a6.348,6.348,0,0,1-.459-12.679c.155-.011.313-.017.468-.017a6.353,6.353,0,0,1,6.183,7.773.63.63,0,0,1-.639.509.734.734,0,0,1-.573-.265.635.635,0,0,1-.114-.549,4.994,4.994,0,0,0-4.858-6.107c-.122,0-.246,0-.368.013a4.988,4.988,0,0,0,.36,9.962c.122,0,.246,0,.368-.014a4.928,4.928,0,0,0,2.154-.667.666.666,0,0,1,.339-.1.706.706,0,0,1,.652.537.631.631,0,0,1-.3.734,6.29,6.29,0,0,1-2.741.85C248.215,479.082,248.058,479.088,247.9,479.088Zm.009-12.477c-.15,0-.3.006-.452.017a6.129,6.129,0,0,0,.443,12.241h0c.15,0,.3-.006.452-.017a6.072,6.072,0,0,0,2.646-.82.412.412,0,0,0,.2-.488.487.487,0,0,0-.44-.375.451.451,0,0,0-.228.067,5.145,5.145,0,0,1-2.248.7c-.127.009-.257.014-.384.014a5.207,5.207,0,0,1-.376-10.4c.127-.009.257-.014.384-.014a5.213,5.213,0,0,1,5.072,6.375.415.415,0,0,0,.072.364.52.52,0,0,0,.4.183.418.418,0,0,0,.425-.339,6.134,6.134,0,0,0-5.969-7.505Z" transform="translate(-1.157 5.713)" fill="#ffbe41"/><path d="M252.757,475.6a.57.57,0,1,0-.148.7.576.576,0,0,0,.148-.7" transform="translate(-0.94 5.904)" fill="#ffbe41"/><path d="M252.244,475.172a.68.68,0,0,1,.434,1.206.654.654,0,0,1-.418.15.711.711,0,0,1-.532-.246.654.654,0,0,1-.153-.531.684.684,0,0,1,.573-.572A.672.672,0,0,1,252.244,475.172Zm.016,1.137a.438.438,0,0,0,.279-.1.461.461,0,0,0-.3-.817.45.45,0,0,0-.064,0,.463.463,0,0,0-.388.388.438.438,0,0,0,.1.356A.49.49,0,0,0,252.26,476.309Z" transform="translate(-0.94 5.904)" fill="#ffbe41"/><path d="M233.129,482.68a.57.57,0,1,0-.7.251.574.574,0,0,0,.7-.251" transform="translate(-1.367 6.047)" fill="#ffbe41"/><path d="M232.629,483.078a.668.668,0,0,1-.241-.045.68.68,0,0,1,.048-1.285.669.669,0,0,1,.2-.03.685.685,0,0,1,.585.347.664.664,0,0,1,.007.669A.677.677,0,0,1,232.629,483.078Zm0-1.14a.45.45,0,0,0-.132.02.461.461,0,0,0-.034.871.449.449,0,0,0,.162.03.465.465,0,0,0,.4-.232.442.442,0,0,0-.005-.452A.465.465,0,0,0,232.632,481.938Z" transform="translate(-1.367 6.047)" fill="#ffbe41"/></g></g></g></svg>