<?xml version="1.0" standalone="no"?>
<!DOCTYPE svg PUBLIC "-//W3C//DTD SVG 1.1//EN" "http://www.w3.org/Graphics/SVG/1.1/DTD/svg11.dtd" >
<svg xmlns="http://www.w3.org/2000/svg" xmlns:xlink="http://www.w3.org/1999/xlink" version="1.1">
<metadata>
Created by FontForge 20201107 at Tue Jun  4 04:36:04 2024
 By 
Trotoart Design Copyright(c)
</metadata>
<defs>
<font id="QuantaGroteskPro-Italic" horiz-adv-x="1021" >
  <font-face 
    font-family="Quanta Grotesk Pro Ita"
    font-weight="400"
    font-style="italic"
    font-stretch="normal"
    units-per-em="2048"
    panose-1="0 0 0 0 0 0 0 0 0 0"
    ascent="1638"
    descent="-410"
    x-height="1006"
    cap-height="1434"
    bbox="-221 -512 2889.76 1946"
    underline-thickness="102"
    underline-position="-255"
    unicode-range="U+000A-25CA"
  />
<missing-glyph horiz-adv-x="512" 
 />
    <glyph glyph-name=".notdef" horiz-adv-x="512" 
 />
    <glyph glyph-name="uni0000" horiz-adv-x="0" 
 />
    <glyph glyph-name="uni0000" horiz-adv-x="0" 
 />
    <glyph glyph-name="uni000D" unicode="&#xd;" horiz-adv-x="512" 
 />
    <glyph glyph-name="uni000A" unicode="&#xa;" horiz-adv-x="1024" 
 />
    <glyph glyph-name="space" unicode=" " horiz-adv-x="409" 
 />
    <glyph glyph-name="exclam" unicode="!" horiz-adv-x="550" 
d="M408 399h-172l155 1006h213zM295 248q57 0 90.5 -41t22.5 -98q-9 -57 -56.5 -97.5t-105.5 -40.5q-57 0 -90 40.5t-23 97.5q9 57 57 98t105 41z" />
    <glyph glyph-name="quotedbl" unicode="&#x22;" horiz-adv-x="835" 
d="M614 1536l-106 -342h-92l10 342h188zM862 1536l-106 -342h-92l10 342h188z" />
    <glyph glyph-name="numbersign" unicode="#" horiz-adv-x="1323" 
d="M1032 352h207l-25 -147h-235l-74 -205h-147l73 205h-432l-73 -205h-146l72 205h-178l24 147h207l150 416h-197l27 147h223l80 226h147l-80 -226h430l82 226h148l-82 -226h192l-26 -147h-217zM453 352h432l149 416h-432z" />
    <glyph glyph-name="dollar" unicode="$" horiz-adv-x="1280" 
d="M582 88q-221 7 -325.5 109.5t-72.5 279.5h176q-15 -90 64 -161.5t223 -71.5q41 0 82 4t94.5 16.5t95 33.5t74 58.5t41.5 87.5t-14.5 85t-69.5 54.5t-108 32.5t-131 24t-137.5 25t-128.5 39t-103 61.5t-61.5 97.5t-4.5 143q15 86 63.5 151t122.5 103.5t158.5 59
t184.5 26.5l22 135h148l-23 -135q207 -13 304.5 -115.5t66.5 -274.5h-176q16 91 -63 163.5t-224 72.5q-53 0 -106 -7.5t-116 -27t-107.5 -62.5t-55.5 -104q-9 -50 14 -85.5t69 -55t107.5 -32.5t130.5 -24t138 -24.5t128.5 -38.5t102.5 -61.5t61.5 -98t4.5 -143.5t-60 -145
t-115.5 -102t-150.5 -60.5t-176 -28.5l-24 -147h-148z" />
    <glyph glyph-name="percent" unicode="%" horiz-adv-x="1998" 
d="M549 0l999 1434h148l-1002 -1434h-145zM1221 494q42 238 164.5 364.5t322.5 126.5t277.5 -126.5t35.5 -364.5t-166 -366t-321 -128t-276 128t-37 366zM1681 838q-70 0 -124.5 -29.5t-89 -81.5t-55 -108.5t-32.5 -124.5q-10 -54 -12 -100.5t6.5 -92.5t29.5 -78.5t61 -52.5
t96 -20q70 0 124.5 29t89 81t55 108.5t32.5 125.5q10 53 12 100t-6.5 92.5t-29.5 78.5t-61 53t-96 20zM291 1038q42 240 164.5 367t322.5 127t278 -127t36 -367q-42 -238 -165.5 -365.5t-322.5 -127.5q-197 0 -276 127.5t-37 365.5zM752 1382q-70 0 -124.5 -29.5t-89 -81.5
t-55 -108.5t-32.5 -124.5q-14 -62 -11.5 -123.5t17.5 -110.5t59.5 -79.5t114.5 -30.5q239 0 303 344q14 62 11.5 123.5t-17.5 110.5t-60 79.5t-116 30.5z" />
    <glyph glyph-name="ampersand" unicode="&#x26;" horiz-adv-x="1314" 
d="M225 995q37 211 213 337t441 126q106 0 195.5 -24.5t157 -73.5t97.5 -132t12 -190q-71 -403 -587 -403h-170q-34 0 -71 -9.5t-76 -30.5t-68 -62t-39 -95q-25 -146 63.5 -220.5t249.5 -74.5q170 0 298.5 75t162.5 192h-191l25 139h473l-25 -139h-69q-44 -197 -229.5 -315
t-450.5 -118q-267 0 -407 127t-103 336q25 134 125 207.5t221 73.5q-124 0 -195.5 84t-52.5 190zM428 997q-18 -99 49.5 -149.5t188.5 -50.5h174q131 0 210 54t97 150q14 72 -4.5 129t-62 91.5t-103.5 52.5t-131 18q-95 0 -181 -30.5t-152.5 -99t-84.5 -165.5z" />
    <glyph glyph-name="quotesingle" unicode="'" horiz-adv-x="460" 
d="M637 1536l-107 -342h-92l11 342h188z" />
    <glyph glyph-name="parenleft" unicode="(" horiz-adv-x="614" 
d="M383 0q-89 110 -112 309.5t14 408t130 408t220 308.5h188q-129 -109 -223.5 -308.5t-131.5 -408t-13 -408t114 -309.5h-186z" />
    <glyph glyph-name="parenright" unicode=")" horiz-adv-x="614" 
d="M86 0q103 88 186 235.5t128 315t59 335t-17 314t-104 234.5h188q71 -88 101 -234.5t16 -314t-59 -335t-127 -315t-185 -235.5h-186z" />
    <glyph glyph-name="asterisk" unicode="*" horiz-adv-x="1128" 
d="M637 1430l123 -25l24 131h166l-26 -137l133 28l-6 -143l-125 -22l63 -127l-133 -60l-53 111l-90 -111l-113 60l109 127l-117 30z" />
    <glyph glyph-name="plus" unicode="+" horiz-adv-x="712" 
d="M184 469l31 172h160l28 160h175l-29 -160h160l-31 -172h-160l-29 -160h-174l29 160h-160z" />
    <glyph glyph-name="comma" unicode="," horiz-adv-x="548" 
d="M274 -106h-94q57 33 109 77q-56 0 -89 40.5t-24 97.5q11 57 58.5 98t105.5 41q57 0 89.5 -41t23.5 -98q-12 -67 -69 -126.5t-110 -88.5z" />
    <glyph glyph-name="hyphen" unicode="-" horiz-adv-x="659" 
d="M225 641h492l-31 -172h-491z" />
    <glyph glyph-name="period" unicode="." horiz-adv-x="548" 
d="M260 -29q-57 0 -90.5 40.5t-24.5 97.5q11 57 58 98t104 41q58 0 91 -40.5t24 -98.5q-11 -57 -58 -97.5t-104 -40.5z" />
    <glyph glyph-name="slash" unicode="/" horiz-adv-x="819" 
d="M47 0l832 1434h147l-831 -1434h-148z" />
    <glyph glyph-name="slash" unicode="^" horiz-adv-x="819" 
d="M47 0l832 1434h147l-831 -1434h-148z" />
    <glyph glyph-name="slash" unicode="&#x3c;" horiz-adv-x="819" 
d="M47 0l832 1434h147l-831 -1434h-148z" />
    <glyph glyph-name="zero" unicode="0" horiz-adv-x="1314" 
d="M178 717q64 363 249 555t488 192t421.5 -192t54.5 -555q-64 -361 -251.5 -554.5t-488.5 -193.5q-299 0 -418 193.5t-55 554.5zM885 1292q-94 0 -172.5 -33.5t-132 -88t-94.5 -131.5t-65 -154.5t-40 -167.5t-19.5 -167.5t10.5 -155t48.5 -131.5t101 -88t160.5 -34
q95 0 173.5 34t132.5 88t95 131.5t65 155t40 167.5t19.5 167.5t-11 155t-49 131.5t-101 87.5t-161.5 33.5z" />
    <glyph glyph-name="one" unicode="1" horiz-adv-x="528" 
d="M346 1436h322l-252 -1436h-213l215 1223h-111z" />
    <glyph glyph-name="two" unicode="2" horiz-adv-x="1363" 
d="M1243 0h-1161l39 227q16 92 61.5 168t110.5 128t144.5 94.5t164.5 72.5t170 56t163 51.5t140 53.5t103.5 66.5t52.5 86.5q27 119 -74 195.5t-268 68.5t-274 -77.5t-128 -193.5h-233q15 91 71.5 173.5t142.5 145.5t204.5 100.5t249.5 37.5q157 0 273 -35.5t180 -98
t87 -143t4 -173.5q-18 -87 -72.5 -157.5t-128.5 -114.5t-164.5 -82.5t-182 -64t-180 -56.5t-159 -62t-118 -79t-58.5 -109l-10 -64h887z" />
    <glyph glyph-name="three" unicode="3" horiz-adv-x="1323" 
d="M647 -23q-275 0 -418 125t-106 332h211q-20 -128 82 -209.5t282 -81.5q161 0 276 74.5t142 220.5q19 104 -24.5 152.5t-157.5 48.5h-195l27 158h195q114 0 174 48t79 152q26 145 -62.5 220t-250.5 75q-179 0 -310.5 -82.5t-156.5 -208.5h-211q37 207 223.5 332t460.5 125
q267 0 407 -127t103 -336q-20 -110 -132 -194t-279 -84q174 0 254 -83t59 -194q-37 -209 -221 -336t-451 -127z" />
    <glyph glyph-name="four" unicode="4" horiz-adv-x="1355" 
d="M94 303l31 172l1049 961h212l-167 -961h129l-31 -172h-129l-53 -303h-213l53 303h-881zM377 475h629l116 662z" />
    <glyph glyph-name="five" unicode="5" horiz-adv-x="1366" 
d="M180 440l213 2q-11 -50 -6 -89t15.5 -68.5t36.5 -51t55.5 -35.5t74 -22.5t91 -12t106.5 -3.5q171 0 262.5 82t126.5 276q25 130 7 208t-67 110.5t-139 35.5q-79 3 -167 -18.5t-181.5 -78t-152.5 -138.5h-213l139 782h1106l-37 -213h-895l-86 -485q62 142 195 219.5
t299 77.5q262 0 356 -116t47 -384q-25 -140 -66.5 -235.5t-115 -166t-184 -106t-267.5 -41.5q-47 -2 -89.5 -0.5t-89 6t-86 13.5t-80 23t-71.5 34t-60 46.5t-46 61t-30 77.5t-11.5 95.5t10.5 114.5z" />
    <glyph glyph-name="six" unicode="6" horiz-adv-x="1370" 
d="M973 1141q244 0 367.5 -160t76.5 -424q-49 -278 -249.5 -437t-479.5 -159q-275 0 -420 162.5t-100 427.5q15 82 37.5 157.5t63.5 163t95 163t136 151t182 135t237 108.5t298 76l-35 -194q-155 -12 -285.5 -53.5t-214 -95t-147.5 -121.5t-96 -123.5t-50 -110.5
q10 14 28.5 36.5t78.5 80t124 101.5t160.5 80t192.5 36zM371 551q-32 -188 70 -292.5t282 -104.5q70 0 133.5 14.5t122.5 45.5t105 77.5t80 114.5t48 151q17 95 -3 169.5t-69.5 121t-120 70.5t-157.5 24q-117 0 -218 -42t-175.5 -132.5t-97.5 -216.5z" />
    <glyph glyph-name="seven" unicode="7" horiz-adv-x="1130" 
d="M285 1436h1077l-37 -213l-930 -1223h-239l934 1223h-844z" />
    <glyph glyph-name="eight" unicode="8" horiz-adv-x="1312" 
d="M647 -23q-88 0 -164 10.5t-150.5 39.5t-123.5 74.5t-72 122t-6 175.5q17 95 83.5 169t154 111.5t178.5 37.5q-87 0 -153 51t-93 128t-12 157q17 95 60 167.5t101 117t136.5 72t157 38t171.5 10.5q90 0 164 -10.5t142.5 -38t111.5 -72t61 -117t1 -167.5
q-21 -125 -133 -230.5t-244 -105.5q143 0 235.5 -88.5t67.5 -229.5q-17 -99 -67.5 -175.5t-117 -122t-153.5 -74.5t-167.5 -39.5t-168.5 -10.5zM334 397q-11 -60 4.5 -106.5t48 -73.5t82 -44.5t99.5 -23.5t108 -6q75 0 141 11t132 37t111 78.5t58 127.5q11 60 -9 105.5
t-56 71t-89.5 41t-99.5 20t-96 4.5q-41 0 -80 -3.5t-87.5 -12t-90 -26.5t-79 -43.5t-63 -65.5t-34.5 -91zM885 1292q-352 0 -393 -237q-10 -58 5.5 -104t47 -74t76 -47t88.5 -26t88 -7t90.5 7t97.5 26t92.5 47t73 74t41.5 104q11 58 -2.5 101.5t-42.5 69t-74 41t-89.5 20.5
t-98.5 5z" />
    <glyph glyph-name="nine" unicode="9" horiz-adv-x="1359" 
d="M657 326q-246 0 -369 159.5t-77 423.5q33 185 137 321t256.5 205.5t335.5 69.5q275 0 420 -162.5t100 -427.5q-142 -800 -1048 -954l34 195q155 12 285.5 53.5t214 94.5t147.5 121t96 123.5t50 110.5q-5 -7 -14.5 -19t-41.5 -46.5t-66.5 -66t-88 -70t-108 -66
t-124.5 -46.5t-139 -19zM1257 915q32 189 -69.5 293.5t-280.5 104.5q-88 0 -166 -23.5t-145 -71t-114 -126.5t-66 -183q-32 -187 69.5 -286t282.5 -99q180 0 317.5 101.5t171.5 289.5z" />
    <glyph glyph-name="colon" unicode=":" horiz-adv-x="548" 
d="M449 1040q57 0 89.5 -40.5t22.5 -98.5q-9 -57 -57 -97t-105 -40t-89.5 40t-22.5 97q9 58 56.5 98.5t105.5 40.5zM307 248q58 0 91 -40.5t24 -98.5q-11 -57 -58 -97.5t-104 -40.5t-90.5 40.5t-24.5 97.5q11 57 58 98t104 41z" />
    <glyph glyph-name="semicolon" unicode=";" horiz-adv-x="548" 
d="M274 -106h-94q57 33 109 77q-56 0 -89 40.5t-24 97.5q11 57 58.5 98t105.5 41q57 0 89.5 -41t23.5 -98q-12 -67 -69 -126.5t-110 -88.5zM399 764q-57 0 -89.5 40t-22.5 97q9 58 56.5 98.5t105.5 40.5q57 0 89.5 -40.5t22.5 -98.5q-9 -57 -57 -97t-105 -40z" />
    <glyph glyph-name="equal" unicode="=" horiz-adv-x="1171" 
d="M410 352h493l-31 -172h-491zM461 641h493l-30 -172h-494z" />
    <glyph glyph-name="greater" unicode="&#x3e;" horiz-adv-x="1171" 
d="M410 397l338 181l-275 182l27 145l411 -254l-26 -147l-502 -254z" />
    <glyph glyph-name="question" unicode="?" horiz-adv-x="1093" 
d="M752 410h-177q12 70 40.5 123t64.5 86t77.5 59.5t82.5 51.5t76 54t62 76t38 109q6 46 8 82t-8 64t-21 48t-31.5 34.5t-39.5 23.5t-45.5 13.5t-49.5 6.5t-51 2q-71 0 -142.5 -31t-132 -100.5t-77.5 -163.5h-193q39 218 185 337.5t389 119.5q247 0 346.5 -106t60.5 -334
q-14 -77 -44.5 -137.5t-69.5 -97.5t-83 -66.5t-87 -54t-79.5 -50t-63 -63t-35.5 -86.5zM643 248q57 0 90.5 -41t22.5 -98q-9 -57 -56.5 -97.5t-105.5 -40.5q-57 0 -90 40.5t-23 97.5q9 57 57 98t105 41z" />
    <glyph glyph-name="at" unicode="@" horiz-adv-x="1927" 
d="M940 242q121 0 227.5 85.5t135.5 207.5q29 121 -36.5 206.5t-187.5 85.5q-121 0 -227 -85t-135 -207q-29 -121 36 -207t187 -86zM1116 979q168 0 266 -113l25 103h149q-17 -73 -51.5 -217t-52.5 -217q-9 -40 -15 -66t-13.5 -64t-11 -64t-6.5 -59.5t-0.5 -56t6.5 -47.5
t14.5 -41t25.5 -30t36.5 -20.5t49.5 -6.5q55 0 111.5 69t96 163.5t64.5 197.5q42 190 10 334.5t-121.5 241t-207.5 145.5t-248 49q-103 0 -211 -28t-217 -88.5t-201.5 -146t-165.5 -210.5t-108 -272q-74 -315 79 -515t474 -223q36 -2 68.5 -2.5t68.5 2.5l60 5t64 10.5
t57.5 11.5t64.5 15.5t60 16.5t68.5 20t68.5 20l-27 -154q-181 -54 -312.5 -78t-277.5 -18q-146 4 -265 40t-201.5 97.5t-138.5 143t-81 179.5t-24 206t28 223q63 262 219.5 460.5t384.5 307t496 108.5t449.5 -114.5t247.5 -320t3 -466.5q-21 -86 -52 -166.5t-75 -154.5
t-95 -128.5t-115.5 -87t-133.5 -32.5q-124 0 -193 88t-40 213q-78 -70 -174 -110t-193 -40q-120 0 -208 59.5t-123 161.5t-7 222q44 184 205 314t346 130z" />
    <glyph glyph-name="A" unicode="A" horiz-adv-x="1521" 
d="M788 1434h451l283 -1434h-240l-63 317h-803l-174 -317h-242zM498 469h692l-174 924h-21z" />
    <glyph glyph-name="B" unicode="B" horiz-adv-x="1306" 
d="M1331 432q-13 -138 -89 -237.5t-187 -147t-244 -47.5h-739l252 1434h643q56 0 104.5 -8t95.5 -26t80.5 -48t58.5 -74t29.5 -103.5t-6.5 -136.5q-23 -131 -148.5 -218.5t-299.5 -96.5l-2 -21q116 0 202 -16.5t134.5 -42.5t76.5 -63t35 -72t4 -76zM1157 1038q9 50 -2 86.5
t-39 57.5t-65.5 31t-85.5 10h-445l-80 -455h355q155 0 247.5 71.5t114.5 198.5zM838 211q51 0 99 10.5t95.5 33.5t81.5 68.5t45 108.5q9 49 -5.5 88.5t-44.5 64t-73 41t-86.5 23t-89.5 6.5h-440l-78 -444h496z" />
    <glyph glyph-name="C" unicode="C" horiz-adv-x="1492" 
d="M1004 1278q-218 0 -388.5 -157t-212.5 -404q-29 -163 15 -291.5t147.5 -199t247.5 -70.5q152 0 299 72.5t213 199.5h203q-108 -240 -292.5 -349.5t-455.5 -109.5q-228 0 -380.5 93t-212 262t-19.5 393q61 342 292.5 544.5t575.5 202.5q272 0 421 -109.5t173 -348.5h-203
q-37 129 -155.5 200.5t-267.5 71.5z" />
    <glyph glyph-name="D" unicode="D" horiz-adv-x="1439" 
d="M934 1434q146 0 269 -57t202.5 -153t113 -228.5t7.5 -278.5t-106.5 -279t-193.5 -229t-255.5 -152.5t-288.5 -56.5h-610l252 1434h610zM713 172q129 0 261 80.5t224 207t115 257.5q17 98 -7 197t-79 175.5t-140 124.5t-182 48h-377l-192 -1090h377z" />
    <glyph glyph-name="E" unicode="E" horiz-adv-x="1165" 
d="M1124 0h-1052l252 1434h1052l-35 -205h-819l-76 -422h682l-30 -180h-682l-74 -422h817z" />
    <glyph glyph-name="F" unicode="F" horiz-adv-x="1155" 
d="M416 627l-111 -627h-233l252 1434h1052l-35 -205h-819l-76 -422h682l-30 -180h-682z" />
    <glyph glyph-name="G" unicode="G" horiz-adv-x="1540" 
d="M934 717h659l-125 -717h-213l187 545h-19q-12 -41 -27 -82.5t-43.5 -100.5t-63 -110.5t-86.5 -105t-111 -91.5t-139.5 -62t-170.5 -24q-228 0 -381 93t-213 262t-20 393q39 222 170.5 392.5t327 262.5t424.5 92q294 0 552 -149l-135 -207q-204 143 -454 143
q-147 0 -284 -63t-239 -187t-129 -284q-22 -122 2.5 -228t85 -179.5t150.5 -115.5t197 -42q73 0 136.5 14.5t110.5 36t89.5 56.5t70 66t55 75.5t42 74t32.5 70.5h-467z" />
    <glyph glyph-name="H" unicode="H" horiz-adv-x="1361" 
d="M1196 793l113 641h233l-252 -1434h-233l112 641h-751l-113 -641h-233l252 1434h233l-113 -641h752z" />
    <glyph glyph-name="I" unicode="I" horiz-adv-x="376" 
d="M72 0l252 1434h233l-252 -1434h-233z" />
    <glyph glyph-name="J" unicode="J" horiz-adv-x="700" 
d="M649 1434h234l-148 -836q-20 -113 -53.5 -203t-73.5 -152t-95 -107t-108.5 -71t-124 -41t-131 -19.5t-139.5 -4.5l33 182q12 0 37 -1q117 -2 177 18q159 53 224 304q12 45 21 95z" />
    <glyph glyph-name="K" unicode="K" horiz-adv-x="1284" 
d="M557 1434l-252 -1434h-233l252 1434h233zM1264 0h-269l-506 717l758 717h271l-760 -717z" />
    <glyph glyph-name="L" unicode="L" horiz-adv-x="1024" 
d="M557 1434l-215 -1229h645l-35 -205h-880l252 1434h233z" />
    <glyph glyph-name="M" unicode="M" horiz-adv-x="1855" 
d="M698 0l-133 1362h-20l-240 -1362h-233l252 1434h454l146 -1399h20l639 1399h455l-254 -1434h-234l240 1362h-21l-610 -1362h-461z" />
    <glyph glyph-name="N" unicode="N" horiz-adv-x="1447" 
d="M1151 45l246 1389h233l-254 -1434h-452l-355 1389h-20l-244 -1389h-233l252 1434h454l352 -1389h21z" />
    <glyph glyph-name="O" unicode="O" horiz-adv-x="1603" 
d="M1059 1464q229 0 385.5 -92.5t220 -261.5t23.5 -393q-59 -339 -302.5 -543.5t-588.5 -204.5q-229 0 -385.5 92.5t-220 262t-23.5 393.5q60 339 303 543t588 204zM825 141q110 0 213 37.5t190 108.5t150 182t88 248q23 141 0 248.5t-85.5 180t-152 109.5t-198.5 37
q-110 0 -213 -37.5t-190 -108t-149.5 -181.5t-86.5 -248q-24 -141 -1 -249t85 -180.5t151.5 -109.5t198.5 -37z" />
    <glyph glyph-name="P" unicode="P" horiz-adv-x="1226" 
d="M1004 1434q85 0 153 -25t110 -67.5t69.5 -99t31 -119.5t-5.5 -130q-15 -85 -56.5 -162.5t-105 -140t-154.5 -100t-196 -37.5h-447l-98 -553h-233l252 1434h680zM1184 993q20 103 -39.5 186t-169.5 83h-447l-96 -537h447q111 0 199 82.5t106 185.5z" />
    <glyph glyph-name="Q" unicode="Q" horiz-adv-x="1644" 
d="M834 -31q-81 0 -155 15t-127.5 39t-98.5 53t-74 58.5t-49.5 53.5t-29.5 39l-9 15l-19 -11q122 -173 293.5 -263t389 -98.5t487.5 52.5l-37 -207q-182 -25 -333 -17t-273.5 35.5t-218 79t-167.5 114.5t-122 141t-81 158t-44.5 166.5t-12.5 167t15 157.5q40 223 165.5 393
t316.5 262t419 92q230 0 394 -92t235.5 -262.5t32.5 -392.5q-40 -224 -164 -393.5t-314 -262t-419 -92.5zM381 717q-22 -116 -7 -206.5t55.5 -156t105 -108.5t141 -63.5t164.5 -20.5q112 0 215.5 33t194 98.5t155.5 174.5t90 249t-1.5 249t-94 174.5t-159.5 98.5t-204 33
t-215.5 -33t-194 -98.5t-155.5 -174.5t-90 -249z" />
    <glyph glyph-name="R" unicode="R" horiz-adv-x="1267" 
d="M1362 993q-32 -174 -163 -302.5t-327 -137.5l365 -553h-258l-455 725h334q111 0 199 82.5t106 185.5q20 103 -39.5 186t-169.5 83h-426l-223 -1262h-233l252 1434h680q85 0 153 -25t110 -67.5t69.5 -99t31 -119.5t-5.5 -130z" />
    <glyph glyph-name="S" unicode="S" horiz-adv-x="1337" 
d="M637 -18q-280 0 -413 119.5t-95 336.5h207q-19 -105 73 -189.5t261 -84.5q48 0 96 4.5t110 19.5t110.5 39t86.5 68t49 102q18 106 -101 156q-67 28 -255 58q-24 3 -33 5q-99 16 -161 30t-142 46.5t-121.5 75.5t-64.5 116.5t-6 170.5q15 89 63.5 159t116 114.5t157 73.5
t182 40.5t195.5 11.5q279 0 412.5 -120.5t95.5 -336.5h-205q16 106 -75 190.5t-260 84.5q-47 0 -96 -4.5t-110.5 -20t-110 -40t-86.5 -69t-48 -102.5q-7 -37 0.5 -67.5t31.5 -52.5t51.5 -38t74.5 -29t85 -21.5t97 -18.5q206 -37 280 -59q202 -62 252 -190q29 -75 11 -179
q-15 -89 -63.5 -159t-116.5 -114.5t-157.5 -73.5t-182 -40.5t-195.5 -11.5z" />
    <glyph glyph-name="T" unicode="T" horiz-adv-x="1230" 
d="M1427 1229h-479l-215 -1229h-233l215 1229h-477l34 205h1192z" />
    <glyph glyph-name="U" unicode="U" horiz-adv-x="1382" 
d="M1178 578l151 856h234l-152 -856q-26 -148 -96.5 -266t-169.5 -192.5t-216 -113.5t-243 -39t-230 39t-177 113.5t-102 192.5t-3 266l150 856h233l-149 -856q-19 -107 0 -191.5t66 -134.5t109.5 -76t133.5 -26q49 0 101.5 13t110.5 44.5t106.5 78.5t87.5 122.5t55 169.5z
" />
    <glyph glyph-name="V" unicode="V" horiz-adv-x="1521" 
d="M987 0h-450l-285 1434h242l264 -1393h20l756 1393h242z" />
    <glyph glyph-name="W" unicode="W" horiz-adv-x="2357" 
d="M1516 0l-84 1378h-19l-569 -1378h-451l-141 1434h242l122 -1379h21l569 1379h451l84 -1379h20l609 1379h241l-645 -1434h-450z" />
    <glyph glyph-name="X" unicode="X" horiz-adv-x="1345" 
d="M250 0h-250l567 717l-315 717h250l293 -693h20l535 693h249l-567 -717l314 -717h-248l-293 692h-21z" />
    <glyph glyph-name="Y" unicode="Y" horiz-adv-x="1118" 
d="M739 700l391 734h240l-764 -1434h-241l354 664h-215l-252 770h250l217 -734h20z" />
    <glyph glyph-name="Z" unicode="Z" horiz-adv-x="1275" 
d="M1466 1434l-36 -213l-1049 -1008h870l-37 -213h-1153l37 213l1055 1008h-877l37 213h1153z" />
    <glyph glyph-name="bracketleft" unicode="[" horiz-adv-x="1128" 
d="M762 1436h420l-27 -146h-270l-236 -1333h273l-27 -147h-420z" />
    <glyph glyph-name="backslash" unicode="\" horiz-adv-x="692" 
d="M647 0h-147l-328 1434h147z" />
    <glyph glyph-name="bracketright" unicode="]" horiz-adv-x="1128" 
d="M1182 1434l-287 -1624h-420l27 147h272l234 1329h-273l27 148h420z" />
    <glyph glyph-name="underscore" unicode="_" horiz-adv-x="1009" 
d="M14 76h1008l-31 -172h-1007z" />
    <glyph glyph-name="grave" unicode="`" horiz-adv-x="479" 
d="M381 1757h221l76 -221h-123z" />
    <glyph glyph-name="a" unicode="a" horiz-adv-x="1009" 
d="M688 1036q100 0 177.5 -22.5t131.5 -68t74.5 -120t3.5 -172.5l-117 -653h-110l-29 328q-59 -119 -146.5 -198.5t-179 -112.5t-190.5 -33q-127 0 -194 67.5t-41 210.5q15 72 58 130t105.5 95t135 59t153.5 29q160 14 326 -10l12 74q25 134 -27.5 189t-168.5 55
q-105 0 -217 -53t-199 -134l8 168q218 172 434 172zM805 354l24 142q-203 31 -331 2q-109 -26 -162.5 -100t-48.5 -148q5 -55 41 -89t94 -34q102 0 211.5 64t171.5 163z" />
    <glyph glyph-name="b" unicode="b" horiz-adv-x="1179" 
d="M389 713h21q64 149 178.5 236t245.5 87q58 0 111.5 -11t107 -36.5t93 -66.5t68.5 -100t33.5 -138t-10.5 -180q-21 -117 -68.5 -211t-107 -153t-133 -99t-143 -56t-138.5 -16q-144 0 -230 115.5t-81 294.5h-21l-133 -379h-131l268 1518h213zM645 82q147 0 246.5 120
t132.5 302q18 85 10 161.5t-33.5 134t-79 91t-128.5 33.5q-76 0 -147 -32t-124.5 -86t-91 -124t-51.5 -145q-13 -70 -14 -132.5t13.5 -122.5t45.5 -103.5t87.5 -70t133.5 -26.5z" />
    <glyph glyph-name="c" unicode="c" horiz-adv-x="1060" 
d="M567 -31q-86 0 -159 19.5t-125 54.5t-91 84t-58 108.5t-24 127.5t9 141q19 110 71.5 206t132.5 169t192 115t241 42q91 0 164 -26.5t114 -63t70 -84t39 -79.5t14 -60h-211q-4 28 -14.5 54t-32.5 54t-65.5 45t-102.5 17q-45 0 -92.5 -14t-97 -44.5t-91 -75t-74 -111
t-46.5 -146.5q-17 -98 0.5 -175.5t59.5 -122.5t94.5 -68t109.5 -23q117 0 180 45t94 125h211q-14 -33 -37 -69t-67.5 -81.5t-99 -80.5t-135.5 -59t-173 -24z" />
    <glyph glyph-name="d" unicode="d" horiz-adv-x="1179" 
d="M1040 713l142 805h213l-267 -1518h-131v379h-20q-59 -179 -185.5 -294.5t-269.5 -115.5q-58 0 -111.5 11.5t-107 37t-93 66.5t-68 100.5t-34 139t10.5 180.5q21 117 68.5 210.5t107.5 152.5t133.5 98t143 55t139.5 16q131 0 214 -87t95 -236h20zM563 82q95 0 171.5 39
t126.5 106.5t81 144.5t47 165q18 101 -8.5 189t-97 143t-172.5 55q-147 0 -246.5 -120t-132.5 -302q-17 -85 -9 -161.5t33 -134t78.5 -91t128.5 -33.5z" />
    <glyph glyph-name="e" unicode="e" horiz-adv-x="1177" 
d="M119 504q31 170 130 292t237 181t300 59q273 0 383.5 -161.5t53.5 -440.5h-899q-12 -66 -0.5 -117.5t39.5 -89t70.5 -62t92 -36.5t105.5 -12q118 0 208 49t140 129h211q-96 -146 -243.5 -236t-338.5 -90q-125 0 -224.5 34.5t-167 100.5t-94 168.5t-3.5 231.5zM342 557
h684q7 27 4.5 63t-8.5 73.5t-26 74t-48.5 65t-76.5 45.5t-109 17q-91 -1 -169 -34.5t-128.5 -85.5t-81.5 -108t-41 -110z" />
    <glyph glyph-name="f" unicode="f" horiz-adv-x="864" 
d="M850 1536q85 4 154 -21.5t98 -52.5l-29 -164q-97 71 -203 66q-70 -3 -122 -41.5t-76.5 -90.5t-39 -103.5t-16.5 -86.5l-2 -36h344l-30 -172h-342l-148 -834h-213l148 834h-185l31 172h246q-4 8 -9.5 23.5t-14.5 62t-7 92.5q2 91 35 158.5t91.5 108t130 61t159.5 24.5z
" />
    <glyph glyph-name="g" unicode="g" horiz-adv-x="1179" 
d="M1040 627l134 379h131l-154 -879q-21 -117 -77 -220t-140 -180.5t-201 -117.5t-250 -29q-136 13 -217.5 87.5t-60.5 191.5h41q-5 -17 -1.5 -38t9.5 -41.5t26 -40t47 -34.5t71.5 -24t101.5 -9q160 0 278.5 114.5t159.5 344.5l29 162h-21q-65 -150 -178.5 -237t-245.5 -87
q-69 0 -127.5 11.5t-112 36.5t-89.5 66t-61 100.5t-27 138.5t14 180q21 119 63.5 211.5t98 152.5t126.5 99t145.5 55t158.5 16q143 0 228.5 -115t80.5 -294h20zM977 469q12 70 13 132.5t-13.5 122.5t-45.5 103.5t-87 70t-133 26.5q-99 0 -179.5 -58.5t-129.5 -151.5
t-70 -210q-17 -86 -9.5 -162.5t33.5 -134.5t79 -91.5t128 -33.5q101 0 191 55t147.5 143t75.5 189z" />
    <glyph glyph-name="h" unicode="h" 
d="M358 537l-94 -537h-213l268 1518h213l-141 -803q21 119 145.5 219t262.5 100q171 0 245 -99t48 -255l-121 -680h-211l123 698q16 94 -19 161t-123 67q-67 0 -134 -37t-117 -94.5t-85 -125.5t-47 -132z" />
    <glyph glyph-name="i" unicode="i" horiz-adv-x="385" 
d="M188 1006h322l-176 -1006h-213l139 793h-110zM377 1159q-57 0 -90.5 40t-24.5 97q11 57 58 97.5t104 40.5q58 0 91 -40.5t24 -97.5q-11 -57 -58 -97t-104 -40z" />
    <glyph glyph-name="j" unicode="j" horiz-adv-x="501" 
d="M305 1006h324l-164 -926q-35 -203 -156.5 -293t-365.5 -90l28 153q117 0 188.5 54t94.5 190l123 699h-111zM494 1159q-57 0 -90.5 40t-24.5 97q11 57 58 97.5t104 40.5q58 0 90.5 -40t23.5 -98q-11 -57 -57.5 -97t-103.5 -40z" />
    <glyph glyph-name="k" unicode="k" horiz-adv-x="1040" 
d="M1020 4l-246 -4l-373 504l549 504l248 -2l-547 -502zM532 1518l-268 -1518h-213l268 1518h213z" />
    <glyph glyph-name="l" unicode="l" horiz-adv-x="315" 
d="M51 0l268 1518h213l-268 -1518h-213z" />
    <glyph glyph-name="m" unicode="m" horiz-adv-x="1728" 
d="M1589 698q18 96 -33.5 162t-152.5 66q-106 0 -199 -67t-112 -173l-121 -686h-211l123 698q18 96 -34 162t-153 66q-105 0 -205.5 -105.5t-128.5 -263.5l-98 -557h-213l178 1006h111l18 -353q32 167 158.5 274t282.5 107q117 0 176 -77.5t69 -204.5h21q54 126 180 204
t260 78q148 0 233.5 -103t59.5 -251l-121 -680h-211z" />
    <glyph glyph-name="n" unicode="n" 
d="M362 557l-98 -557h-213l178 1006h111l-2 -363q46 172 175.5 281.5t285.5 109.5q148 0 233 -103t60 -251l-121 -680h-211l123 698q18 96 -34 162t-153 66q-105 0 -205.5 -105.5t-128.5 -263.5z" />
    <glyph glyph-name="o" unicode="o" horiz-adv-x="1193" 
d="M780 1036q111 0 206 -37t162 -103.5t95.5 -168t7.5 -223.5q-28 -162 -130.5 -286t-240.5 -186.5t-288 -62.5q-111 0 -206.5 37t-162.5 104t-96 169.5t-8 224.5q28 161 131 284.5t241.5 185.5t288.5 62zM618 125q66 0 132.5 20.5t130 62.5t111 118.5t65.5 177.5
t-2.5 177.5t-69.5 118t-107.5 61.5t-125.5 20q-52 0 -104.5 -11.5t-107.5 -40t-99.5 -70.5t-79 -107.5t-48.5 -147.5q-16 -85 -3 -148.5t41.5 -107.5t73.5 -71.5t93 -39.5t100 -12z" />
    <glyph glyph-name="p" unicode="p" horiz-adv-x="1179" 
d="M315 293l-141 -805h-213l266 1518h131v-381h21q59 180 185.5 295.5t269.5 115.5q58 0 111.5 -11.5t107 -37t93 -66.5t68 -100t34 -138t-10.5 -181q-21 -117 -68.5 -211t-107.5 -153t-133.5 -99t-143 -56t-139.5 -16q-131 0 -214 87.5t-95 238.5h-21zM793 924
q-77 0 -142 -26.5t-111 -70t-82 -103.5t-57.5 -123.5t-33.5 -133.5q-18 -101 8.5 -189t97 -143t172.5 -55q147 0 246.5 120t132.5 302q17 86 9.5 162.5t-33.5 134.5t-79 91.5t-128 33.5z" />
    <glyph glyph-name="q" unicode="q" horiz-adv-x="1179" 
d="M967 293h-21q-64 -150 -178.5 -238t-245.5 -88q-58 0 -111.5 11.5t-107 37t-93 66.5t-68 100.5t-34 139t10.5 180.5q21 117 68.5 211t107 153t133 98.5t143 55.5t138.5 16q145 0 230.5 -115t80.5 -296h20l134 381h131l-269 -1518h-213zM711 924q-147 0 -246.5 -120
t-132.5 -302q-18 -86 -10.5 -162.5t33.5 -134.5t79.5 -91.5t128.5 -33.5q76 0 147 32t124.5 86t91 124t51.5 145q12 70 13 133.5t-13.5 123.5t-45.5 103.5t-87 70t-133 26.5z" />
    <glyph glyph-name="r" unicode="r" horiz-adv-x="737" 
d="M358 627q24 84 57 150.5t69.5 109.5t78 74.5t82.5 46t84 24t82 7.5t76 -3l-33 -194q-21 2 -39.5 3t-67 -1.5t-89 -10.5t-93 -29.5t-91 -53t-71.5 -86.5t-45 -125l-94 -539h-213l178 1006h111l-2 -379h20z" />
    <glyph glyph-name="s" unicode="s" horiz-adv-x="1001" 
d="M831 289q7 39 -14 65t-61.5 39t-94.5 21.5t-114 15.5t-119.5 16.5t-111.5 29.5t-89 50.5t-53 82.5t-4 122q27 152 175.5 232.5t361.5 80.5q98 0 172 -16t117 -45t69 -68.5t29 -86t-4 -97.5h-156q7 42 -3 73.5t-32 50t-58 29.5t-73.5 15t-85.5 4q-68 0 -119 -7t-98 -24.5
t-76 -53t-39 -87.5q-9 -51 26.5 -81t99 -41.5t141 -19.5t153.5 -23t136.5 -42t91 -86.5t14.5 -148.5q-26 -147 -152.5 -233.5t-359.5 -86.5q-225 0 -329 90.5t-79 231.5h170q-15 -86 51 -133t211 -47q276 0 307 178z" />
    <glyph glyph-name="t" unicode="t" horiz-adv-x="905" 
d="M655 1298l-82 -292h455l-31 -172h-434l-90 -504q-11 -55 -3 -92t25 -62t48.5 -36.5t67.5 -14.5t82.5 4t92 19t97.5 30l-31 -178q-111 -20 -197.5 -26.5t-173 6.5t-139 51t-76 116.5t-2.5 194.5l86 492h-182l31 172h305l-160 292h311z" />
    <glyph glyph-name="u" unicode="u" 
d="M838 449l98 557h213l-178 -1006h-111l2 362h-20q-30 -171 -157.5 -281t-283.5 -110q-148 0 -233 103.5t-59 251.5l120 680h211l-123 -699q-18 -96 34 -161.5t153 -65.5q105 0 205.5 105.5t128.5 263.5z" />
    <glyph glyph-name="v" unicode="v" horiz-adv-x="1138" 
d="M594 20l518 986h213l-545 -1006h-424l-188 1006h213l172 -986h41z" />
    <glyph glyph-name="w" unicode="w" horiz-adv-x="1966" 
d="M1528 41l414 965h212l-462 -1006h-424l-90 985h-41l-439 -985h-424l-106 1006h213l74 -965h82l411 965h424l74 -965h82z" />
    <glyph glyph-name="x" unicode="x" horiz-adv-x="1083" 
d="M1024 1006h248l-404 -502l226 -504h-246l-193 471h-61l-356 -471h-248l403 504l-225 502h246l192 -471h62z" />
    <glyph glyph-name="y" unicode="y" horiz-adv-x="1136" 
d="M1110 1006h213l-539 -998q-37 -68 -79 -125t-82 -97.5t-83.5 -72.5t-81.5 -52t-76.5 -34t-69 -20.5t-58.5 -9t-45 -2.5t-29 2q-133 17 -221 109t-86 208h41q23 -88 108.5 -151t192.5 -50q84 11 174.5 84.5t173.5 202.5h-211l-188 1006h213l172 -922h57z" />
    <glyph glyph-name="z" unicode="z" horiz-adv-x="1024" 
d="M188 836l31 170h942l-31 -175l-856 -663l740 2l-31 -170h-942l37 213l813 623h-703z" />
    <glyph glyph-name="braceleft" unicode="{" horiz-adv-x="688" 
d="M180 668l31 174h47q38 0 73.5 -20.5t57.5 -53.5l4 4q-49 73 -33 170l72 408q15 84 68 135t125 51h211l-31 -174h-121q-45 0 -88 24.5t-70 63.5l-4 -4q26 -38 37 -93.5t2 -109.5l-51 -291q-10 -55 -25.5 -94t-27.5 -54t-26.5 -29t-18.5 -21q2 -6 12 -20t16 -29.5t9 -54
t-9 -93.5l-51 -291q-9 -54 -39.5 -110t-70.5 -95l2 -2q40 38 92 62t98 24h119l-31 -172h-211q-71 0 -105.5 51.5t-19.5 135.5l72 407q16 97 92 170l-4 2q-33 -31 -75.5 -51t-80.5 -20h-47z" />
    <glyph glyph-name="bar" unicode="|" horiz-adv-x="1128" 
d="M451 -338l311 1772h147l-313 -1772h-145z" />
    <glyph glyph-name="braceright" unicode="}" horiz-adv-x="688" 
d="M682 668h-47q-37 0 -73 20t-58 51l-2 -2q22 -32 30 -78t0 -92l-71 -407q-15 -85 -68 -136t-125 -51h-209l29 172h121q45 0 88.5 -23.5t69.5 -62.5l4 2q-26 38 -37 94.5t-2 110.5l51 291q10 55 25.5 94t27.5 54t26.5 29t18.5 20q-2 7 -11.5 21t-15.5 29t-9 53.5t8 94.5
l51 291q11 54 40.5 109.5t69.5 93.5l-2 4q-41 -39 -92 -63.5t-96 -24.5h-121l31 174h211q71 0 105.5 -51t19.5 -135l-72 -408q-16 -96 -90 -170l2 -4q33 33 75.5 53.5t80.5 20.5h47z" />
    <glyph glyph-name="asciitilde" unicode="~" horiz-adv-x="915" 
d="M276 637q46 41 92.5 61t88.5 20.5t83.5 -7.5t84.5 -19.5t84 -19.5t89 -5t93 23q10 5 20 -0.5t7 -19.5q-2 -16 -35 -49q-69 -59 -137 -76t-126 -3.5t-113 30.5t-118.5 17.5t-122.5 -32.5q-12 -6 -21.5 3t-6.5 26q10 29 38 51z" />
    <glyph glyph-name="exclamdown" unicode="&#xa1;" horiz-adv-x="550" 
d="M444 610l-157 -1005h-213l198 1005h172zM385 762q-57 0 -90.5 41t-22.5 98q9 57 56.5 97t105.5 40q57 0 90 -40t23 -97q-9 -57 -57 -98t-105 -41z" />
    <glyph glyph-name="cent" unicode="&#xa2;" horiz-adv-x="1153" 
d="M180 504q39 218 184 357.5t343 168.5l26 144h146l-25 -140q299 -22 365 -311h-201q-19 68 -86 111t-160 43q-138 0 -244.5 -102t-136.5 -271q-29 -170 41 -272.5t207 -102.5q94 0 176.5 43t124.5 111h201q-165 -290 -473 -312l-23 -127h-147l22 131q-187 29 -283 169
t-57 360z" />
    <glyph glyph-name="sterling" unicode="&#xa3;" horiz-adv-x="1009" 
d="M-23 0l35 195h205l64 350h-207l35 194h204l33 179q92 536 547 536q194 0 289 -106t59 -310h-180q44 244 -180 244q-59 0 -103.5 -15t-88 -54t-75.5 -117t-53 -195l-29 -162h244l-33 -194h-245l-62 -350h535l-35 -195h-959z" />
    <glyph glyph-name="currency" unicode="&#xa4;" horiz-adv-x="1220" 
d="M252 133l-105 127l175 150q-47 96 -23 233q26 141 107 242l-123 149l149 127l127 -153q105 51 227 51q126 0 211 -51l181 153l104 -127l-174 -149q44 -97 20 -234q-23 -139 -104 -241l123 -150l-152 -127l-125 154q-105 -51 -229 -51t-209 51zM477 647q-20 -99 37.5 -169
t157.5 -70q101 0 180 69t98 170q20 100 -36.5 170t-157.5 70q-102 0 -181 -69t-98 -171z" />
    <glyph glyph-name="yen" unicode="&#xa5;" horiz-adv-x="1220" 
d="M555 664l-252 770h250l217 -734h21l391 734h239l-438 -822h127l-31 -174h-188l-35 -67h213l-31 -172h-276l-105 -199h-241l106 199h-116l30 172h178l35 67h-203l31 174h266l27 52h-215z" />
    <glyph glyph-name="brokenbar" unicode="&#xa6;" horiz-adv-x="1128" 
d="M492 -102l114 655h148l-115 -655h-147zM647 778l115 656h147l-114 -656h-148z" />
    <glyph glyph-name="section" unicode="&#xa7;" horiz-adv-x="1050" 
d="M791 1509q208 0 323.5 -91.5t91.5 -223.5h-157q9 54 -39 95.5t-114.5 60t-129.5 18.5q-269 0 -299 -174q-10 -54 22 -87.5t84.5 -46.5t131.5 -16q36 -2 68.5 -5t70.5 -9t69.5 -15t65 -22t57 -30t46 -40t32 -51t14.5 -63.5t-6 -77.5q-23 -125 -176 -215q127 -65 101 -227
q-25 -138 -169.5 -229t-336.5 -91q-206 0 -322 91.5t-94 222.5h158q-9 -53 38.5 -94t114 -59.5t129.5 -18.5q49 0 93.5 8t90 26.5t76.5 55t41 88.5q13 72 -40.5 107t-155.5 40q-77 3 -131.5 8.5t-129.5 24.5t-119.5 49t-70.5 87t-12 134q10 65 60 126t122 102
q-132 66 -102 227q25 138 167.5 226.5t336.5 88.5zM948 754q7 40 -20 71t-73 47t-90 23.5t-81 7.5q-269 0 -299 -172q-6 -32 4.5 -57.5t34.5 -41.5t52.5 -27.5t64 -17.5t63 -8.5t55.5 -3.5q46 -2 90.5 6.5t87 28t72.5 57t39 87.5z" />
    <glyph glyph-name="dieresis" unicode="&#xa8;" horiz-adv-x="581" 
d="M436 1536q-38 0 -61 28t-17 66q8 38 40.5 66t70.5 28q40 0 63 -28t15 -66q-6 -38 -38.5 -66t-72.5 -28zM686 1536q-38 0 -61 28t-17 66q8 38 40.5 66t70.5 28q40 0 63 -28t15 -66q-6 -38 -38.5 -66t-72.5 -28z" />
    <glyph glyph-name="copyright" unicode="&#xa9;" horiz-adv-x="1703" 
d="M1065 1317q278 0 414.5 -164t89.5 -436t-243 -436t-474 -164t-414.5 164t-89.5 436t243 436t474 164zM868 203q134 0 262.5 63.5t223.5 183t121 267.5q20 112 -6 209.5t-86 163.5t-147 103.5t-187 37.5q-134 0 -262.5 -63.5t-223.5 -183t-121 -267.5q-19 -112 7 -209.5
t85.5 -163.5t146.5 -103.5t187 -37.5zM907 362q-150 0 -232.5 95.5t-53.5 257.5t144.5 257t266.5 95q226 0 275 -207h-113q-29 121 -176 121q-95 0 -176 -76.5t-103 -189.5q-20 -113 35 -191t150 -78q142 0 219 123h112q-121 -207 -348 -207z" />
    <glyph glyph-name="ordfeminine" unicode="&#xaa;" horiz-adv-x="731" 
d="M592 1393q143 0 199.5 -53t33.5 -179l-69 -395h-68l-16 199h-15q-54 -97 -133 -156t-162 -59q-76 0 -118.5 44.5t-26.5 131.5q18 85 94 132.5t178 55.5q97 9 197 -6l8 45q14 81 -17.5 113t-101.5 32q-62 0 -129 -33t-120 -77l4 100q35 26 51.5 37t53 31t75 28.5t82.5 8.5
zM666 985l14 86q-120 15 -203 -4q-66 -14 -98.5 -59t-28.5 -90q2 -32 24.5 -53t57.5 -21q60 0 128 40.5t106 100.5z" />
    <glyph glyph-name="guillemotleft" unicode="&#xab;" horiz-adv-x="1171" 
d="M616 356l-24 -147l-303 295l26 147l406 295l-25 -145l-243 -223zM911 356l-26 -147l-303 295l26 147l406 295l-25 -145l-244 -223z" />
    <glyph glyph-name="logicalnot" unicode="&#xac;" horiz-adv-x="1009" 
d="M752 51l73 418h-665l30 172h838l-104 -590h-172z" />
    <glyph glyph-name="registered" unicode="&#xae;" horiz-adv-x="1703" 
d="M1065 1317q278 0 414.5 -164t89.5 -436t-243 -436t-474 -164t-414.5 164t-89.5 436t243 436t474 164zM868 203q134 0 262.5 63.5t223.5 183t121 267.5q20 112 -6 209.5t-86 163.5t-147 103.5t-187 37.5q-134 0 -262.5 -63.5t-223.5 -183t-121 -267.5q-19 -112 7 -209.5
t85.5 -163.5t146.5 -103.5t187 -37.5zM1262 838q-13 -79 -74 -139t-150 -64l166 -252h-112l-220 332h168q51 0 91.5 37.5t48.5 85.5q9 47 -18 85t-79 38h-202l-103 -578h-106l114 655h312q94 0 136.5 -59.5t27.5 -140.5z" />
    <glyph glyph-name="macron" unicode="&#xaf;" horiz-adv-x="602" 
d="M326 1667h524l-23 -131h-526z" />
    <glyph glyph-name="degree" unicode="&#xb0;" horiz-adv-x="804" 
d="M614 1393q92 0 138.5 -55t29.5 -146q-15 -91 -80 -146t-159 -55q-92 0 -138.5 55t-29.5 146q15 91 80 146t159 55zM557 1075q48 0 89 33t50 84t-20.5 84t-75.5 33q-48 0 -89 -33t-50 -84t20.5 -84t75.5 -33z" />
    <glyph glyph-name="plusminus" unicode="&#xb1;" horiz-adv-x="1171" 
d="M590 469h-160l31 172h160l28 160h174l-28 -160h159l-30 -172h-160l-29 -160h-174zM391 244h492l-31 -174h-492z" />
    <glyph glyph-name="twosuperior" unicode="&#xb2;" horiz-adv-x="716" 
d="M745 801h-518l17 100q12 69 66 119t123 76.5t137 47t117.5 46t55.5 59.5q9 54 -35 88t-118 31t-122 -34.5t-58 -86.5h-105q14 83 98.5 143t200.5 60q138 0 198 -56t46 -145q-10 -58 -62.5 -98.5t-120.5 -64t-136 -45t-119.5 -54.5t-59.5 -80l-6 -28h416z" />
    <glyph glyph-name="threesuperior" unicode="&#xb3;" horiz-adv-x="716" 
d="M481 797q-126 0 -191 57t-48 152h96q-9 -59 37.5 -96.5t128.5 -37.5q73 0 126 35t64 101q8 47 -12 68.5t-72 21.5h-88l13 71h88q52 0 79.5 22.5t36.5 70.5q11 66 -29.5 99.5t-113.5 33.5q-82 0 -142.5 -37t-70.5 -94h-94q15 94 100 150t211 56q122 0 185 -57.5t46 -152.5
q-10 -50 -60.5 -87.5t-127.5 -37.5q79 0 115 -38t28 -89q-17 -95 -100.5 -153t-204.5 -58z" />
    <glyph glyph-name="acute" unicode="&#xb4;" horiz-adv-x="479" 
d="M717 1759l-250 -221h-125l156 221h219z" />
    <glyph glyph-name="paragraph" unicode="&#xb6;" horiz-adv-x="1341" 
d="M446 1067q29 162 146.5 264.5t261.5 102.5h627l-254 -1434h-234l228 1280h-76l-225 -1280h-234l123 698h-84q-145 0 -226.5 103.5t-52.5 265.5z" />
    <glyph glyph-name="periodcentered" unicode="&#xb7;" horiz-adv-x="548" 
d="M379 649q-57 0 -90 40t-23 97q9 57 57 97.5t105 40.5t90 -40.5t23 -97.5q-9 -57 -57 -97t-105 -40z" />
    <glyph glyph-name="cedilla" unicode="&#xb8;" horiz-adv-x="417" 
d="M301 -236q-30 -78 -106.5 -122t-188.5 -13l25 60q63 -21 107 1.5t67 76.5q3 8 5.5 14.5t5 18t0 19t-7.5 17.5t-18.5 14t-33 7.5t-50.5 -2.5l60 143h108l-43 -86q45 0 66 -22.5t20 -54t-16 -71.5z" />
    <glyph glyph-name="onesuperior" unicode="&#xb9;" horiz-adv-x="540" 
d="M461 1436h141l-110 -635h-95l95 540h-48z" />
    <glyph glyph-name="ordmasculine" unicode="&#xba;" horiz-adv-x="770" 
d="M344 1128q28 159 110 243.5t214 84.5q133 0 185 -84.5t24 -243.5t-110 -243t-214 -84t-184.5 84.5t-24.5 242.5zM651 1360q-47 0 -84 -20t-60 -54.5t-37 -73t-21 -84.5q-41 -231 120 -231q62 0 106.5 35.5t65.5 84t31 111.5q41 232 -121 232z" />
    <glyph glyph-name="guillemotright" unicode="&#xbb;" horiz-adv-x="1171" 
d="M680 356l242 222l-164 223l26 145l301 -295l-24 -147l-408 -295zM387 356l242 222l-164 223l27 145l301 -295l-27 -147l-406 -295z" />
    <glyph glyph-name="onequarter" unicode="&#xbc;" horiz-adv-x="2414" 
d="M309 -102l1102 1536h145l-1101 -1536h-146zM664 1436h178l-140 -793h-118l118 674h-59zM901 231l17 95l579 530h117l-92 -530h71l-18 -95h-70l-30 -168h-117l28 168h-485zM1057 326h346l65 366z" />
    <glyph glyph-name="onehalf" unicode="&#xbd;" horiz-adv-x="2426" 
d="M309 -102l1102 1536h145l-1101 -1536h-146zM664 1436h178l-140 -793h-118l118 674h-59zM1649 63h-641l22 125q11 62 49.5 111.5t91.5 81t115 56t122.5 43.5t111.5 37.5t85.5 43t39.5 55.5q12 67 -42 109t-147 37q-92 -3 -150.5 -41.5t-70.5 -106.5h-129q18 104 121 178
t248 74q170 0 244.5 -70t54.5 -180q-12 -71 -76.5 -121.5t-149 -79t-168.5 -55t-147 -67.5t-74 -98l-6 -37h512z" />
    <glyph glyph-name="threequarters" unicode="&#xbe;" horiz-adv-x="1572" 
d="M528 618q-152 0 -230 69t-58 183h116q-12 -70 44.5 -114.5t156.5 -44.5q89 0 152 40t77 121q9 58 -14.5 84.5t-85.5 26.5h-108l16 86h106q63 0 97 27t43 84q14 81 -34 122t-138 41q-99 0 -171.5 -45.5t-84.5 -115.5h-117q20 115 123 183.5t254 68.5q147 0 223.5 -69.5
t56.5 -184.5q-11 -62 -72.5 -108t-154.5 -46q96 0 140 -45.5t32 -106.5q-20 -116 -121.5 -186t-247.5 -70zM303 -102l1102 1536h147l-1101 -1536h-148zM829 231l17 95l579 530h119l-94 -530h72l-17 -95h-71l-31 -168h-117l29 168h-486zM985 326h348l64 366z" />
    <glyph glyph-name="questiondown" unicode="&#xbf;" horiz-adv-x="1269" 
d="M616 600h175q-12 -70 -40.5 -123t-66 -86t-80 -59.5t-85 -51.5t-79 -54t-64 -76t-38.5 -109q-7 -40 -7 -74t5.5 -59.5t17.5 -46.5t26.5 -35.5t34.5 -25t40 -17t44 -10.5t45 -5t46 -1q71 0 142.5 30.5t131 100t76.5 163.5h193q-37 -218 -183 -337t-389 -119
q-249 0 -356 106t-66 334q14 77 45.5 137.5t71.5 97.5t85.5 66.5t90 54t82.5 50t65.5 63t36.5 86.5zM727 762q-57 0 -90.5 41t-24.5 98q11 58 58 97.5t106 39.5q57 0 90 -40t23 -97q-11 -57 -58 -98t-104 -41z" />
    <glyph glyph-name="Agrave" unicode="&#xc0;" horiz-adv-x="1521" 
d="M788 1434h451l283 -1434h-240l-63 317h-803l-174 -317h-242zM498 469h692l-174 924h-21zM795 1755h219l76 -221h-123z" />
    <glyph glyph-name="Aacute" unicode="&#xc1;" horiz-adv-x="1521" 
d="M788 1434h451l283 -1434h-240l-63 317h-803l-174 -317h-242zM498 469h692l-174 924h-21zM1313 1755l-250 -221h-125l156 221h219z" />
    <glyph glyph-name="Acircumflex" unicode="&#xc2;" horiz-adv-x="1521" 
d="M788 1434h451l283 -1434h-240l-63 317h-803l-174 -317h-242zM498 469h692l-174 924h-21zM870 1534h-100l244 240h98l160 -240h-101l-127 137z" />
    <glyph glyph-name="Atilde" unicode="&#xc3;" horiz-adv-x="1521" 
d="M788 1434h451l283 -1434h-240l-63 317h-803l-174 -317h-242zM498 469h692l-174 924h-21zM764 1630q53 47 108 66.5t100.5 15t97.5 -15.5t97.5 -24t102 -11t108.5 25q10 3 20 -3t7 -18q-3 -20 -35 -49q-50 -44 -100 -65t-93 -21t-85 9t-83 21t-81 20t-85 2t-89 -30
q-12 -8 -22 1t-7 26q9 28 39 51z" />
    <glyph glyph-name="Adieresis" unicode="&#xc4;" horiz-adv-x="1521" 
d="M788 1434h451l283 -1434h-240l-63 317h-803l-174 -317h-242zM498 469h692l-174 924h-21zM895 1534q-38 0 -61 27t-17 67q8 38 40.5 66t70.5 28q40 0 63 -28t15 -66q-6 -39 -38.5 -66.5t-72.5 -27.5zM1145 1534q-39 0 -61 27.5t-15 66.5q6 38 38.5 66t72.5 28
q38 0 60.5 -28t14.5 -66q-6 -40 -38 -67t-72 -27z" />
    <glyph glyph-name="Aring" unicode="&#xc5;" horiz-adv-x="1521" 
d="M788 1434h451l283 -1434h-240l-63 317h-803l-174 -317h-242zM498 469h692l-174 924h-21zM1069 1815q65 0 97.5 -39t21.5 -103q-11 -63 -56.5 -101t-111.5 -38q-65 0 -97 38t-20 101q11 63 56.5 102.5t109.5 39.5zM1030 1591q33 0 61.5 23t34.5 59t-14 59t-53 23
q-32 0 -60.5 -23t-35.5 -59q-6 -36 14.5 -59t52.5 -23z" />
    <glyph glyph-name="AE" unicode="&#xc6;" horiz-adv-x="1859" 
d="M0 0l784 1438h1287l-35 -205h-819l-74 -424h682l-31 -180h-682l-74 -424h820l-35 -205h-1053l55 317h-411l-172 -317h-242zM993 1397l-495 -928h354l160 928h-19z" />
    <glyph glyph-name="Ccedilla" unicode="&#xc7;" horiz-adv-x="1492" 
d="M1004 1278q-218 0 -388.5 -157t-212.5 -404q-29 -163 15 -291.5t147.5 -199t247.5 -70.5q152 0 299 72.5t213 199.5h203q-108 -240 -292.5 -349.5t-455.5 -109.5q-228 0 -380.5 93t-212 262t-19.5 393q61 342 292.5 544.5t575.5 202.5q272 0 421 -109.5t173 -348.5h-203
q-37 129 -155.5 200.5t-267.5 71.5zM877 -211q-31 -79 -107.5 -122t-187.5 -11l24 57q63 -21 107 1.5t67 76.5q3 8 5 13t4.5 15.5t2 17t-3 16.5t-10.5 14.5t-19.5 10.5t-31 4.5l-45.5 -3.5l59 144h109l-43 -84q45 0 66 -22.5t20 -54t-16 -73.5z" />
    <glyph glyph-name="Egrave" unicode="&#xc8;" horiz-adv-x="1165" 
d="M1124 0h-1052l252 1434h1052l-35 -205h-819l-76 -422h682l-30 -180h-682l-74 -422h817zM623 1757h219l76 -221h-123z" />
    <glyph glyph-name="Eacute" unicode="&#xc9;" horiz-adv-x="1165" 
d="M1124 0h-1052l252 1434h1052l-35 -205h-819l-76 -422h682l-30 -180h-682l-74 -422h817zM1141 1757l-250 -221h-123l154 221h219z" />
    <glyph glyph-name="Ecircumflex" unicode="&#xca;" horiz-adv-x="1165" 
d="M1124 0h-1052l252 1434h1052l-35 -205h-819l-76 -422h682l-30 -180h-682l-74 -422h817zM698 1536h-100l244 240h100l158 -240h-101l-127 139z" />
    <glyph glyph-name="Edieresis" unicode="&#xcb;" horiz-adv-x="1165" 
d="M1124 0h-1052l252 1434h1052l-35 -205h-819l-76 -422h682l-30 -180h-682l-74 -422h817zM723 1536q-38 0 -60.5 28t-15.5 66q6 38 38.5 66t72.5 28q38 0 60.5 -28t15.5 -66q-6 -38 -38.5 -66t-72.5 -28zM975 1536q-40 0 -63 28t-15 66q6 38 38.5 66t72.5 28q38 0 60.5 -28
t16.5 -66q-8 -38 -40 -66t-70 -28z" />
    <glyph glyph-name="Igrave" unicode="&#xcc;" horiz-adv-x="376" 
d="M72 0l252 1434h233l-252 -1434h-233zM227 1757h219l78 -221h-123z" />
    <glyph glyph-name="Iacute" unicode="&#xcd;" horiz-adv-x="376" 
d="M72 0l252 1434h233l-252 -1434h-233zM748 1757l-252 -221h-123l155 221h220z" />
    <glyph glyph-name="Icircumflex" unicode="&#xce;" horiz-adv-x="376" 
d="M72 0l252 1434h233l-252 -1434h-233zM303 1536h-98l241 240h101l158 -240h-99l-127 139z" />
    <glyph glyph-name="Idieresis" unicode="&#xcf;" horiz-adv-x="376" 
d="M72 0l252 1434h233l-252 -1434h-233zM330 1536q-38 0 -61 28t-17 66q8 38 40 66t70 28q39 0 61.5 -27.5t16.5 -66.5q-6 -38 -39 -66t-71 -28zM580 1536q-38 0 -61 28t-17 66q8 38 40 66t70 28q40 0 63 -28t15 -66q-6 -38 -39 -66t-71 -28z" />
    <glyph glyph-name="Eth" unicode="&#xd0;" horiz-adv-x="1542" 
d="M283 678h-127l30 174h127l103 582h610q146 0 269 -57t202.5 -153t113 -228.5t7.5 -278.5t-106.5 -279t-193.5 -229t-255.5 -152.5t-288.5 -56.5h-610zM647 678h-131l-88 -506h377q129 0 261 80.5t224 207t115 257.5q17 98 -7 197t-79 175.5t-140 124.5t-182 48h-376
l-74 -410h131z" />
    <glyph glyph-name="Ntilde" unicode="&#xd1;" horiz-adv-x="1447" 
d="M1151 45l244 1389h233l-252 -1434h-452l-355 1389h-20l-244 -1389h-233l252 1434h454l352 -1389h21zM735 1634q53 47 108 66.5t101 14.5t98 -16.5t97.5 -24.5t102 -11t108.5 25q10 5 19.5 -1.5t6.5 -19.5q-3 -20 -35 -49q-58 -50 -116.5 -70t-105 -14.5t-98 18
t-95.5 25.5t-97.5 9t-103.5 -32q-12 -6 -22 3t-7 26q8 24 39 51z" />
    <glyph glyph-name="Ograve" unicode="&#xd2;" horiz-adv-x="1603" 
d="M1059 1464q229 0 385.5 -92.5t220 -261.5t23.5 -393q-59 -339 -302.5 -543.5t-588.5 -204.5q-229 0 -385.5 92.5t-220 262t-23.5 393.5q60 339 303 543t588 204zM825 141q110 0 213 37.5t190 108.5t150 182t88 248q23 141 0 248.5t-85.5 180t-152 109.5t-198.5 37
q-110 0 -213 -37.5t-190 -108t-149.5 -181.5t-86.5 -248q-24 -141 -1 -249t85 -180.5t151.5 -109.5t198.5 -37zM844 1757h219l78 -221h-125z" />
    <glyph glyph-name="Oacute" unicode="&#xd3;" horiz-adv-x="1603" 
d="M1059 1464q229 0 385.5 -92.5t220 -261.5t23.5 -393q-59 -339 -302.5 -543.5t-588.5 -204.5q-229 0 -385.5 92.5t-220 262t-23.5 393.5q60 339 303 543t588 204zM825 141q110 0 213 37.5t190 108.5t150 182t88 248q23 141 0 248.5t-85.5 180t-152 109.5t-198.5 37
q-110 0 -213 -37.5t-190 -108t-149.5 -181.5t-86.5 -248q-24 -141 -1 -249t85 -180.5t151.5 -109.5t198.5 -37zM1364 1757l-252 -221h-123l154 221h221z" />
    <glyph glyph-name="Ocircumflex" unicode="&#xd4;" horiz-adv-x="1603" 
d="M1059 1464q229 0 385.5 -92.5t220 -261.5t23.5 -393q-59 -339 -302.5 -543.5t-588.5 -204.5q-229 0 -385.5 92.5t-220 262t-23.5 393.5q60 339 303 543t588 204zM825 141q110 0 213 37.5t190 108.5t150 182t88 248q23 141 0 248.5t-85.5 180t-152 109.5t-198.5 37
q-110 0 -213 -37.5t-190 -108t-149.5 -181.5t-86.5 -248q-24 -141 -1 -249t85 -180.5t151.5 -109.5t198.5 -37zM920 1536h-101l244 240h100l158 -240h-100l-125 139z" />
    <glyph glyph-name="Otilde" unicode="&#xd5;" horiz-adv-x="1603" 
d="M1059 1464q229 0 385.5 -92.5t220 -261.5t23.5 -393q-59 -339 -302.5 -543.5t-588.5 -204.5q-229 0 -385.5 92.5t-220 262t-23.5 393.5q60 339 303 543t588 204zM825 141q110 0 213 37.5t190 108.5t150 182t88 248q23 141 0 248.5t-85.5 180t-152 109.5t-198.5 37
q-110 0 -213 -37.5t-190 -108t-149.5 -181.5t-86.5 -248q-24 -141 -1 -249t85 -180.5t151.5 -109.5t198.5 -37zM813 1634q53 47 108.5 66.5t101.5 14.5t98 -16.5t97 -24.5t101 -11t108 25q11 5 21.5 -1.5t7.5 -19.5q-6 -24 -37 -49q-58 -50 -116.5 -70t-105 -14.5t-97.5 18
t-95 25.5t-97.5 9t-104.5 -32q-12 -6 -21.5 3t-5.5 26q4 18 37 51z" />
    <glyph glyph-name="Odieresis" unicode="&#xd6;" horiz-adv-x="1603" 
d="M1059 1464q229 0 385.5 -92.5t220 -261.5t23.5 -393q-59 -339 -302.5 -543.5t-588.5 -204.5q-229 0 -385.5 92.5t-220 262t-23.5 393.5q60 339 303 543t588 204zM825 141q110 0 213 37.5t190 108.5t150 182t88 248q23 141 0 248.5t-85.5 180t-152 109.5t-198.5 37
q-110 0 -213 -37.5t-190 -108t-149.5 -181.5t-86.5 -248q-24 -141 -1 -249t85 -180.5t151.5 -109.5t198.5 -37zM946 1536q-40 0 -63 28t-15 66q6 38 39.5 66t71.5 28t61 -28t17 -66q-8 -38 -40.5 -66t-70.5 -28zM1196 1536q-39 0 -61.5 27.5t-16.5 66.5q6 38 39.5 66
t71.5 28t61 -28t17 -66q-8 -38 -40.5 -66t-70.5 -28z" />
    <glyph glyph-name="multiply" unicode="&#xd7;" horiz-adv-x="1171" 
d="M477 668l144 123l94 -113l131 113l102 -123l-133 -113l92 -113l-143 -123l-94 113l-131 -113l-103 123l133 113z" />
    <glyph glyph-name="Oslash" unicode="&#xd8;" horiz-adv-x="1624" 
d="M1069 1464q229 0 385.5 -92.5t220 -261.5t23.5 -393q-59 -339 -302.5 -543.5t-588.5 -204.5q-229 0 -385.5 92.5t-220 262t-23.5 393.5q60 339 303 543t588 204zM836 141q110 0 213 37.5t190 108.5t150 182t88 248q24 137 0 248t-86 181.5t-152 108t-199 37.5
q-110 0 -213 -37.5t-190 -108t-149.5 -181.5t-86.5 -248q-24 -141 -1 -249t85.5 -180.5t152 -109.5t198.5 -37zM248 0l1202 1536h147l-1202 -1536h-147z" />
    <glyph glyph-name="Ugrave" unicode="&#xd9;" horiz-adv-x="1382" 
d="M1178 578l151 856h234l-152 -856q-26 -148 -96.5 -266t-169.5 -192.5t-216 -113.5t-243 -39t-230 39t-177 113.5t-102 192.5t-3 266l150 856h233l-149 -856q-19 -107 0 -191.5t66 -134.5t109.5 -76t133.5 -26q49 0 101.5 13t110.5 44.5t106.5 78.5t87.5 122.5t55 169.5z
M733 1757h219l78 -221h-123z" />
    <glyph glyph-name="Uacute" unicode="&#xda;" horiz-adv-x="1382" 
d="M1178 578l151 856h234l-152 -856q-26 -148 -96.5 -266t-169.5 -192.5t-216 -113.5t-243 -39t-230 39t-177 113.5t-102 192.5t-3 266l150 856h233l-149 -856q-19 -107 0 -191.5t66 -134.5t109.5 -76t133.5 -26q49 0 101.5 13t110.5 44.5t106.5 78.5t87.5 122.5t55 169.5z
M1253 1757l-252 -221h-122l155 221h219z" />
    <glyph glyph-name="Ucircumflex" unicode="&#xdb;" horiz-adv-x="1382" 
d="M1178 578l151 856h234l-152 -856q-26 -148 -96.5 -266t-169.5 -192.5t-216 -113.5t-243 -39t-230 39t-177 113.5t-102 192.5t-3 266l150 856h233l-149 -856q-19 -107 0 -191.5t66 -134.5t109.5 -76t133.5 -26q49 0 101.5 13t110.5 44.5t106.5 78.5t87.5 122.5t55 169.5z
M809 1536h-98l241 240h101l157 -240h-98l-127 139z" />
    <glyph glyph-name="Udieresis" unicode="&#xdc;" horiz-adv-x="1382" 
d="M1178 578l151 856h234l-152 -856q-26 -148 -96.5 -266t-169.5 -192.5t-216 -113.5t-243 -39t-230 39t-177 113.5t-102 192.5t-3 266l150 856h233l-149 -856q-19 -107 0 -191.5t66 -134.5t109.5 -76t133.5 -26q49 0 101.5 13t110.5 44.5t106.5 78.5t87.5 122.5t55 169.5z
M836 1536q-38 0 -61 28t-17 66q8 38 40 66t70 28q39 0 61.5 -27.5t16.5 -66.5q-6 -38 -39 -66t-71 -28zM1085 1536q-38 0 -60.5 28t-16.5 66q8 38 40 66t70 28q40 0 63 -28t15 -66q-6 -38 -39.5 -66t-71.5 -28z" />
    <glyph glyph-name="Yacute" unicode="&#xdd;" horiz-adv-x="1118" 
d="M739 700l391 734h240l-764 -1434h-241l354 664h-215l-252 770h250l217 -734h20zM1118 1757l-250 -221h-125l156 221h219z" />
    <glyph glyph-name="Thorn" unicode="&#xde;" horiz-adv-x="1150" 
d="M354 713h21q65 149 178.5 236t245.5 87q58 0 111.5 -11t106.5 -36.5t92.5 -66.5t68.5 -100t34 -138t-10 -180q-21 -117 -68.5 -211t-107.5 -153t-133.5 -99t-143 -56t-139.5 -16q-145 0 -230 115.5t-79 294.5h-20l-97 -543h-196l239 1366h213zM608 82q147 0 247.5 120
t133.5 302q17 85 9 161.5t-33 134t-78.5 91t-128.5 33.5q-101 0 -191 -55t-147.5 -143t-75.5 -189q-13 -69 -14 -132t13.5 -123t45.5 -103.5t86.5 -70t132.5 -26.5z" />
    <glyph glyph-name="agrave" unicode="&#xe0;" horiz-adv-x="1009" 
d="M688 1036q100 0 177.5 -22.5t131.5 -68t74.5 -120t3.5 -172.5l-117 -653h-110l-29 328q-59 -119 -146.5 -198.5t-179 -112.5t-190.5 -33q-127 0 -194 67.5t-41 210.5q15 72 58 130t105.5 95t135 59t153.5 29q160 14 326 -10l12 74q25 134 -27 188t-169 54
q-106 0 -218 -52t-198 -133l8 168q218 172 434 172zM805 354l24 142q-203 31 -331 2q-109 -26 -162.5 -100t-48.5 -148q5 -55 41 -89t94 -34q102 0 211.5 64t171.5 163zM420 1411h221l76 -221h-123z" />
    <glyph glyph-name="aacute" unicode="&#xe1;" horiz-adv-x="1009" 
d="M688 1036q100 0 177.5 -22.5t131.5 -68t74.5 -120t3.5 -172.5l-117 -653h-110l-29 328q-59 -119 -146.5 -198.5t-179 -112.5t-190.5 -33q-127 0 -194 67.5t-41 210.5q15 72 58 130t105.5 95t135 59t153.5 29q160 14 326 -10l12 74q25 134 -27 188t-169 54
q-106 0 -218 -52t-198 -133l8 168q218 172 434 172zM805 354l24 142q-203 31 -331 2q-109 -26 -162.5 -100t-48.5 -148q5 -55 41 -89t94 -34q102 0 211.5 64t171.5 163zM940 1411l-252 -221h-123l156 221h219z" />
    <glyph glyph-name="acircumflex" unicode="&#xe2;" horiz-adv-x="1009" 
d="M688 1036q100 0 177.5 -22.5t131.5 -68t74.5 -120t3.5 -172.5l-117 -653h-110l-29 328q-59 -119 -146.5 -198.5t-179 -112.5t-190.5 -33q-127 0 -194 67.5t-41 210.5q15 72 58 130t105.5 95t135 59t153.5 29q160 14 326 -10l12 74q25 134 -27 188t-169 54
q-106 0 -218 -52t-198 -133l8 168q218 172 434 172zM805 354l24 142q-203 31 -331 2q-109 -26 -162.5 -100t-48.5 -148q5 -55 41 -89t94 -34q102 0 211.5 64t171.5 163zM496 1190h-99l242 240h100l158 -240h-98l-127 139z" />
    <glyph glyph-name="atilde" unicode="&#xe3;" horiz-adv-x="1009" 
d="M688 1036q100 0 177.5 -22.5t131.5 -68t74.5 -120t3.5 -172.5l-117 -653h-110l-29 328q-59 -119 -146.5 -198.5t-179 -112.5t-190.5 -33q-127 0 -194 67.5t-41 210.5q15 72 58 130t105.5 95t135 59t153.5 29q160 14 326 -10l12 74q25 134 -27 188t-169 54
q-106 0 -218 -52t-198 -133l8 168q218 172 434 172zM805 354l24 142q-203 31 -331 2q-109 -26 -162.5 -100t-48.5 -148q5 -55 41 -89t94 -34q102 0 211.5 64t171.5 163zM545 1452q39 40 78.5 56.5t72 12t69.5 -14t69 -20.5t72.5 -9.5t78.5 20.5q6 5 14 0t5 -16
q-2 -15 -27 -43q-43 -42 -85 -59t-75 -12t-69.5 15t-67.5 21t-69.5 8t-75.5 -27q-9 -6 -15.5 2t-3.5 21q5 21 29 45z" />
    <glyph glyph-name="adieresis" unicode="&#xe4;" horiz-adv-x="1009" 
d="M688 1036q100 0 177.5 -22.5t131.5 -68t74.5 -120t3.5 -172.5l-117 -653h-110l-29 328q-59 -119 -146.5 -198.5t-179 -112.5t-190.5 -33q-127 0 -194 67.5t-41 210.5q15 72 58 130t105.5 95t135 59t153.5 29q160 14 326 -10l12 74q25 134 -27 188t-169 54
q-106 0 -218 -52t-198 -133l8 168q218 172 434 172zM805 354l24 142q-203 31 -331 2q-109 -26 -162.5 -100t-48.5 -148q5 -55 41 -89t94 -34q102 0 211.5 64t171.5 163zM522 1190q-38 0 -61 28t-17 66q8 38 40.5 66t70.5 28q40 0 63 -28t15 -66q-6 -38 -39.5 -66t-71.5 -28z
M772 1190q-38 0 -61 28t-17 66q8 38 40.5 66t70.5 28q40 0 63 -28t15 -66q-6 -38 -38.5 -66t-72.5 -28z" />
    <glyph glyph-name="aring" unicode="&#xe5;" horiz-adv-x="1009" 
d="M688 1036q100 0 177.5 -22.5t131.5 -68t74.5 -120t3.5 -172.5l-117 -653h-110l-29 328q-59 -119 -146.5 -198.5t-179 -112.5t-190.5 -33q-127 0 -194 67.5t-41 210.5q15 72 58 130t105.5 95t135 59t153.5 29q160 14 326 -10l12 74q25 134 -27 188t-169 54
q-106 0 -218 -52t-198 -133l8 168q218 172 434 172zM805 354l24 142q-203 31 -331 2q-109 -26 -162.5 -100t-48.5 -148q5 -55 41 -89t94 -34q102 0 211.5 64t171.5 163zM696 1470q66 0 98 -38t21 -101q-10 -64 -56.5 -102.5t-111.5 -38.5t-97 38.5t-20 102.5q10 63 55.5 101
t110.5 38zM657 1249q33 0 62 23t35 59q6 34 -14.5 57t-53.5 23q-32 0 -60.5 -23t-35.5 -57q-6 -36 14.5 -59t52.5 -23z" />
    <glyph glyph-name="ae" unicode="&#xe6;" horiz-adv-x="2068" 
d="M354 -16q-127 0 -194 67.5t-41 210.5q15 72 58 130t105.5 95t135 59t153.5 29q160 14 326 -10l12 74q25 134 -27.5 189t-168.5 55q-105 0 -217 -53t-199 -134l8 168q218 172 434 172q168 0 271 -62t120 -190q94 123 237 187.5t310 64.5q273 0 383.5 -161.5t53.5 -440.5
h-900q-11 -59 2 -116.5t48 -105t101.5 -77t154.5 -29.5q51 0 93.5 5t77.5 18t57 22.5t50 31.5t37 30t35 33h190q-115 -114 -159 -149q-123 -97 -276 -120q-58 -8 -126 -8q-157 0 -277.5 58t-177.5 168l-34 -195h-111l-29 328q-59 -119 -146.5 -198.5t-179 -112.5t-190.5 -33
zM1651 895q-90 -1 -168 -34.5t-128 -85.5t-81 -108t-41 -110h709q7 27 2.5 63t-13 73.5t-32.5 74t-55 65t-81.5 45.5t-111.5 17zM549 498q-109 -26 -162.5 -100t-48.5 -148q5 -55 41 -89t94 -34q102 0 211.5 64t171.5 163l25 142q-203 31 -332 2z" />
    <glyph glyph-name="ccedilla" unicode="&#xe7;" horiz-adv-x="1060" 
d="M567 -31q-86 0 -159 19.5t-125 54.5t-91 84t-58 108.5t-24 127.5t9 141q19 110 71.5 206t132.5 169t192 115t241 42q91 0 164 -26.5t114 -63t70 -84t39 -79.5t14 -60h-211q-4 28 -14.5 54t-32.5 54t-65.5 45t-102.5 17q-45 0 -92.5 -14t-97 -44.5t-91 -75t-74 -111
t-46.5 -146.5q-17 -98 0.5 -175.5t59.5 -122.5t94.5 -68t109.5 -23q117 0 180 45t94 125h211q-14 -33 -37 -69t-67.5 -81.5t-99 -80.5t-135.5 -59t-173 -24zM666 -207q-30 -78 -106.5 -122t-188.5 -13l24 59q63 -21 107 1.5t67 76.5q4 8 6 14.5t4.5 18t0.5 19t-7.5 18
t-18.5 14t-32.5 7t-50.5 -2.5l61 144h109l-43 -84q34 0 54 -12.5t25.5 -35t2.5 -47.5t-14 -55z" />
    <glyph glyph-name="egrave" unicode="&#xe8;" horiz-adv-x="1177" 
d="M119 504q31 170 130 292t237 181t300 59q273 0 383.5 -161.5t53.5 -440.5h-899q-12 -66 -0.5 -117.5t39.5 -89t70.5 -62t92 -36.5t105.5 -12q118 0 208 49t140 129h211q-96 -146 -243.5 -236t-338.5 -90q-125 0 -224.5 34.5t-167 100.5t-94 168.5t-3.5 231.5zM342 557
h684q7 27 4.5 63t-8.5 73.5t-26 74t-48.5 65t-76.5 45.5t-109 17q-91 -1 -169 -34.5t-128.5 -85.5t-81.5 -108t-41 -110zM524 1411h221l76 -221h-123z" />
    <glyph glyph-name="eacute" unicode="&#xe9;" horiz-adv-x="1177" 
d="M119 504q31 170 130 292t237 181t300 59q273 0 383.5 -161.5t53.5 -440.5h-899q-12 -66 -0.5 -117.5t39.5 -89t70.5 -62t92 -36.5t105.5 -12q118 0 208 49t140 129h211q-96 -146 -243.5 -236t-338.5 -90q-125 0 -224.5 34.5t-167 100.5t-94 168.5t-3.5 231.5zM342 557
h684q7 27 4.5 63t-8.5 73.5t-26 74t-48.5 65t-76.5 45.5t-109 17q-91 -1 -169 -34.5t-128.5 -85.5t-81.5 -108t-41 -110zM1044 1411l-249 -221h-125l155 221h219z" />
    <glyph glyph-name="ecircumflex" unicode="&#xea;" horiz-adv-x="1177" 
d="M119 504q31 170 130 292t237 181t300 59q273 0 383.5 -161.5t53.5 -440.5h-899q-12 -66 -0.5 -117.5t39.5 -89t70.5 -62t92 -36.5t105.5 -12q118 0 208 49t140 129h211q-96 -146 -243.5 -236t-338.5 -90q-125 0 -224.5 34.5t-167 100.5t-94 168.5t-3.5 231.5zM342 557
h684q7 27 4.5 63t-8.5 73.5t-26 74t-48.5 65t-76.5 45.5t-109 17q-91 -1 -169 -34.5t-128.5 -85.5t-81.5 -108t-41 -110zM600 1190h-98l241 240h101l157 -240h-98l-127 139z" />
    <glyph glyph-name="edieresis" unicode="&#xeb;" horiz-adv-x="1177" 
d="M119 504q31 170 130 292t237 181t300 59q273 0 383.5 -161.5t53.5 -440.5h-899q-12 -66 -0.5 -117.5t39.5 -89t70.5 -62t92 -36.5t105.5 -12q118 0 208 49t140 129h211q-96 -146 -243.5 -236t-338.5 -90q-125 0 -224.5 34.5t-167 100.5t-94 168.5t-3.5 231.5zM342 557
h684q7 27 4.5 63t-8.5 73.5t-26 74t-48.5 65t-76.5 45.5t-109 17q-91 -1 -169 -34.5t-128.5 -85.5t-81.5 -108t-41 -110zM627 1190q-38 0 -61 28t-17 66q8 38 40 66t70 28q40 0 63 -28t15 -66q-6 -38 -38 -66t-72 -28zM877 1190q-38 0 -61 28t-17 66q8 38 40 66t70 28
q40 0 63 -28t15 -66q-6 -38 -38 -66t-72 -28z" />
    <glyph glyph-name="igrave" unicode="&#xec;" horiz-adv-x="479" 
d="M201 1006h323l-178 -1006h-213l139 793h-110zM117 1380h219l115 -221h-123z" />
    <glyph glyph-name="iacute" unicode="&#xed;" horiz-adv-x="479" 
d="M201 1006h323l-178 -1006h-213l139 793h-110zM633 1380l-211 -221h-125l117 221h219z" />
    <glyph glyph-name="icircumflex" unicode="&#xee;" horiz-adv-x="479" 
d="M201 1006h323l-178 -1006h-213l139 793h-110zM238 1159h-99l242 240h100l158 -240h-98l-127 139z" />
    <glyph glyph-name="idieresis" unicode="&#xef;" horiz-adv-x="479" 
d="M252 1159q-38 0 -66 28t-28 66t28 66.5t66 28.5q39 0 66.5 -28t27.5 -67t-27.5 -66.5t-66.5 -27.5zM502 1159q-38 0 -66 28t-28 66t28 66.5t66 28.5q39 0 66.5 -28t27.5 -67t-27.5 -66.5t-66.5 -27.5zM201 1006h323l-178 -1006h-213l139 793h-110z" />
    <glyph glyph-name="ntilde" unicode="&#xf1;" 
d="M362 557l-98 -557h-213l178 1006h111l-2 -363q46 172 175.5 281.5t285.5 109.5q148 0 233 -103t60 -251l-121 -680h-211l123 698q18 96 -34 162t-153 66q-105 0 -205.5 -105.5t-128.5 -263.5zM551 1452q39 40 78.5 56.5t72 12t69.5 -14t69 -20.5t72.5 -9.5t78.5 20.5
q6 5 14 0t5 -16q-5 -18 -27 -43q-37 -37 -73 -54.5t-67 -17.5t-60.5 7.5t-59 18t-57.5 16.5t-60.5 1t-64.5 -25q-9 -6 -15.5 2t-3.5 21q5 21 29 45z" />
    <glyph glyph-name="ograve" unicode="&#xf2;" horiz-adv-x="1193" 
d="M780 1036q111 0 206 -37t162 -103.5t95.5 -168t7.5 -223.5q-28 -162 -130.5 -286t-240.5 -186.5t-288 -62.5q-111 0 -206.5 37t-162.5 104t-96 169.5t-8 224.5q28 161 131 284.5t241.5 185.5t288.5 62zM618 125q66 0 132.5 20.5t130 62.5t111 118.5t65.5 177.5
t-2.5 177.5t-69.5 118t-107.5 61.5t-125.5 20q-52 0 -104.5 -11.5t-107.5 -40t-99.5 -70.5t-79 -107.5t-48.5 -147.5q-16 -85 -3 -148.5t41.5 -107.5t73.5 -71.5t93 -39.5t100 -12zM520 1409h219l76 -221h-123z" />
    <glyph glyph-name="oacute" unicode="&#xf3;" horiz-adv-x="1193" 
d="M780 1036q111 0 206 -37t162 -103.5t95.5 -168t7.5 -223.5q-28 -162 -130.5 -286t-240.5 -186.5t-288 -62.5q-111 0 -206.5 37t-162.5 104t-96 169.5t-8 224.5q28 161 131 284.5t241.5 185.5t288.5 62zM618 125q66 0 132.5 20.5t130 62.5t111 118.5t65.5 177.5
t-2.5 177.5t-69.5 118t-107.5 61.5t-125.5 20q-52 0 -104.5 -11.5t-107.5 -40t-99.5 -70.5t-79 -107.5t-48.5 -147.5q-16 -85 -3 -148.5t41.5 -107.5t73.5 -71.5t93 -39.5t100 -12zM1038 1409l-250 -221h-122l153 221h219z" />
    <glyph glyph-name="ocircumflex" unicode="&#xf4;" horiz-adv-x="1193" 
d="M780 1036q111 0 206 -37t162 -103.5t95.5 -168t7.5 -223.5q-28 -162 -130.5 -286t-240.5 -186.5t-288 -62.5q-111 0 -206.5 37t-162.5 104t-96 169.5t-8 224.5q28 161 131 284.5t241.5 185.5t288.5 62zM618 125q66 0 132.5 20.5t130 62.5t111 118.5t65.5 177.5
t-2.5 177.5t-69.5 118t-107.5 61.5t-125.5 20q-52 0 -104.5 -11.5t-107.5 -40t-99.5 -70.5t-79 -107.5t-48.5 -147.5q-16 -85 -3 -148.5t41.5 -107.5t73.5 -71.5t93 -39.5t100 -12zM596 1188h-100l243 239h99l159 -239h-100l-127 137z" />
    <glyph glyph-name="otilde" unicode="&#xf5;" horiz-adv-x="1193" 
d="M780 1036q111 0 206 -37t162 -103.5t95.5 -168t7.5 -223.5q-28 -162 -130.5 -286t-240.5 -186.5t-288 -62.5q-111 0 -206.5 37t-162.5 104t-96 169.5t-8 224.5q28 161 131 284.5t241.5 185.5t288.5 62zM618 125q66 0 132.5 20.5t130 62.5t111 118.5t65.5 177.5
t-2.5 177.5t-69.5 118t-107.5 61.5t-125.5 20q-52 0 -104.5 -11.5t-107.5 -40t-99.5 -70.5t-79 -107.5t-48.5 -147.5q-16 -85 -3 -148.5t41.5 -107.5t73.5 -71.5t93 -39.5t100 -12zM637 1452q39 40 78.5 56.5t72 12t69.5 -14t69 -20.5t72.5 -9.5t78.5 20.5q6 5 14 0t5 -16
q-5 -18 -27 -43q-37 -37 -73 -54.5t-67 -17.5t-60.5 7.5t-59 18t-57.5 16.5t-60.5 1t-64.5 -25q-9 -6 -16 2t-3 21q2 18 29 45z" />
    <glyph glyph-name="odieresis" unicode="&#xf6;" horiz-adv-x="1193" 
d="M780 1036q111 0 206 -37t162 -103.5t95.5 -168t7.5 -223.5q-28 -162 -130.5 -286t-240.5 -186.5t-288 -62.5q-111 0 -206.5 37t-162.5 104t-96 169.5t-8 224.5q28 161 131 284.5t241.5 185.5t288.5 62zM618 125q66 0 132.5 20.5t130 62.5t111 118.5t65.5 177.5
t-2.5 177.5t-69.5 118t-107.5 61.5t-125.5 20q-52 0 -104.5 -11.5t-107.5 -40t-99.5 -70.5t-79 -107.5t-48.5 -147.5q-16 -85 -3 -148.5t41.5 -107.5t73.5 -71.5t93 -39.5t100 -12zM621 1188q-39 0 -61 27.5t-15 66.5q6 38 38 66t72 28q38 0 60.5 -28t15.5 -66
q-6 -40 -38 -67t-72 -27zM872 1188q-40 0 -62 27t-15 67q6 38 38 66t72 28q38 0 61 -28t17 -66q-7 -39 -39.5 -66.5t-71.5 -27.5z" />
    <glyph glyph-name="divide" unicode="&#xf7;" horiz-adv-x="548" 
d="M135 627h492l-31 -172h-492zM281 94q-57 0 -90 40t-23 97q9 57 57 97.5t105 40.5t90 -40.5t22 -97.5q-9 -57 -56.5 -97t-104.5 -40zM385 686q-57 0 -90 40t-23 97q9 57 57 97.5t105 40.5t90 -40.5t23 -97.5q-9 -57 -57 -97t-105 -40z" />
    <glyph glyph-name="oslash" unicode="&#xf8;" horiz-adv-x="1193" 
d="M272 68q-95 70 -136.5 181.5t-16.5 254.5q28 161 131 284.5t241.5 185.5t288.5 62q36 0 54 -2l94 164h147l-110 -190q157 -52 238 -184t48 -320q-28 -162 -130.5 -286t-240.5 -186.5t-288 -62.5q-108 0 -209 37l-45 -61h-148zM469 154q68 -29 149 -29q66 0 132.5 20.5
t130 62.5t111 118.5t65.5 177.5q27 146 -24.5 234t-151.5 122zM582 848q-100 -39 -173 -124.5t-96 -219.5q-32 -176 54 -275l378 652q-84 0 -163 -33z" />
    <glyph glyph-name="ugrave" unicode="&#xf9;" 
d="M838 449l98 557h213l-178 -1006h-111l2 362h-20q-30 -171 -157.5 -281t-283.5 -110q-148 0 -233 103.5t-59 251.5l120 680h211l-123 -699q-18 -96 34 -161.5t153 -65.5q105 0 205.5 105.5t128.5 263.5zM393 1409h219l76 -221h-123z" />
    <glyph glyph-name="uacute" unicode="&#xfa;" 
d="M838 449l98 557h213l-178 -1006h-111l2 362h-20q-30 -171 -157.5 -281t-283.5 -110q-148 0 -233 103.5t-59 251.5l120 680h211l-123 -699q-18 -96 34 -161.5t153 -65.5q105 0 205.5 105.5t128.5 263.5zM911 1409l-249 -221h-125l155 221h219z" />
    <glyph glyph-name="ucircumflex" unicode="&#xfb;" 
d="M838 449l98 557h213l-178 -1006h-111l2 362h-20q-30 -171 -157.5 -281t-283.5 -110q-148 0 -233 103.5t-59 251.5l120 680h211l-123 -699q-18 -96 34 -161.5t153 -65.5q105 0 205.5 105.5t128.5 263.5zM469 1188h-100l243 239h99l159 -239h-100l-127 139z" />
    <glyph glyph-name="udieresis" unicode="&#xfc;" 
d="M838 449l98 557h213l-178 -1006h-111l2 362h-20q-30 -171 -157.5 -281t-283.5 -110q-148 0 -233 103.5t-59 251.5l120 680h211l-123 -699q-18 -96 34 -161.5t153 -65.5q105 0 205.5 105.5t128.5 263.5zM494 1188q-38 0 -60.5 28t-15.5 66q6 38 38 66t72 28q38 0 60.5 -28
t15.5 -66q-6 -38 -38 -66t-72 -28zM743 1188q-38 0 -60.5 28t-14.5 66q6 38 38 66t72 28q38 0 60.5 -28t15.5 -66q-6 -38 -38.5 -66t-72.5 -28z" />
    <glyph glyph-name="yacute" unicode="&#xfd;" horiz-adv-x="1136" 
d="M1110 1006h213l-539 -998q-37 -68 -79 -125t-82 -97.5t-83.5 -72.5t-81.5 -52t-76.5 -34t-69 -20.5t-58.5 -9t-45 -2.5t-29 2q-133 17 -221 109t-86 208h41q23 -88 108.5 -151t192.5 -50q84 11 174.5 84.5t173.5 202.5h-211l-188 1006h213l172 -922h57zM1018 1411
l-250 -221h-125l156 221h219z" />
    <glyph glyph-name="thorn" unicode="&#xfe;" horiz-adv-x="1150" 
d="M354 713h21q65 149 178.5 236t245.5 87q58 0 111.5 -11t106.5 -36.5t92.5 -66.5t68.5 -100t34 -138t-10 -180q-21 -117 -68.5 -211t-107.5 -153t-133.5 -99t-143 -56t-139.5 -16q-145 0 -230 115.5t-79 294.5h-20l-115 -645h-197l277 1571h213zM608 82q147 0 247.5 120
t133.5 302q17 85 9 161.5t-33 134t-78.5 91t-128.5 33.5q-101 0 -191 -55t-147.5 -143t-75.5 -189q-13 -69 -14 -132t13.5 -123t45.5 -103.5t86.5 -70t132.5 -26.5z" />
    <glyph glyph-name="ydieresis" unicode="&#xff;" horiz-adv-x="1136" 
d="M1110 1006h213l-539 -998q-37 -68 -79 -125t-82 -97.5t-83.5 -72.5t-81.5 -52t-76.5 -34t-69 -20.5t-58.5 -9t-45 -2.5t-29 2q-133 17 -221 109t-86 208h41q23 -88 108.5 -151t192.5 -50q84 11 174.5 84.5t173.5 202.5h-211l-188 1006h213l172 -922h57zM600 1190
q-38 0 -61 28t-17 66q8 38 40.5 66t70.5 28q40 0 63 -28t15 -66q-6 -38 -38.5 -66t-72.5 -28zM850 1190q-38 0 -60.5 28t-15.5 66q6 38 38.5 66t72.5 28q38 0 60.5 -28t15.5 -66q-6 -38 -38.5 -66t-72.5 -28z" />
    <glyph glyph-name="Amacron" unicode="&#x100;" horiz-adv-x="1521" 
d="M788 1434h451l283 -1434h-240l-63 317h-803l-174 -317h-242zM498 469h692l-174 924h-21zM559 1710h1008l-31 -172h-1008z" />
    <glyph glyph-name="amacron" unicode="&#x101;" horiz-adv-x="1009" 
d="M688 1036q100 0 177.5 -22.5t131.5 -68t74.5 -120t3.5 -172.5l-117 -653h-110l-29 328q-59 -119 -146.5 -198.5t-179 -112.5t-190.5 -33q-127 0 -194 67.5t-41 210.5q15 72 58 130t105.5 95t135 59t153.5 29q160 14 326 -10l12 74q25 134 -27 188t-169 54
q-106 0 -218 -52t-198 -133l8 168q218 172 434 172zM805 354l24 142q-203 31 -331 2q-109 -26 -162.5 -100t-48.5 -148q5 -55 41 -89t94 -34q102 0 211.5 64t171.5 163zM410 1321h524l-23 -131h-526z" />
    <glyph glyph-name="Abreve" unicode="&#x102;" horiz-adv-x="1521" 
d="M788 1434h451l283 -1434h-240l-63 317h-803l-174 -317h-242zM498 469h692l-174 924h-21zM887 1755l49 -2q-10 -58 18.5 -90t83.5 -35q49 -2 96.5 33t57.5 92l47 2q-20 -102 -75.5 -162t-143.5 -59q-172 0 -133 221z" />
    <glyph glyph-name="abreve" unicode="&#x103;" horiz-adv-x="1009" 
d="M688 1036q100 0 177.5 -22.5t131.5 -68t74.5 -120t3.5 -172.5l-117 -653h-110l-29 328q-59 -119 -146.5 -198.5t-179 -112.5t-190.5 -33q-127 0 -194 67.5t-41 210.5q15 72 58 130t105.5 95t135 59t153.5 29q160 14 326 -10l12 74q25 134 -27 188t-169 54
q-106 0 -218 -52t-198 -133l8 168q218 172 434 172zM805 354l24 142q-203 31 -331 2q-109 -26 -162.5 -100t-48.5 -148q5 -55 41 -89t94 -34q102 0 211.5 64t171.5 163zM514 1411h49q-10 -58 19 -90.5t82 -34.5q51 -2 98 33t57 92h45q-18 -101 -73 -161t-144 -60
q-91 0 -122 59t-11 162z" />
    <glyph glyph-name="Aogonek" unicode="&#x104;" horiz-adv-x="1521" 
d="M788 1434h451l283 -1434h-240l-63 317h-803l-174 -317h-242zM498 469h692l-174 924h-21zM1321 -365q-102 -21 -158 26t-43 122q17 97 90 170.5t181 73.5l-13 -60q-58 0 -96.5 -41t-48.5 -98q-1 -8 -1.5 -11t-1 -13t0.5 -15t4 -13.5t8 -13t13 -10t19.5 -7.5t27.5 -2t36 3z
" />
    <glyph glyph-name="aogonek" unicode="&#x105;" horiz-adv-x="1009" 
d="M688 1036q100 0 177.5 -22.5t131.5 -68t74.5 -120t3.5 -172.5l-117 -653h-110l-29 328q-59 -119 -146.5 -198.5t-179 -112.5t-190.5 -33q-127 0 -194 67.5t-41 210.5q15 72 58 130t105.5 95t135 59t153.5 29q160 14 326 -10l12 74q25 134 -27 188t-169 54
q-106 0 -218 -52t-198 -133l8 168q218 172 434 172zM805 354l24 142q-203 31 -331 2q-109 -26 -162.5 -100t-48.5 -148q5 -55 41 -89t94 -34q102 0 211.5 64t171.5 163zM850 -365q-102 -21 -158 26t-43 122q17 97 90 170.5t181 73.5l-13 -60q-58 0 -96.5 -41t-48.5 -98
q-1 -8 -1.5 -11t-1 -13t0.5 -15t4 -13.5t8 -13t13 -10t19.5 -7.5t27.5 -2t36 3z" />
    <glyph glyph-name="Cacute" unicode="&#x106;" horiz-adv-x="1492" 
d="M1004 1278q-218 0 -388.5 -157t-212.5 -404q-29 -163 15 -291.5t147.5 -199t247.5 -70.5q152 0 299 72.5t213 199.5h203q-108 -240 -292.5 -349.5t-455.5 -109.5q-228 0 -380.5 93t-212 262t-19.5 393q61 342 292.5 544.5t575.5 202.5q272 0 421 -109.5t173 -348.5h-203
q-37 129 -155.5 200.5t-267.5 71.5zM1337 1757l-252 -221h-122l153 221h221z" />
    <glyph glyph-name="cacute" unicode="&#x107;" horiz-adv-x="1060" 
d="M567 -31q-86 0 -159 19.5t-125 54.5t-91 84t-58 108.5t-24 127.5t9 141q19 110 71.5 206t132.5 169t192 115t241 42q91 0 164 -26.5t114 -63t70 -84t39 -79.5t14 -60h-211q-4 28 -14.5 54t-32.5 54t-65.5 45t-102.5 17q-45 0 -92.5 -14t-97 -44.5t-91 -75t-74 -111
t-46.5 -146.5q-17 -98 0.5 -175.5t59.5 -122.5t94.5 -68t109.5 -23q117 0 180 45t94 125h211q-14 -33 -37 -69t-67.5 -81.5t-99 -80.5t-135.5 -59t-173 -24zM1020 1409l-250 -221h-123l154 221h219z" />
    <glyph glyph-name="Ccircumflex" unicode="&#x108;" horiz-adv-x="1492" 
d="M1004 1278q-218 0 -388.5 -157t-212.5 -404q-29 -163 15 -291.5t147.5 -199t247.5 -70.5q152 0 299 72.5t213 199.5h203q-108 -240 -292.5 -349.5t-455.5 -109.5q-228 0 -380.5 93t-212 262t-19.5 393q61 342 292.5 544.5t575.5 202.5q272 0 421 -109.5t173 -348.5h-203
q-37 129 -155.5 200.5t-267.5 71.5zM893 1536h-100l243 240h101l157 -240h-100l-125 139z" />
    <glyph glyph-name="ccircumflex" unicode="&#x109;" horiz-adv-x="1060" 
d="M567 -31q-86 0 -159 19.5t-125 54.5t-91 84t-58 108.5t-24 127.5t9 141q19 110 71.5 206t132.5 169t192 115t241 42q91 0 164 -26.5t114 -63t70 -84t39 -79.5t14 -60h-211q-4 28 -14.5 54t-32.5 54t-65.5 45t-102.5 17q-45 0 -92.5 -14t-97 -44.5t-91 -75t-74 -111
t-46.5 -146.5q-17 -98 0.5 -175.5t59.5 -122.5t94.5 -68t109.5 -23q117 0 180 45t94 125h211q-14 -33 -37 -69t-67.5 -81.5t-99 -80.5t-135.5 -59t-173 -24zM578 1188h-101l244 239h100l158 -239h-100l-127 139z" />
    <glyph glyph-name="Cdotaccent" unicode="&#x10a;" horiz-adv-x="1492" 
d="M1004 1278q-218 0 -388.5 -157t-212.5 -404q-29 -163 15 -291.5t147.5 -199t247.5 -70.5q152 0 299 72.5t213 199.5h203q-108 -240 -292.5 -349.5t-455.5 -109.5q-228 0 -380.5 93t-212 262t-19.5 393q61 342 292.5 544.5t575.5 202.5q272 0 421 -109.5t173 -348.5h-203
q-37 129 -155.5 200.5t-267.5 71.5zM1044 1536q-39 0 -61 27t-16 67q6 38 39 66t71 28t61 -28t17 -66q-7 -39 -39.5 -66.5t-71.5 -27.5z" />
    <glyph glyph-name="cdotaccent" unicode="&#x10b;" horiz-adv-x="1060" 
d="M567 -31q-86 0 -159 19.5t-125 54.5t-91 84t-58 108.5t-24 127.5t9 141q19 110 71.5 206t132.5 169t192 115t241 42q91 0 164 -26.5t114 -63t70 -84t39 -79.5t14 -60h-211q-4 28 -14.5 54t-32.5 54t-65.5 45t-102.5 17q-45 0 -92.5 -14t-97 -44.5t-91 -75t-74 -111
t-46.5 -146.5q-17 -98 0.5 -175.5t59.5 -122.5t94.5 -68t109.5 -23q117 0 180 45t94 125h211q-14 -33 -37 -69t-67.5 -81.5t-99 -80.5t-135.5 -59t-173 -24zM729 1188q-40 0 -63 28t-15 66q6 38 38.5 66t72.5 28q38 0 61 -28t17 -66q-8 -38 -40.5 -66t-70.5 -28z" />
    <glyph glyph-name="Ccaron" unicode="&#x10c;" horiz-adv-x="1492" 
d="M1004 1278q-218 0 -388.5 -157t-212.5 -404q-29 -163 15 -291.5t147.5 -199t247.5 -70.5q152 0 299 72.5t213 199.5h203q-108 -240 -292.5 -349.5t-455.5 -109.5q-228 0 -380.5 93t-212 262t-19.5 393q61 342 292.5 544.5t575.5 202.5q272 0 421 -109.5t173 -348.5h-203
q-37 129 -155.5 200.5t-267.5 71.5zM1237 1776h100l-243 -240h-101l-157 240h100l127 -138z" />
    <glyph glyph-name="ccaron" unicode="&#x10d;" horiz-adv-x="1060" 
d="M567 -31q-86 0 -159 19.5t-125 54.5t-91 84t-58 108.5t-24 127.5t9 141q19 110 71.5 206t132.5 169t192 115t241 42q91 0 164 -26.5t114 -63t70 -84t39 -79.5t14 -60h-211q-4 28 -14.5 54t-32.5 54t-65.5 45t-102.5 17q-45 0 -92.5 -14t-97 -44.5t-91 -75t-74 -111
t-46.5 -146.5q-17 -98 0.5 -175.5t59.5 -122.5t94.5 -68t109.5 -23q117 0 180 45t94 125h211q-14 -33 -37 -69t-67.5 -81.5t-99 -80.5t-135.5 -59t-173 -24zM922 1427h100l-244 -239h-100l-158 239h101l124 -137z" />
    <glyph glyph-name="Dcaron" unicode="&#x10e;" horiz-adv-x="1439" 
d="M934 1434q146 0 269 -57t202.5 -153t113 -228.5t7.5 -278.5t-106.5 -279t-193.5 -229t-255.5 -152.5t-288.5 -56.5h-610l252 1434h610zM713 172q129 0 261 80.5t224 207t115 257.5q17 98 -7 197t-79 175.5t-140 124.5t-182 48h-377l-192 -1090h377zM1053 1776h98
l-244 -240h-98l-160 240h101l127 -138z" />
    <glyph glyph-name="dcaron" unicode="&#x10f;" horiz-adv-x="1447" 
d="M1040 713l142 805h213l-267 -1518h-131v379h-20q-59 -179 -185.5 -294.5t-269.5 -115.5q-58 0 -111.5 11.5t-107 37t-93 66.5t-68 100.5t-34 139t10.5 180.5q21 117 68.5 210.5t107.5 152.5t133.5 98t143 55t139.5 16q131 0 214 -87t95 -236h20zM563 82q95 0 171.5 39
t126.5 106.5t81 144.5t47 165q18 101 -8.5 189t-97 143t-172.5 55q-147 0 -246.5 -120t-132.5 -302q-17 -85 -9 -161.5t33 -134t78.5 -91t128.5 -33.5zM1753 1530l-258 -342h-92l162 342h188z" />
    <glyph glyph-name="Dcroat" unicode="&#x110;" horiz-adv-x="1542" 
d="M264 571h-102l31 172h102l121 691h610q146 0 269 -57t202.5 -153t113 -228.5t7.5 -278.5t-106.5 -279t-193.5 -229t-255.5 -152.5t-288.5 -56.5h-610zM653 571h-155l-70 -399h377q129 0 261 80.5t224 207t115 257.5q17 98 -7 197t-79 175.5t-140 124.5t-182 48h-376
l-93 -519h156z" />
    <glyph glyph-name="dcroat" unicode="&#x111;" horiz-adv-x="1179" 
d="M522 -31q-58 0 -111.5 11.5t-107 37t-93 66.5t-68 100.5t-34 139t10.5 180.5q21 117 68.5 210.5t107.5 152.5t133.5 98t143 55t139.5 16q131 0 214 -87t95 -236h20l95 534h-162l22 133h162l25 138h213l-25 -138h152l-23 -133h-151l-220 -1247h-131v379h-20
q-59 -179 -185.5 -294.5t-269.5 -115.5zM332 504q-17 -86 -9.5 -162.5t33.5 -134.5t79 -91.5t128 -33.5q95 0 171.5 39t126.5 106.5t81 144.5t47 165q18 101 -8.5 189t-97 143t-172.5 55q-99 0 -179.5 -58.5t-129.5 -151.5t-70 -210z" />
    <glyph glyph-name="Emacron" unicode="&#x112;" horiz-adv-x="1298" 
d="M1217 0h-1053l252 1434h1052l-34 -205h-820l-75 -422h682l-31 -180h-682l-74 -422h817zM446 1710h1010l-31 -172h-1009z" />
    <glyph glyph-name="emacron" unicode="&#x113;" horiz-adv-x="1177" 
d="M119 504q31 170 130 292t237 181t300 59q273 0 383.5 -161.5t53.5 -440.5h-899q-12 -66 -0.5 -117.5t39.5 -89t70.5 -62t92 -36.5t105.5 -12q118 0 208 49t140 129h211q-96 -146 -243.5 -236t-338.5 -90q-125 0 -224.5 34.5t-167 100.5t-94 168.5t-3.5 231.5zM342 557
h684q7 27 4.5 63t-8.5 73.5t-26 74t-48.5 65t-76.5 45.5t-109 17q-91 -1 -169 -34.5t-128.5 -85.5t-81.5 -108t-41 -110zM514 1321h524l-22 -131h-527z" />
    <glyph glyph-name="Ebreve" unicode="&#x114;" horiz-adv-x="1165" 
d="M1124 0h-1052l252 1434h1052l-35 -205h-819l-76 -422h682l-30 -180h-682l-74 -422h817zM715 1757h49q-10 -58 18.5 -90.5t83.5 -34.5q51 -2 97.5 33t56.5 92h47q-18 -101 -74 -161t-145 -60q-172 0 -133 221z" />
    <glyph glyph-name="ebreve" unicode="&#x115;" horiz-adv-x="1177" 
d="M119 504q31 170 130 292t237 181t300 59q273 0 383.5 -161.5t53.5 -440.5h-899q-12 -66 -0.5 -117.5t39.5 -89t70.5 -62t92 -36.5t105.5 -12q118 0 208 49t140 129h211q-96 -146 -243.5 -236t-338.5 -90q-125 0 -224.5 34.5t-167 100.5t-94 168.5t-3.5 231.5zM342 557
h684q7 27 4.5 63t-8.5 73.5t-26 74t-48.5 65t-76.5 45.5t-109 17q-91 -1 -169 -34.5t-128.5 -85.5t-81.5 -108t-41 -110zM618 1411h50q-10 -58 18.5 -90.5t81.5 -34.5q51 -2 98.5 33t57.5 92h47q-20 -102 -75 -161.5t-144 -59.5q-91 0 -122.5 59t-11.5 162z" />
    <glyph glyph-name="Edotaccent" unicode="&#x116;" horiz-adv-x="1165" 
d="M1124 0h-1052l252 1434h1052l-35 -205h-819l-76 -422h682l-30 -180h-682l-74 -422h817zM850 1536q-40 0 -62.5 27t-15.5 67q6 38 38.5 66t72.5 28q38 0 61 -28t17 -66q-7 -39 -39.5 -66.5t-71.5 -27.5z" />
    <glyph glyph-name="edotaccent" unicode="&#x117;" horiz-adv-x="1177" 
d="M119 504q31 170 130 292t237 181t300 59q273 0 383.5 -161.5t53.5 -440.5h-899q-12 -66 -0.5 -117.5t39.5 -89t70.5 -62t92 -36.5t105.5 -12q118 0 208 49t140 129h211q-96 -146 -243.5 -236t-338.5 -90q-125 0 -224.5 34.5t-167 100.5t-94 168.5t-3.5 231.5zM342 557
h684q7 27 4.5 63t-8.5 73.5t-26 74t-48.5 65t-76.5 45.5t-109 17q-91 -1 -169 -34.5t-128.5 -85.5t-81.5 -108t-41 -110zM752 1190q-38 0 -61 28t-17 66q8 38 40 66t70 28q40 0 63 -28t15 -66q-6 -38 -38 -66t-72 -28z" />
    <glyph glyph-name="Eogonek" unicode="&#x118;" horiz-adv-x="1165" 
d="M1124 0h-1052l252 1434h1052l-35 -205h-819l-76 -422h682l-30 -180h-682l-74 -422h817z" />
    <glyph glyph-name="eogonek" unicode="&#x119;" horiz-adv-x="1177" 
d="M119 504q31 170 130 292t237 181t300 59q273 0 383.5 -161.5t53.5 -440.5h-899q-12 -66 -0.5 -117.5t39.5 -89t70.5 -62t92 -36.5t105.5 -12q118 0 208 49t140 129h211q-96 -146 -243.5 -236t-338.5 -90q-125 0 -224.5 34.5t-167 100.5t-94 168.5t-3.5 231.5zM342 557
h684q7 27 4.5 63t-8.5 73.5t-26 74t-48.5 65t-76.5 45.5t-109 17q-91 -1 -169 -34.5t-128.5 -85.5t-81.5 -108t-41 -110zM565 -365q-102 -21 -157.5 26t-42.5 122q17 97 89 170.5t179 73.5l-10 -60q-59 0 -97.5 -41t-48.5 -98q-1 -8 -1.5 -11.5t-1 -13t1 -14.5t4 -13.5
t7.5 -13.5t13.5 -10t20 -7t27.5 -2t36 3z" />
    <glyph glyph-name="Ecaron" unicode="&#x11a;" horiz-adv-x="1165" 
d="M1124 0h-1052l252 1434h1052l-35 -205h-819l-76 -422h682l-30 -180h-682l-74 -422h817zM1042 1776h101l-244 -240h-100l-158 240h100l125 -138z" />
    <glyph glyph-name="ecaron" unicode="&#x11b;" horiz-adv-x="1177" 
d="M119 504q31 170 130 292t237 181t300 59q273 0 383.5 -161.5t53.5 -440.5h-899q-12 -66 -0.5 -117.5t39.5 -89t70.5 -62t92 -36.5t105.5 -12q118 0 208 49t140 129h211q-96 -146 -243.5 -236t-338.5 -90q-125 0 -224.5 34.5t-167 100.5t-94 168.5t-3.5 231.5zM342 557
h684q7 27 4.5 63t-8.5 73.5t-26 74t-48.5 65t-76.5 45.5t-109 17q-91 -1 -169 -34.5t-128.5 -85.5t-81.5 -108t-41 -110zM946 1430h98l-241 -240h-101l-157 240h98l127 -138z" />
    <glyph glyph-name="Gcircumflex" unicode="&#x11c;" horiz-adv-x="1540" 
d="M934 717h659l-125 -717h-213l187 545h-19q-12 -41 -27 -82.5t-43.5 -100.5t-63 -110.5t-86.5 -105t-111 -91.5t-139.5 -62t-170.5 -24q-228 0 -381 93t-213 262t-20 393q39 222 170.5 392.5t327 262.5t424.5 92q294 0 552 -149l-135 -207q-204 143 -454 143
q-147 0 -284 -63t-239 -187t-129 -284q-22 -122 2.5 -228t85 -179.5t150.5 -115.5t197 -42q73 0 136.5 14.5t110.5 36t89.5 56.5t70 66t55 75.5t42 74t32.5 70.5h-467zM952 1536h-100l244 240h98l160 -240h-101l-127 139z" />
    <glyph glyph-name="gcircumflex" unicode="&#x11d;" horiz-adv-x="1179" 
d="M1040 627l134 379h131l-154 -879q-21 -117 -77 -220t-140 -180.5t-201 -117.5t-250 -29q-136 13 -217.5 87.5t-60.5 191.5h41q-5 -17 -1.5 -38t9.5 -41.5t26 -40t47 -34.5t71.5 -24t101.5 -9q160 0 278.5 114.5t159.5 344.5l29 162h-21q-65 -150 -178.5 -237t-245.5 -87
q-69 0 -127.5 11.5t-112 36.5t-89.5 66t-61 100.5t-27 138.5t14 180q21 119 63.5 211.5t98 152.5t126.5 99t145.5 55t158.5 16q143 0 228.5 -115t80.5 -294h20zM977 469q12 70 13 132.5t-13.5 122.5t-45.5 103.5t-87 70t-133 26.5q-99 0 -179.5 -58.5t-129.5 -151.5
t-70 -210q-17 -86 -9.5 -162.5t33.5 -134.5t79 -91.5t128 -33.5q101 0 191 55t147.5 143t75.5 189zM528 1202h-100l244 240h100l158 -240h-99l-126 137z" />
    <glyph glyph-name="Gbreve" unicode="&#x11e;" horiz-adv-x="1540" 
d="M934 717h659l-125 -717h-213l187 545h-19q-12 -41 -27 -82.5t-43.5 -100.5t-63 -110.5t-86.5 -105t-111 -91.5t-139.5 -62t-170.5 -24q-228 0 -381 93t-213 262t-20 393q39 222 170.5 392.5t327 262.5t424.5 92q294 0 552 -149l-135 -207q-204 143 -454 143
q-147 0 -284 -63t-239 -187t-129 -284q-22 -122 2.5 -228t85 -179.5t150.5 -115.5t197 -42q73 0 136.5 14.5t110.5 36t89.5 56.5t70 66t55 75.5t42 74t32.5 70.5h-467zM969 1757h49q-10 -58 18.5 -90.5t83.5 -34.5q49 -2 96.5 33t57.5 92h47q-20 -102 -75 -161.5t-144 -59.5
q-172 0 -133 221z" />
    <glyph glyph-name="gbreve" unicode="&#x11f;" horiz-adv-x="1179" 
d="M1040 627l134 379h131l-154 -879q-21 -117 -77 -220t-140 -180.5t-201 -117.5t-250 -29q-136 13 -217.5 87.5t-60.5 191.5h41q-5 -17 -1.5 -38t9.5 -41.5t26 -40t47 -34.5t71.5 -24t101.5 -9q160 0 278.5 114.5t159.5 344.5l29 162h-21q-65 -150 -178.5 -237t-245.5 -87
q-69 0 -127.5 11.5t-112 36.5t-89.5 66t-61 100.5t-27 138.5t14 180q21 119 63.5 211.5t98 152.5t126.5 99t145.5 55t158.5 16q143 0 228.5 -115t80.5 -294h20zM977 469q12 70 13 132.5t-13.5 122.5t-45.5 103.5t-87 70t-133 26.5q-99 0 -179.5 -58.5t-129.5 -151.5
t-70 -210q-17 -86 -9.5 -162.5t33.5 -134.5t79 -91.5t128 -33.5q101 0 191 55t147.5 143t75.5 189zM545 1423l49 -2q-9 -58 20 -90t82 -35q51 -2 98 33t56 92l47 2q-18 -101 -73 -161t-144 -60q-174 0 -135 221z" />
    <glyph glyph-name="Gdotaccent" unicode="&#x120;" horiz-adv-x="1540" 
d="M934 717h659l-125 -717h-213l187 545h-19q-12 -41 -27 -82.5t-43.5 -100.5t-63 -110.5t-86.5 -105t-111 -91.5t-139.5 -62t-170.5 -24q-228 0 -381 93t-213 262t-20 393q39 222 170.5 392.5t327 262.5t424.5 92q294 0 552 -149l-135 -207q-204 143 -454 143
q-147 0 -284 -63t-239 -187t-129 -284q-22 -122 2.5 -228t85 -179.5t150.5 -115.5t197 -42q73 0 136.5 14.5t110.5 36t89.5 56.5t70 66t55 75.5t42 74t32.5 70.5h-467zM1102 1536q-38 0 -61 27t-17 67q8 38 40.5 66t70.5 28q40 0 62.5 -28t14.5 -66q-6 -40 -38 -67t-72 -27z
" />
    <glyph glyph-name="gdotaccent" unicode="&#x121;" horiz-adv-x="1179" 
d="M1040 627l134 379h131l-154 -879q-21 -117 -77 -220t-140 -180.5t-201 -117.5t-250 -29q-136 13 -217.5 87.5t-60.5 191.5h41q-5 -17 -1.5 -38t9.5 -41.5t26 -40t47 -34.5t71.5 -24t101.5 -9q160 0 278.5 114.5t159.5 344.5l29 162h-21q-65 -150 -178.5 -237t-245.5 -87
q-69 0 -127.5 11.5t-112 36.5t-89.5 66t-61 100.5t-27 138.5t14 180q21 119 63.5 211.5t98 152.5t126.5 99t145.5 55t158.5 16q143 0 228.5 -115t80.5 -294h20zM977 469q12 70 13 132.5t-13.5 122.5t-45.5 103.5t-87 70t-133 26.5q-99 0 -179.5 -58.5t-129.5 -151.5
t-70 -210q-17 -86 -9.5 -162.5t33.5 -134.5t79 -91.5t128 -33.5q101 0 191 55t147.5 143t75.5 189zM680 1202q-38 0 -61 27t-17 67q8 38 40.5 65.5t70.5 27.5t61 -27.5t17 -65.5q-7 -39 -39.5 -66.5t-71.5 -27.5z" />
    <glyph glyph-name="uni0122" unicode="&#x122;" horiz-adv-x="1540" 
d="M934 717h659l-125 -717h-213l187 545h-19q-12 -41 -27 -82.5t-43.5 -100.5t-63 -110.5t-86.5 -105t-111 -91.5t-139.5 -62t-170.5 -24q-228 0 -381 93t-213 262t-20 393q39 222 170.5 392.5t327 262.5t424.5 92q294 0 552 -149l-135 -207q-204 143 -454 143
q-147 0 -284 -63t-239 -187t-129 -284q-22 -122 2.5 -228t85 -179.5t150.5 -115.5t197 -42q73 0 136.5 14.5t110.5 36t89.5 56.5t70 66t55 75.5t42 74t32.5 70.5h-467zM905 27l-258 -340h-92l162 340h188z" />
    <glyph glyph-name="uni0123" unicode="&#x123;" horiz-adv-x="1179" 
d="M1040 627l134 379h131l-154 -879q-21 -117 -77 -220t-140 -180.5t-201 -117.5t-250 -29q-136 13 -217.5 87.5t-60.5 191.5h41q-5 -17 -1.5 -38t9.5 -41.5t26 -40t47 -34.5t71.5 -24t101.5 -9q160 0 278.5 114.5t159.5 344.5l29 162h-21q-65 -150 -178.5 -237t-245.5 -87
q-69 0 -127.5 11.5t-112 36.5t-89.5 66t-61 100.5t-27 138.5t14 180q21 119 63.5 211.5t98 152.5t126.5 99t145.5 55t158.5 16q143 0 228.5 -115t80.5 -294h20zM977 469q12 70 13 132.5t-13.5 122.5t-45.5 103.5t-87 70t-133 26.5q-99 0 -179.5 -58.5t-129.5 -151.5
t-70 -210q-17 -86 -9.5 -162.5t33.5 -134.5t79 -91.5t128 -33.5q101 0 191 55t147.5 143t75.5 189zM799 1604l260 342h92l-164 -342h-188z" />
    <glyph glyph-name="Hcircumflex" unicode="&#x124;" horiz-adv-x="1361" 
d="M1196 793l113 641h233l-252 -1434h-233l112 641h-751l-113 -641h-233l252 1434h233l-113 -641h752zM797 1536h-99l242 240h100l158 -240h-98l-127 139z" />
    <glyph glyph-name="hcircumflex" unicode="&#x125;" 
d="M358 537l-94 -537h-213l268 1518h213l-141 -803q21 119 145.5 219t262.5 100q171 0 245 -99t48 -255l-121 -680h-211l123 698q16 94 -19 161t-123 67q-67 0 -134 -37t-117 -94.5t-85 -125.5t-47 -132zM281 1536h-99l242 240h100l158 -240h-98l-127 139z" />
    <glyph glyph-name="Hbar" unicode="&#x126;" horiz-adv-x="1523" 
d="M1280 793l113 641h233l-252 -1434h-233l112 641h-751l-113 -641h-233l252 1434h233l-113 -641h752zM299 1292h1382l-24 -131h-1381z" />
    <glyph glyph-name="hbar" unicode="&#x127;" 
d="M123 1350h166l30 168h213l-30 -168h147l-24 -131h-146l-88 -504q21 119 145.5 219t262.5 100q171 0 245 -99t48 -255l-121 -680h-211l123 698q16 94 -19 161t-123 67q-67 0 -134 -37t-117 -94.5t-85 -125.5t-47 -132l-94 -537h-213l215 1219h-166z" />
    <glyph glyph-name="Itilde" unicode="&#x128;" horiz-adv-x="376" 
d="M72 0l252 1434h233l-252 -1434h-233zM199 1634q53 47 108 66.5t100.5 14.5t97.5 -16.5t97.5 -24.5t102 -11t108.5 25q10 5 20 -1.5t7 -19.5q-6 -24 -37 -49q-58 -50 -116 -70t-104.5 -14.5t-98 18t-95.5 25.5t-98 9t-105 -32q-12 -6 -21 3t-5 26q5 21 39 51z" />
    <glyph glyph-name="itilde" unicode="&#x129;" horiz-adv-x="479" 
d="M201 1006h323l-178 -1006h-213l139 793h-110zM186 1262q40 41 80 57.5t72.5 12t69.5 -14t69 -20.5t72 -9.5t78 21.5q8 3 14.5 -2.5t5.5 -16.5q-5 -17 -29 -41q-42 -43 -84 -60t-75 -12t-69.5 15.5t-67.5 21.5t-69.5 7.5t-74.5 -27.5q-9 -6 -16 3t-4 22q4 15 28 43z" />
    <glyph glyph-name="Imacron" unicode="&#x12a;" horiz-adv-x="376" 
d="M72 0l252 1434h233l-252 -1434h-233zM-14 1710h1009l-30 -172h-1010z" />
    <glyph glyph-name="imacron" unicode="&#x12b;" horiz-adv-x="479" 
d="M201 1006h323l-178 -1006h-213l139 793h-110zM150 1290h526l-23 -131h-526z" />
    <glyph glyph-name="Iogonek" unicode="&#x12e;" horiz-adv-x="376" 
d="M72 0l252 1434h233l-252 -1434h-233zM236 -393q-101 -21 -157 25.5t-42 121.5q15 96 88 170t180 74l-10 -59q-59 0 -97 -41t-48 -99q-5 -11 -3 -27.5t7.5 -31.5t32 -22.5t69.5 -0.5z" />
    <glyph glyph-name="iogonek" unicode="&#x12f;" horiz-adv-x="376" 
d="M180 1006h324l-178 -1006h-213l139 793h-111zM369 1159q-57 0 -90.5 40t-24.5 97q11 57 58 97.5t104 40.5q58 0 90.5 -40t23.5 -98q-11 -57 -57.5 -97t-103.5 -40zM279 -332q-102 -21 -158 26.5t-43 123.5q17 95 89 168t179 73l-10 -59q-59 0 -97.5 -41t-48.5 -98
q-1 -8 -1.5 -11.5t-1 -13t1 -14.5t4 -13.5t7.5 -13.5t13.5 -10t20 -7t27.5 -2t36 3z" />
    <glyph glyph-name="Idotaccent" unicode="&#x130;" horiz-adv-x="376" 
d="M72 0l252 1434h233l-252 -1434h-233zM455 1536q-38 0 -61 27t-17 67q8 38 40 66t70 28q39 0 61.5 -27.5t16.5 -66.5t-38.5 -66.5t-71.5 -27.5z" />
    <glyph glyph-name="dotlessi" unicode="&#x131;" horiz-adv-x="376" 
d="M180 1006h324l-178 -1006h-213l139 793h-111zM369 1159q-57 0 -90.5 40t-24.5 97q11 57 58 97.5t104 40.5q58 0 90.5 -40t23.5 -98q-11 -57 -57.5 -97t-103.5 -40z" />
    <glyph glyph-name="Jcircumflex" unicode="&#x134;" horiz-adv-x="700" 
d="M649 1434h234l-148 -836q-20 -113 -53.5 -203t-73.5 -152t-95 -107t-108.5 -71t-124 -41t-131 -19.5t-139.5 -4.5l33 182q12 0 37 -1q117 -2 177 18q159 53 224 304q12 45 21 95zM631 1536h-99l242 240h100l158 -240h-98l-127 139z" />
    <glyph glyph-name="jcircumflex" unicode="&#x135;" horiz-adv-x="370" 
d="M154 1190h-101l244 240h100l158 -240h-100l-127 139zM174 1006h324l-164 -926q-35 -203 -156.5 -293t-365.5 -90l28 153q117 0 188.5 54t94.5 190l123 699h-111z" />
    <glyph glyph-name="uni0136" unicode="&#x136;" horiz-adv-x="1284" 
d="M557 1434l-252 -1434h-233l252 1434h233zM1264 0h-269l-506 717l758 717h271l-760 -717zM754 29l-258 -342h-93l162 342h189z" />
    <glyph glyph-name="uni0137" unicode="&#x137;" horiz-adv-x="1040" 
d="M1020 4l-246 -4l-373 504l549 504l246 -2l-545 -502zM532 1518l-268 -1518h-213l268 1518h213zM571 29l-258 -342h-92l162 342h188z" />
    <glyph glyph-name="kgreenlandic" unicode="&#x138;" horiz-adv-x="1040" 
d="M1020 4l-246 -4l-373 504l549 504l246 -2l-545 -502zM532 1518l-268 -1518h-213l268 1518h213z" />
    <glyph glyph-name="Lacute" unicode="&#x139;" horiz-adv-x="993" 
d="M557 1434l-215 -1229h645l-35 -205h-880l252 1434h233zM748 1757l-252 -221h-123l155 221h220z" />
    <glyph glyph-name="lacute" unicode="&#x13a;" horiz-adv-x="315" 
d="M51 0l268 1518h213l-268 -1518h-213zM725 1757l-250 -221h-125l156 221h219z" />
    <glyph glyph-name="uni013B" unicode="&#x13b;" horiz-adv-x="993" 
d="M557 1434l-215 -1229h645l-35 -205h-880l252 1434h233zM627 29l-258 -342h-93l162 342h189z" />
    <glyph glyph-name="uni013C" unicode="&#x13c;" horiz-adv-x="315" 
d="M51 0l268 1518h213l-268 -1518h-213zM293 29l-260 -342h-92l163 342h189z" />
    <glyph glyph-name="Lcaron" unicode="&#x13d;" horiz-adv-x="993" 
d="M557 1434l-215 -1229h645l-35 -205h-880l252 1434h233zM815 1878l-260 -342h-92l164 342h188z" />
    <glyph glyph-name="lcaron" unicode="&#x13e;" horiz-adv-x="329" 
d="M51 0l268 1518h213l-268 -1518h-213zM793 1878l-258 -342h-93l162 342h189z" />
    <glyph glyph-name="Ldot" unicode="&#x13f;" horiz-adv-x="993" 
d="M557 1434l-215 -1229h645l-35 -205h-880l252 1434h233zM735 705q-58 0 -90.5 40t-23.5 97q11 57 57.5 98t103.5 41t90.5 -41t24.5 -98q-11 -57 -58 -97t-104 -40z" />
    <glyph glyph-name="ldot" unicode="&#x140;" horiz-adv-x="808" 
d="M51 0l268 1518h213l-268 -1518h-213zM694 649q-57 0 -89.5 40t-22.5 97q9 57 56.5 97.5t104.5 40.5t90 -40.5t23 -97.5q-9 -57 -57 -97t-105 -40z" />
    <glyph glyph-name="Lslash" unicode="&#x141;" horiz-adv-x="1024" 
d="M557 1434l-215 -1229h645l-35 -205h-880l252 1434h233zM37 545l844 399l-31 -172l-844 -401z" />
    <glyph glyph-name="lslash" unicode="&#x142;" horiz-adv-x="315" 
d="M51 0l268 1518h213l-268 -1518h-213zM47 545l533 252l-31 -172l-533 -254z" />
    <glyph glyph-name="Nacute" unicode="&#x143;" horiz-adv-x="1447" 
d="M1151 45l244 1389h233l-252 -1434h-452l-355 1389h-20l-244 -1389h-233l252 1434h454l352 -1389h21zM1284 1757l-250 -221h-125l156 221h219z" />
    <glyph glyph-name="nacute" unicode="&#x144;" 
d="M362 557l-98 -557h-213l178 1006h111l-2 -363q46 172 175.5 281.5t285.5 109.5q148 0 233 -103t60 -251l-121 -680h-211l123 698q18 96 -34 162t-153 66q-105 0 -205.5 -105.5t-128.5 -263.5zM975 1411l-252 -221h-123l156 221h219z" />
    <glyph glyph-name="uni0145" unicode="&#x145;" horiz-adv-x="1447" 
d="M1151 45l244 1389h233l-252 -1434h-452l-355 1389h-20l-244 -1389h-233l252 1434h454l352 -1389h21zM809 29l-260 -342h-92l164 342h188z" />
    <glyph glyph-name="uni0146" unicode="&#x146;" 
d="M362 557l-98 -557h-213l178 1006h111l-2 -363q46 172 175.5 281.5t285.5 109.5q148 0 233 -103t60 -251l-121 -680h-211l123 698q18 96 -34 162t-153 66q-105 0 -205.5 -105.5t-128.5 -263.5zM649 29l-258 -342h-92l162 342h188z" />
    <glyph glyph-name="Ncaron" unicode="&#x147;" horiz-adv-x="1447" 
d="M1151 45l244 1389h233l-252 -1434h-452l-355 1389h-20l-244 -1389h-233l252 1434h454l352 -1389h21zM1186 1776h98l-242 -240h-100l-158 240h99l127 -138z" />
    <glyph glyph-name="ncaron" unicode="&#x148;" 
d="M362 557l-98 -557h-213l178 1006h111l-2 -363q46 172 175.5 281.5t285.5 109.5q148 0 233 -103t60 -251l-121 -680h-211l123 698q18 96 -34 162t-153 66q-105 0 -205.5 -105.5t-128.5 -263.5zM874 1430h101l-244 -240h-100l-158 240h100l127 -138z" />
    <glyph glyph-name="napostrophe" unicode="&#x149;" 
d="M362 557l-98 -557h-213l178 1006h111l-2 -363q46 172 175.5 281.5t285.5 109.5q148 0 233 -103t60 -251l-121 -680h-211l123 698q18 96 -34 162t-153 66q-105 0 -205.5 -105.5t-128.5 -263.5zM649 29l-258 -342h-92l162 342h188z" />
    <glyph glyph-name="Omacron" unicode="&#x14c;" horiz-adv-x="1603" 
d="M1059 1464q229 0 385.5 -92.5t220 -261.5t23.5 -393q-59 -339 -302.5 -543.5t-588.5 -204.5q-229 0 -385.5 92.5t-220 262t-23.5 393.5q60 339 303 543t588 204zM825 141q110 0 213 37.5t190 108.5t150 182t88 248q23 141 0 248.5t-85.5 180t-152 109.5t-198.5 37
q-110 0 -213 -37.5t-190 -108t-149.5 -181.5t-86.5 -248q-24 -141 -1 -249t85 -180.5t151.5 -109.5t198.5 -37zM598 1710h1010l-31 -172h-1010z" />
    <glyph glyph-name="omacron" unicode="&#x14d;" horiz-adv-x="1193" 
d="M780 1036q111 0 206 -37t162 -103.5t95.5 -168t7.5 -223.5q-28 -162 -130.5 -286t-240.5 -186.5t-288 -62.5q-111 0 -206.5 37t-162.5 104t-96 169.5t-8 224.5q28 161 131 284.5t241.5 185.5t288.5 62zM618 125q66 0 132.5 20.5t130 62.5t111 118.5t65.5 177.5
t-2.5 177.5t-69.5 118t-107.5 61.5t-125.5 20q-52 0 -104.5 -11.5t-107.5 -40t-99.5 -70.5t-79 -107.5t-48.5 -147.5q-16 -85 -3 -148.5t41.5 -107.5t73.5 -71.5t93 -39.5t100 -12zM508 1319h526l-24 -131h-525z" />
    <glyph glyph-name="Obreve" unicode="&#x14e;" horiz-adv-x="1603" 
d="M1059 1464q229 0 385.5 -92.5t220 -261.5t23.5 -393q-59 -339 -302.5 -543.5t-588.5 -204.5q-229 0 -385.5 92.5t-220 262t-23.5 393.5q60 339 303 543t588 204zM825 141q110 0 213 37.5t190 108.5t150 182t88 248q23 141 0 248.5t-85.5 180t-152 109.5t-198.5 37
q-110 0 -213 -37.5t-190 -108t-149.5 -181.5t-86.5 -248q-24 -141 -1 -249t85 -180.5t151.5 -109.5t198.5 -37zM936 1757h49q-10 -58 19.5 -90.5t82.5 -34.5q51 -2 97.5 33t56.5 92h47q-18 -101 -73.5 -161t-143.5 -60q-174 0 -135 221z" />
    <glyph glyph-name="obreve" unicode="&#x14f;" horiz-adv-x="1193" 
d="M780 1036q111 0 206 -37t162 -103.5t95.5 -168t7.5 -223.5q-28 -162 -130.5 -286t-240.5 -186.5t-288 -62.5q-111 0 -206.5 37t-162.5 104t-96 169.5t-8 224.5q28 161 131 284.5t241.5 185.5t288.5 62zM618 125q66 0 132.5 20.5t130 62.5t111 118.5t65.5 177.5
t-2.5 177.5t-69.5 118t-107.5 61.5t-125.5 20q-52 0 -104.5 -11.5t-107.5 -40t-99.5 -70.5t-79 -107.5t-48.5 -147.5q-16 -85 -3 -148.5t41.5 -107.5t73.5 -71.5t93 -39.5t100 -12zM612 1409l50 -2q-10 -58 18.5 -90t83.5 -35q51 -2 97.5 33t56.5 92l47 2
q-18 -101 -74.5 -161.5t-145.5 -59.5q-172 0 -133 221z" />
    <glyph glyph-name="Ohungarumlaut" unicode="&#x150;" horiz-adv-x="1603" 
d="M1059 1464q229 0 385.5 -92.5t220 -261.5t23.5 -393q-59 -339 -302.5 -543.5t-588.5 -204.5q-229 0 -385.5 92.5t-220 262t-23.5 393.5q60 339 303 543t588 204zM825 141q110 0 213 37.5t190 108.5t150 182t88 248q23 141 0 248.5t-85.5 180t-152 109.5t-198.5 37
q-110 0 -213 -37.5t-190 -108t-149.5 -181.5t-86.5 -248q-24 -141 -1 -249t85 -180.5t151.5 -109.5t198.5 -37zM1227 1878l-260 -342h-93l164 342h189zM1489 1878l-260 -342h-92l163 342h189z" />
    <glyph glyph-name="ohungarumlaut" unicode="&#x151;" horiz-adv-x="1193" 
d="M780 1036q111 0 206 -37t162 -103.5t95.5 -168t7.5 -223.5q-28 -162 -130.5 -286t-240.5 -186.5t-288 -62.5q-111 0 -206.5 37t-162.5 104t-96 169.5t-8 224.5q28 161 131 284.5t241.5 185.5t288.5 62zM618 125q66 0 132.5 20.5t130 62.5t111 118.5t65.5 177.5
t-2.5 177.5t-69.5 118t-107.5 61.5t-125.5 20q-52 0 -104.5 -11.5t-107.5 -40t-99.5 -70.5t-79 -107.5t-48.5 -147.5q-16 -85 -3 -148.5t41.5 -107.5t73.5 -71.5t93 -39.5t100 -12zM901 1530l-258 -342h-92l162 342h188zM1163 1530l-258 -342h-92l162 342h188z" />
    <glyph glyph-name="OE" unicode="&#x152;" horiz-adv-x="2461" 
d="M168 717q60 339 303 543t588 204q178 0 313 -57t215 -162l35 189h1051l-35 -205h-819l-74 -422h680l-31 -180h-682l-74 -422h820l-37 -205h-1053l33 188q-249 -219 -604 -219q-229 0 -385.5 92.5t-220 262t-23.5 393.5zM371 717q-25 -137 1.5 -248.5t92.5 -181.5
t158.5 -108t201.5 -38q110 0 216 37.5t197 108t157 182t90 248.5q25 137 -2 248t-93 181.5t-158.5 108t-201.5 37.5q-110 0 -216 -37.5t-196.5 -108t-156.5 -181.5t-90 -248z" />
    <glyph glyph-name="oe" unicode="&#x153;" horiz-adv-x="2193" 
d="M592 -31q-111 0 -206.5 37t-162.5 104t-96 169.5t-8 224.5q28 161 131 284.5t241.5 185.5t288.5 62q170 0 297.5 -82.5t167.5 -228.5q89 151 244.5 231t341.5 80q273 0 384 -161.5t54 -440.5h-901q-27 -154 65.5 -235.5t243.5 -81.5q118 0 208 49t140 129h209
q-96 -146 -243 -236t-338 -90q-192 0 -322 80.5t-166 231.5q-92 -146 -248 -229t-325 -83zM313 504q-16 -85 -3 -148.5t41.5 -107.5t73.5 -71.5t93 -39.5t100 -12q66 0 132.5 20.5t130 62.5t111 118.5t65.5 177.5t-2.5 177.5t-69.5 118t-107.5 61.5t-125.5 20
q-52 0 -104.5 -11.5t-107.5 -40t-99.5 -70.5t-79 -107.5t-48.5 -147.5zM1806 895q-90 -1 -168 -34.5t-128 -85.5t-81 -108t-40 -110h682q8 27 5 63t-8.5 73.5t-26 74t-49 65t-77 45.5t-109.5 17z" />
    <glyph glyph-name="Racute" unicode="&#x154;" horiz-adv-x="1267" 
d="M1362 993q-32 -174 -163 -302.5t-327 -137.5l365 -553h-258l-477 725h356q109 0 187.5 81t97.5 187q20 105 -30.5 187t-158.5 82h-426l-223 -1262h-233l252 1434h680q85 0 153 -25t110 -67.5t69.5 -99t31 -119.5t-5.5 -130zM1098 1757l-250 -221h-125l156 221h219z" />
    <glyph glyph-name="racute" unicode="&#x155;" horiz-adv-x="737" 
d="M358 627q24 84 57 150.5t69.5 109.5t78 74.5t82.5 46t84 24t82 7.5t76 -3l-33 -194q-21 2 -39.5 3t-67 -1.5t-89 -10.5t-93 -29.5t-91 -53t-71.5 -86.5t-45 -125l-94 -539h-213l178 1006h111l-2 -379h20zM690 1411l-250 -221h-125l156 221h219z" />
    <glyph glyph-name="uni0156" unicode="&#x156;" horiz-adv-x="1267" 
d="M1362 993q-32 -174 -163 -302.5t-327 -137.5l365 -553h-258l-477 725h356q109 0 187.5 81t97.5 187q20 105 -30.5 187t-158.5 82h-426l-223 -1262h-233l252 1434h680q85 0 153 -25t110 -67.5t69.5 -99t31 -119.5t-5.5 -130zM766 29l-258 -342h-92l162 342h188z" />
    <glyph glyph-name="uni0157" unicode="&#x157;" horiz-adv-x="737" 
d="M358 627q24 84 57 150.5t69.5 109.5t78 74.5t82.5 46t84 24t82 7.5t76 -3l-33 -194q-21 2 -39.5 3t-67 -1.5t-89 -10.5t-93 -29.5t-91 -53t-71.5 -86.5t-45 -125l-94 -539h-213l178 1006h111l-2 -379h20zM281 29l-261 -342h-92l164 342h189z" />
    <glyph glyph-name="Rcaron" unicode="&#x158;" horiz-adv-x="1267" 
d="M1362 993q-32 -174 -163 -302.5t-327 -137.5l365 -553h-258l-477 725h356q109 0 187.5 81t97.5 187q20 105 -30.5 187t-158.5 82h-426l-223 -1262h-233l252 1434h680q85 0 153 -25t110 -67.5t69.5 -99t31 -119.5t-5.5 -130zM999 1776h99l-242 -240h-100l-158 240h98
l127 -138z" />
    <glyph glyph-name="rcaron" unicode="&#x159;" horiz-adv-x="737" 
d="M358 627q24 84 57 150.5t69.5 109.5t78 74.5t82.5 46t84 24t82 7.5t76 -3l-33 -194q-21 2 -39.5 3t-67 -1.5t-89 -10.5t-93 -29.5t-91 -53t-71.5 -86.5t-45 -125l-94 -539h-213l178 1006h111l-2 -379h20zM592 1430h98l-241 -240h-101l-158 240h99l127 -138z" />
    <glyph glyph-name="Sacute" unicode="&#x15a;" horiz-adv-x="1337" 
d="M637 -18q-280 0 -413 119.5t-95 336.5h207q-19 -105 73 -189.5t261 -84.5q48 0 96 4.5t110 19.5t110.5 39t86.5 68t49 102q18 106 -101 156q-67 28 -255 58q-24 3 -33 5q-99 16 -161 30t-142 46.5t-121.5 75.5t-64.5 116.5t-6 170.5q15 89 63.5 159t116 114.5t157 73.5
t182 40.5t195.5 11.5q279 0 412.5 -120.5t95.5 -336.5h-205q16 106 -75 190.5t-260 84.5q-47 0 -96 -4.5t-110.5 -20t-110 -40t-86.5 -69t-48 -102.5q-7 -37 0.5 -67.5t31.5 -52.5t51.5 -38t74.5 -29t85 -21.5t97 -18.5q206 -37 280 -59q202 -62 252 -190q29 -75 11 -179
q-15 -89 -63.5 -159t-116.5 -114.5t-157.5 -73.5t-182 -40.5t-195.5 -11.5zM1262 1757l-252 -221h-123l155 221h220z" />
    <glyph glyph-name="sacute" unicode="&#x15b;" horiz-adv-x="1001" 
d="M831 289q7 39 -14 65t-61.5 39t-94.5 21.5t-114 15.5t-119.5 16.5t-111.5 29.5t-89 50.5t-53 82.5t-4 122q27 152 175.5 232.5t361.5 80.5q98 0 172 -16t117 -45t69 -68.5t29 -86t-4 -97.5h-156q7 42 -3 73.5t-32 50t-58 29.5t-73.5 15t-85.5 4q-68 0 -119 -7t-98 -24.5
t-76 -53t-39 -87.5q-9 -51 26.5 -81t99 -41.5t141 -19.5t153.5 -23t136.5 -42t91 -86.5t14.5 -148.5q-26 -147 -152.5 -233.5t-359.5 -86.5q-225 0 -329 90.5t-79 231.5h170q-15 -86 51 -133t211 -47q276 0 307 178zM965 1411l-250 -221h-125l155 221h220z" />
    <glyph glyph-name="Scircumflex" unicode="&#x15c;" horiz-adv-x="1337" 
d="M637 -18q-280 0 -413 119.5t-95 336.5h207q-19 -105 73 -189.5t261 -84.5q48 0 96 4.5t110 19.5t110.5 39t86.5 68t49 102q18 106 -101 156q-67 28 -255 58q-24 3 -33 5q-99 16 -161 30t-142 46.5t-121.5 75.5t-64.5 116.5t-6 170.5q15 89 63.5 159t116 114.5t157 73.5
t182 40.5t195.5 11.5q279 0 412.5 -120.5t95.5 -336.5h-205q16 106 -75 190.5t-260 84.5q-47 0 -96 -4.5t-110.5 -20t-110 -40t-86.5 -69t-48 -102.5q-7 -37 0.5 -67.5t31.5 -52.5t51.5 -38t74.5 -29t85 -21.5t97 -18.5q206 -37 280 -59q202 -62 252 -190q29 -75 11 -179
q-15 -89 -63.5 -159t-116.5 -114.5t-157.5 -73.5t-182 -40.5t-195.5 -11.5zM817 1536h-98l242 240h100l158 -240h-99l-127 139z" />
    <glyph glyph-name="scircumflex" unicode="&#x15d;" horiz-adv-x="1001" 
d="M831 289q7 39 -14 65t-61.5 39t-94.5 21.5t-114 15.5t-119.5 16.5t-111.5 29.5t-89 50.5t-53 82.5t-4 122q27 152 175.5 232.5t361.5 80.5q98 0 172 -16t117 -45t69 -68.5t29 -86t-4 -97.5h-156q7 42 -3 73.5t-32 50t-58 29.5t-73.5 15t-85.5 4q-68 0 -119 -7t-98 -24.5
t-76 -53t-39 -87.5q-9 -51 26.5 -81t99 -41.5t141 -19.5t153.5 -23t136.5 -42t91 -86.5t14.5 -148.5q-26 -147 -152.5 -233.5t-359.5 -86.5q-225 0 -329 90.5t-79 231.5h170q-15 -86 51 -133t211 -47q276 0 307 178zM520 1190h-98l242 240h100l158 -240h-99l-127 139z" />
    <glyph glyph-name="Scedilla" unicode="&#x15e;" horiz-adv-x="1337" 
d="M637 -18q-280 0 -413 119.5t-95 336.5h207q-19 -105 73 -189.5t261 -84.5q48 0 96 4.5t110 19.5t110.5 39t86.5 68t49 102q18 106 -101 156q-67 28 -255 58q-24 3 -33 5q-99 16 -161 30t-142 46.5t-121.5 75.5t-64.5 116.5t-6 170.5q15 89 63.5 159t116 114.5t157 73.5
t182 40.5t195.5 11.5q279 0 412.5 -120.5t95.5 -336.5h-205q16 106 -75 190.5t-260 84.5q-47 0 -96 -4.5t-110.5 -20t-110 -40t-86.5 -69t-48 -102.5q-7 -37 0.5 -67.5t31.5 -52.5t51.5 -38t74.5 -29t85 -21.5t97 -18.5q206 -37 280 -59q202 -62 252 -190q29 -75 11 -179
q-15 -89 -63.5 -159t-116.5 -114.5t-157.5 -73.5t-182 -40.5t-195.5 -11.5zM739 -207q-30 -78 -107.5 -122t-187.5 -13l25 59q63 -21 107 1.5t67 76.5q4 8 6 14.5t4.5 18t0.5 19t-7.5 18t-18.5 14t-32.5 7t-50.5 -2.5l59 144h109l-43 -84q34 0 54.5 -12.5t26 -35t2.5 -47.5
t-14 -55z" />
    <glyph glyph-name="scedilla" unicode="&#x15f;" horiz-adv-x="1001" 
d="M831 289q7 39 -14 65t-61.5 39t-94.5 21.5t-114 15.5t-119.5 16.5t-111.5 29.5t-89 50.5t-53 82.5t-4 122q27 152 175.5 232.5t361.5 80.5q98 0 172 -16t117 -45t69 -68.5t29 -86t-4 -97.5h-156q7 42 -3 73.5t-32 50t-58 29.5t-73.5 15t-85.5 4q-68 0 -119 -7t-98 -24.5
t-76 -53t-39 -87.5q-9 -51 26.5 -81t99 -41.5t141 -19.5t153.5 -23t136.5 -42t91 -86.5t14.5 -148.5q-26 -147 -152.5 -233.5t-359.5 -86.5q-225 0 -329 90.5t-79 231.5h170q-15 -86 51 -133t211 -47q276 0 307 178zM596 -207q-30 -78 -106.5 -122t-188.5 -13l25 59
q63 -21 107 1.5t67 76.5q3 8 5.5 14.5t5 18t0 19t-7.5 17.5t-18.5 14t-33 7.5t-50.5 -2.5l62 144h108l-45 -84q45 0 66 -23t20 -55t-16 -72z" />
    <glyph glyph-name="Scaron" unicode="&#x160;" horiz-adv-x="1337" 
d="M637 -18q-280 0 -413 119.5t-95 336.5h207q-19 -105 73 -189.5t261 -84.5q48 0 96 4.5t110 19.5t110.5 39t86.5 68t49 102q18 106 -101 156q-67 28 -255 58q-24 3 -33 5q-99 16 -161 30t-142 46.5t-121.5 75.5t-64.5 116.5t-6 170.5q15 89 63.5 159t116 114.5t157 73.5
t182 40.5t195.5 11.5q279 0 412.5 -120.5t95.5 -336.5h-205q16 106 -75 190.5t-260 84.5q-47 0 -96 -4.5t-110.5 -20t-110 -40t-86.5 -69t-48 -102.5q-7 -37 0.5 -67.5t31.5 -52.5t51.5 -38t74.5 -29t85 -21.5t97 -18.5q206 -37 280 -59q202 -62 252 -190q29 -75 11 -179
q-15 -89 -63.5 -159t-116.5 -114.5t-157.5 -73.5t-182 -40.5t-195.5 -11.5zM1161 1776h101l-244 -240h-98l-160 240h100l127 -138z" />
    <glyph glyph-name="scaron" unicode="&#x161;" horiz-adv-x="1001" 
d="M831 289q7 39 -14 65t-61.5 39t-94.5 21.5t-114 15.5t-119.5 16.5t-111.5 29.5t-89 50.5t-53 82.5t-4 122q27 152 175.5 232.5t361.5 80.5q98 0 172 -16t117 -45t69 -68.5t29 -86t-4 -97.5h-156q7 42 -3 73.5t-32 50t-58 29.5t-73.5 15t-85.5 4q-68 0 -119 -7t-98 -24.5
t-76 -53t-39 -87.5q-9 -51 26.5 -81t99 -41.5t141 -19.5t153.5 -23t136.5 -42t91 -86.5t14.5 -148.5q-26 -147 -152.5 -233.5t-359.5 -86.5q-225 0 -329 90.5t-79 231.5h170q-15 -86 51 -133t211 -47q276 0 307 178zM866 1430h99l-242 -240h-100l-158 240h98l127 -138z" />
    <glyph glyph-name="uni0162" unicode="&#x162;" horiz-adv-x="1230" 
d="M1427 1229h-479l-215 -1229h-233l215 1229h-477l34 205h1192zM743 29l-258 -342h-92l162 342h188z" />
    <glyph glyph-name="uni0163" unicode="&#x163;" horiz-adv-x="905" 
d="M655 1298l-82 -292h455l-31 -172h-434l-90 -504q-11 -55 -3 -92t25 -62t48.5 -36.5t67.5 -14.5t82.5 4t92 19t97.5 30l-31 -178q-111 -20 -197.5 -26.5t-173 6.5t-139 51t-76 116.5t-2.5 194.5l86 492h-182l31 172h305l-160 292h311zM639 29l-260 -342h-92l164 342h188z
" />
    <glyph glyph-name="Tcaron" unicode="&#x164;" horiz-adv-x="1230" 
d="M1427 1229h-479l-215 -1229h-233l215 1229h-477l34 205h1192zM1077 1776h101l-244 -240h-100l-158 240h100l125 -138z" />
    <glyph glyph-name="tcaron" unicode="&#x165;" horiz-adv-x="987" 
d="M655 1298l-82 -292h455l-31 -172h-434l-90 -504q-11 -55 -3 -92t25 -62t48.5 -36.5t67.5 -14.5t82.5 4t92 19t97.5 30l-31 -178q-111 -20 -197.5 -26.5t-173 6.5t-139 51t-76 116.5t-2.5 194.5l86 492h-182l31 172h305l-160 292h311zM1110 1530l-258 -342h-92l162 342
h188z" />
    <glyph glyph-name="Tbar" unicode="&#x166;" horiz-adv-x="1230" 
d="M272 1434h1192l-37 -205h-479l-65 -379h131l-23 -133h-133l-125 -717h-233l125 717h-160l22 133h162l66 379h-477z" />
    <glyph glyph-name="tbar" unicode="&#x167;" horiz-adv-x="905" 
d="M350 834h-182l31 172h305l-160 292h311l-82 -292h455l-31 -172h-434l-20 -117h180l-23 -131h-182l-45 -256q-11 -55 -3 -92t25 -62t48.5 -36.5t67.5 -14.5t82.5 4t92 19t97.5 30l-31 -178q-111 -20 -197.5 -26.5t-173 6.5t-139 51t-76 116.5t-2.5 194.5l41 244h-131
l25 131h131z" />
    <glyph glyph-name="Utilde" unicode="&#x168;" horiz-adv-x="1382" 
d="M1178 578l151 856h234l-152 -856q-26 -148 -96.5 -266t-169.5 -192.5t-216 -113.5t-243 -39t-230 39t-177 113.5t-102 192.5t-3 266l150 856h233l-149 -856q-19 -107 0 -191.5t66 -134.5t109.5 -76t133.5 -26q49 0 101.5 13t110.5 44.5t106.5 78.5t87.5 122.5t55 169.5z
M705 1634q53 47 108 66.5t100.5 14.5t97.5 -16.5t97.5 -24.5t102 -11t108.5 25q10 5 20 -1.5t7 -19.5q-6 -24 -37 -49q-58 -50 -116 -70t-104.5 -14.5t-98 18t-95.5 25.5t-98 9t-105 -32q-12 -6 -21 3t-5 26q5 21 39 51z" />
    <glyph glyph-name="utilde" unicode="&#x169;" 
d="M295 1452q32 40 68.5 56.5t70 12t72 -14t72.5 -20.5t74 -9.5t75 20.5q6 5 14.5 0t8.5 -16q-3 -19 -21 -43q-35 -42 -74.5 -59t-73.5 -12t-72.5 15t-71 21t-70.5 8t-70 -27q-8 -6 -16 2t-7 21q0 21 21 45zM838 449l98 557h213l-178 -1006h-111l2 362h-20
q-30 -171 -157.5 -281t-283.5 -110q-148 0 -233 103.5t-59 251.5l120 680h211l-123 -699q-18 -96 34 -161.5t153 -65.5q105 0 205.5 105.5t128.5 263.5z" />
    <glyph glyph-name="Umacron" unicode="&#x16a;" horiz-adv-x="1382" 
d="M1178 578l151 856h234l-152 -856q-26 -148 -96.5 -266t-169.5 -192.5t-216 -113.5t-243 -39t-230 39t-177 113.5t-102 192.5t-3 266l150 856h233l-149 -856q-19 -107 0 -191.5t66 -134.5t109.5 -76t133.5 -26q49 0 101.5 13t110.5 44.5t106.5 78.5t87.5 122.5t55 169.5z
M487 1710h1010l-31 -172h-1009z" />
    <glyph glyph-name="umacron" unicode="&#x16b;" 
d="M147 1319h527v-131h-527v131zM838 449l98 557h213l-178 -1006h-111l2 362h-20q-30 -171 -157.5 -281t-283.5 -110q-148 0 -233 103.5t-59 251.5l120 680h211l-123 -699q-18 -96 34 -161.5t153 -65.5q105 0 205.5 105.5t128.5 263.5z" />
    <glyph glyph-name="Ubreve" unicode="&#x16c;" horiz-adv-x="1382" 
d="M1178 578l151 856h234l-152 -856q-26 -148 -96.5 -266t-169.5 -192.5t-216 -113.5t-243 -39t-230 39t-177 113.5t-102 192.5t-3 266l150 856h233l-149 -856q-19 -107 0 -191.5t66 -134.5t109.5 -76t133.5 -26q49 0 101.5 13t110.5 44.5t106.5 78.5t87.5 122.5t55 169.5z
M825 1757h52q-10 -58 18.5 -90.5t81.5 -34.5q51 -2 98.5 33t57.5 92h45q-18 -101 -73 -161t-144 -60q-175 0 -136 221z" />
    <glyph glyph-name="ubreve" unicode="&#x16d;" 
d="M236 1409h51q0 -58 34 -90.5t89 -34.5q51 -2 92 33t41 92h45q0 -101 -44.5 -161t-133.5 -60q-174 0 -174 221zM838 449l98 557h213l-178 -1006h-111l2 362h-20q-30 -171 -157.5 -281t-283.5 -110q-148 0 -233 103.5t-59 251.5l120 680h211l-123 -699q-18 -96 34 -161.5
t153 -65.5q105 0 205.5 105.5t128.5 263.5z" />
    <glyph glyph-name="Uring" unicode="&#x16e;" horiz-adv-x="1382" 
d="M1178 578l151 856h234l-152 -856q-26 -148 -96.5 -266t-169.5 -192.5t-216 -113.5t-243 -39t-230 39t-177 113.5t-102 192.5t-3 266l150 856h233l-149 -856q-19 -107 0 -191.5t66 -134.5t109.5 -76t133.5 -26q49 0 101.5 13t110.5 44.5t106.5 78.5t87.5 122.5t55 169.5z
M1010 1817q66 0 97.5 -38.5t20.5 -103.5q-10 -63 -56 -101t-111 -38q-64 0 -97 38t-22 101q12 65 58 103.5t110 38.5zM971 1595q33 0 61.5 23t34.5 57q6 36 -14.5 59t-53.5 23q-32 0 -61 -23.5t-35 -58.5q-6 -34 14.5 -57t53.5 -23z" />
    <glyph glyph-name="uring" unicode="&#x16f;" 
d="M410 1468q65 0 104 -38t39 -101q0 -64 -39 -102.5t-104 -38.5t-104.5 38.5t-39.5 102.5q0 63 39.5 101t104.5 38zM410 1247q33 0 57.5 23t24.5 59q0 34 -24.5 57t-57.5 23t-57.5 -23t-24.5 -57q0 -36 24.5 -59t57.5 -23zM838 449l98 557h213l-178 -1006h-111l2 362h-20
q-30 -171 -157.5 -281t-283.5 -110q-148 0 -233 103.5t-59 251.5l120 680h211l-123 -699q-18 -96 34 -161.5t153 -65.5q105 0 205.5 105.5t128.5 263.5z" />
    <glyph glyph-name="Uhungarumlaut" unicode="&#x170;" horiz-adv-x="1382" 
d="M1178 578l151 856h234l-152 -856q-26 -148 -96.5 -266t-169.5 -192.5t-216 -113.5t-243 -39t-230 39t-177 113.5t-102 192.5t-3 266l150 856h233l-149 -856q-19 -107 0 -191.5t66 -134.5t109.5 -76t133.5 -26q49 0 101.5 13t110.5 44.5t106.5 78.5t87.5 122.5t55 169.5z
M1116 1878l-260 -342h-92l164 342h188zM1378 1878l-260 -342h-92l164 342h188z" />
    <glyph glyph-name="uhungarumlaut" unicode="&#x171;" 
d="M774 1530l-258 -342h-92l162 342h188zM1036 1530l-258 -342h-92l162 342h188zM915 449l197 557h213l-354 -1006h-111l66 362h-21q-61 -171 -207 -281t-303 -110q-148 0 -214.5 103.5t-14.5 251.5l240 680h210l-245 -699q-34 -96 6 -161.5t141 -65.5q105 0 223.5 105.5
t173.5 263.5z" />
    <glyph glyph-name="Uogonek" unicode="&#x172;" horiz-adv-x="1382" 
d="M1178 578l151 856h234l-152 -856q-26 -148 -96.5 -266t-169.5 -192.5t-216 -113.5t-243 -39t-230 39t-177 113.5t-102 192.5t-3 266l150 856h233l-149 -856q-19 -107 0 -191.5t66 -134.5t109.5 -76t133.5 -26q49 0 101.5 13t110.5 44.5t106.5 78.5t87.5 122.5t55 169.5z
M633 -365q-102 -21 -158 26t-43 122q17 97 89 170.5t179 73.5l-10 -60q-59 0 -97 -40.5t-48 -98.5q-1 -8 -1.5 -11t-1 -13t0.5 -15t4 -13.5t8 -13t13 -10t19.5 -7.5t27.5 -2t36 3z" />
    <glyph glyph-name="uogonek" unicode="&#x173;" 
d="M346 -365q-101 -21 -157.5 26t-43.5 122q17 97 90 170.5t181 73.5l-10 -60q-59 0 -97.5 -41t-48.5 -98q-2 -8 -2.5 -14.5t-0.5 -18t3 -18.5t10 -16.5t19.5 -12t30.5 -5.5t45 3zM870 444l144 553h213l-258 -997h-111l31 358h-21q-45 -169 -180.5 -278t-292.5 -109
q-148 0 -224.5 102.5t-39.5 248.5l176 675h211l-180 -694q-24 -94 22.5 -158.5t145.5 -64.5q107 0 215.5 104t148.5 260z" />
    <glyph glyph-name="Wcircumflex" unicode="&#x174;" horiz-adv-x="2357" 
d="M1516 0l-84 1378h-19l-569 -1378h-451l-141 1434h242l122 -1379h21l569 1379h451l84 -1379h20l609 1379h241l-645 -1434h-450zM1294 1536h-100l244 240h98l160 -240h-101l-127 139z" />
    <glyph glyph-name="wcircumflex" unicode="&#x175;" horiz-adv-x="1966" 
d="M1528 41l414 965h212l-462 -1006h-424l-90 985h-41l-439 -985h-424l-106 1006h213l74 -965h82l411 965h424l74 -965h82zM973 1190h-101l244 240h101l157 -240h-100l-125 139z" />
    <glyph glyph-name="Ycircumflex" unicode="&#x176;" horiz-adv-x="1118" 
d="M739 700l391 734h240l-764 -1434h-241l354 664h-215l-252 770h250l217 -734h20zM674 1536h-99l242 240h101l157 -240h-98l-127 139z" />
    <glyph glyph-name="ycircumflex" unicode="&#x177;" horiz-adv-x="1136" 
d="M1110 1006h213l-539 -998q-37 -68 -79 -125t-82 -97.5t-83.5 -72.5t-81.5 -52t-76.5 -34t-69 -20.5t-58.5 -9t-45 -2.5t-29 2q-133 17 -221 109t-86 208h41q23 -88 108.5 -151t192.5 -50q84 11 174.5 84.5t173.5 202.5h-211l-188 1006h213l172 -922h57zM575 1190h-100
l244 240h98l160 -240h-100l-127 139z" />
    <glyph glyph-name="Ydieresis" unicode="&#x178;" horiz-adv-x="1118" 
d="M739 700l391 734h240l-764 -1434h-241l354 664h-215l-252 770h250l217 -734h20zM700 1536q-38 0 -60.5 28t-16.5 66q8 38 40 66t70 28q40 0 63 -28t15 -66q-6 -38 -38.5 -66t-72.5 -28zM950 1536q-38 0 -61 28t-17 66q8 38 40.5 66t70.5 28q40 0 63 -28t15 -66
q-6 -38 -38.5 -66t-72.5 -28z" />
    <glyph glyph-name="Zacute" unicode="&#x179;" horiz-adv-x="1275" 
d="M1466 1434l-36 -213l-1049 -1008h870l-37 -213h-1153l37 213l1055 1008h-877l37 213h1153zM1202 1757l-252 -221h-123l154 221h221z" />
    <glyph glyph-name="zacute" unicode="&#x17a;" horiz-adv-x="1024" 
d="M188 836l31 170h942l-31 -175l-856 -663l740 2l-31 -170h-942l37 213l813 623h-703zM915 1411l-249 -221h-125l155 221h219z" />
    <glyph glyph-name="Zdotaccent" unicode="&#x17b;" horiz-adv-x="1275" 
d="M1466 1434l-36 -213l-1049 -1008h870l-37 -213h-1153l37 213l1055 1008h-877l37 213h1153zM909 1536q-40 0 -62 27t-16 67q6 38 39.5 66t71.5 28t61 -28t17 -66q-7 -39 -39.5 -66.5t-71.5 -27.5z" />
    <glyph glyph-name="zdotaccent" unicode="&#x17c;" horiz-adv-x="1024" 
d="M188 836l31 170h942l-31 -175l-856 -663l740 2l-31 -170h-942l37 213l813 623h-703zM623 1190q-38 0 -61 28t-17 66q8 38 40 66t70 28q40 0 63 -28t15 -66q-6 -38 -38 -66t-72 -28z" />
    <glyph glyph-name="Zcaron" unicode="&#x17d;" horiz-adv-x="1275" 
d="M1466 1434l-36 -213l-1049 -1008h870l-37 -213h-1153l37 213l1055 1008h-877l37 213h1153zM1102 1776h100l-244 -240h-100l-158 240h101l127 -138z" />
    <glyph glyph-name="zcaron" unicode="&#x17e;" horiz-adv-x="1024" 
d="M188 836l31 170h942l-31 -175l-856 -663l740 2l-31 -170h-942l37 213l813 623h-703zM817 1430h98l-241 -240h-101l-157 240h98l127 -138z" />
    <glyph glyph-name="florin" unicode="&#x192;" horiz-adv-x="985" 
d="M51 -100q-67 0 -146 13.5t-126 39.5l86 197q94 -71 203 -66q93 4 152.5 63.5t74.5 137.5l96 549h-182l31 172h243q-30 74 -30 178q0 360 452 364q65 0 144.5 -14.5t126.5 -40.5l-84 -195q-94 71 -203 66q-70 -3 -122 -41.5t-76 -90.5t-38 -103.5t-16 -86.5l-2 -36h342
l-31 -172h-342l-100 -572q-19 -104 -60 -176.5t-103 -112t-131.5 -56t-158.5 -17.5z" />
    <glyph glyph-name="uni0218" unicode="&#x218;" horiz-adv-x="1337" 
d="M637 -18q-280 0 -413 119.5t-95 336.5h207q-19 -105 73 -189.5t261 -84.5q48 0 96 4.5t110 19.5t110.5 39t86.5 68t49 102q18 106 -101 156q-67 28 -255 58q-24 3 -33 5q-99 16 -161 30t-142 46.5t-121.5 75.5t-64.5 116.5t-6 170.5q15 89 63.5 159t116 114.5t157 73.5
t182 40.5t195.5 11.5q279 0 412.5 -120.5t95.5 -336.5h-205q16 106 -75 190.5t-260 84.5q-47 0 -96 -4.5t-110.5 -20t-110 -40t-86.5 -69t-48 -102.5q-7 -37 0.5 -67.5t31.5 -52.5t51.5 -38t74.5 -29t85 -21.5t97 -18.5q206 -37 280 -59q202 -62 252 -190q29 -75 11 -179
q-15 -89 -63.5 -159t-116.5 -114.5t-157.5 -73.5t-182 -40.5t-195.5 -11.5zM766 29l-260 -342h-92l164 342h188z" />
    <glyph glyph-name="uni0219" unicode="&#x219;" horiz-adv-x="1001" 
d="M831 289q7 39 -14 65t-61.5 39t-94.5 21.5t-114 15.5t-119.5 16.5t-111.5 29.5t-89 50.5t-53 82.5t-4 122q27 152 175.5 232.5t361.5 80.5q98 0 172 -16t117 -45t69 -68.5t29 -86t-4 -97.5h-156q7 42 -3 73.5t-32 50t-58 29.5t-73.5 15t-85.5 4q-68 0 -119 -7t-98 -24.5
t-76 -53t-39 -87.5q-9 -51 26.5 -81t99 -41.5t141 -19.5t153.5 -23t136.5 -42t91 -86.5t14.5 -148.5q-26 -147 -152.5 -233.5t-359.5 -86.5q-225 0 -329 90.5t-79 231.5h170q-15 -86 51 -133t211 -47q276 0 307 178zM623 29l-261 -342h-92l164 342h189z" />
    <glyph glyph-name="uni021A" unicode="&#x21a;" horiz-adv-x="1230" 
d="M1427 1229h-479l-215 -1229h-233l215 1229h-477l34 205h1192zM743 29l-258 -342h-92l162 342h188z" />
    <glyph glyph-name="uni021B" unicode="&#x21b;" horiz-adv-x="905" 
d="M655 1298l-82 -292h455l-31 -172h-434l-90 -504q-11 -55 -3 -92t25 -62t48.5 -36.5t67.5 -14.5t82.5 4t92 19t97.5 30l-31 -178q-111 -20 -197.5 -26.5t-173 6.5t-139 51t-76 116.5t-2.5 194.5l86 492h-182l31 172h305l-160 292h311zM639 29l-260 -342h-92l164 342h188z
" />
    <glyph glyph-name="uni0237" unicode="&#x237;" horiz-adv-x="370" 
d="M174 1006h324l-164 -926q-35 -203 -156.5 -293t-365.5 -90l28 153q117 0 188.5 54t94.5 190l123 699h-111zM362 1159q-57 0 -90 40t-24 97q11 57 58 97.5t104 40.5q58 0 90.5 -40t23.5 -98q-11 -57 -58 -97t-104 -40z" />
    <glyph glyph-name="circumflex" unicode="&#x2c6;" horiz-adv-x="645" 
d="M442 1538h-100l244 240h100l158 -240h-101l-125 137z" />
    <glyph glyph-name="caron" unicode="&#x2c7;" horiz-adv-x="645" 
d="M786 1776h101l-244 -240h-100l-158 240h100l125 -138z" />
    <glyph glyph-name="uni02C9" unicode="&#x2c9;" horiz-adv-x="559" 
d="M319 1667h527l-23 -131h-526z" />
    <glyph glyph-name="breve" unicode="&#x2d8;" horiz-adv-x="495" 
d="M381 1757h51q-10 -58 18.5 -90.5t81.5 -34.5q51 -2 98.5 33t57.5 92h45q-18 -101 -73 -161t-144 -60q-174 0 -135 221z" />
    <glyph glyph-name="dotaccent" unicode="&#x2d9;" horiz-adv-x="331" 
d="M436 1536q-38 0 -61 28t-17 66q8 38 40.5 66t70.5 28q40 0 63 -28t15 -66q-6 -38 -38.5 -66t-72.5 -28z" />
    <glyph glyph-name="ring" unicode="&#x2da;" horiz-adv-x="428" 
d="M535 1817q64 0 96.5 -38.5t21.5 -101.5q-12 -64 -57.5 -102.5t-110.5 -38.5q-64 0 -96.5 38t-21.5 103q12 63 58 101.5t110 38.5zM496 1595q33 0 61.5 23t34.5 59q6 34 -14.5 57t-53.5 23t-61.5 -23t-34.5 -57q-6 -36 14.5 -59t53.5 -23z" />
    <glyph glyph-name="ogonek" unicode="&#x2db;" horiz-adv-x="368" 
d="M227 -393q-101 -21 -156 25.5t-42 121.5q17 97 89 170.5t179 73.5l-10 -59q-59 0 -97.5 -41t-48.5 -99q-1 -8 -1.5 -11.5t-1 -13t1 -14.5t4 -13.5t7.5 -13.5t13.5 -10t20 -7t27.5 -2t36 3z" />
    <glyph glyph-name="tilde" unicode="&#x2dc;" horiz-adv-x="618" 
d="M348 1452q39 40 79 56.5t72.5 12t69.5 -14t69 -20.5t72 -9.5t78 20.5q8 5 15 0t4 -16q-2 -15 -27 -43q-43 -42 -85 -59t-75 -12t-69.5 15t-67.5 21t-69.5 8t-75.5 -27q-5 -3 -10 -1.5t-8 8.5t-1 16q5 21 29 45z" />
    <glyph glyph-name="hungarumlaut" unicode="&#x2dd;" horiz-adv-x="696" 
d="M694 1878l-260 -342h-92l164 342h188zM956 1878l-260 -342h-92l164 342h188z" />
    <glyph glyph-name="uni0326" unicode="&#x326;" horiz-adv-x="434" 
d="M362 0l-258 -342h-92l162 342h188z" />
    <glyph glyph-name="uni0394" unicode="&#x394;" horiz-adv-x="1232" 
d="M283 111h706l-201 862zM1161 0h-1089l673 1153h148z" />
    <glyph glyph-name="uni03A9" unicode="&#x3a9;" horiz-adv-x="1808" 
d="M72 0l26 154h301q-91 96 -122.5 264.5t2.5 343.5q27 150 96.5 276.5t178 222t264.5 149.5t343 54q108 0 200.5 -18t162.5 -52t125.5 -82t89 -108t53.5 -130t19.5 -148.5t-13.5 -163.5q-31 -181 -120.5 -346.5t-213.5 -261.5h299l-26 -154h-557l28 154q89 61 161.5 144
t117 167.5t71 158t37.5 138.5q18 103 -5.5 196t-82.5 162.5t-157 110.5t-222 41q-164 0 -305.5 -70t-229.5 -186t-112 -254q-12 -65 -11.5 -138.5t15 -158t58.5 -167.5t112 -144l-28 -154h-555z" />
    <glyph glyph-name="uni03BC" unicode="&#x3bc;" horiz-adv-x="1275" 
d="M23 -446l258 1452h211l-123 -699q-18 -96 33.5 -161.5t152.5 -65.5q105 0 205.5 105.5t128.5 263.5l98 557h213l-178 -1006h-111l2 362h-20q-30 -171 -157 -281t-283 -110q-74 0 -140 29l-77 -446h-213z" />
    <glyph glyph-name="Wgrave" unicode="&#x1e80;" horiz-adv-x="2357" 
d="M1516 0l-84 1378h-19l-569 -1378h-451l-141 1434h242l122 -1379h21l569 1379h451l84 -1379h20l609 1379h241l-645 -1434h-450zM1219 1757h219l75 -221h-122z" />
    <glyph glyph-name="wgrave" unicode="&#x1e81;" horiz-adv-x="1966" 
d="M1528 41l414 965h212l-462 -1006h-424l-90 985h-41l-439 -985h-424l-106 1006h213l74 -965h82l411 965h424l74 -965h82zM897 1411h219l78 -221h-125z" />
    <glyph glyph-name="Wacute" unicode="&#x1e82;" horiz-adv-x="2357" 
d="M1516 0l-84 1378h-19l-569 -1378h-451l-141 1434h242l122 -1379h21l569 1379h451l84 -1379h20l609 1379h241l-645 -1434h-450zM1737 1757l-250 -221h-125l156 221h219z" />
    <glyph glyph-name="wacute" unicode="&#x1e83;" horiz-adv-x="1966" 
d="M1528 41l414 965h212l-462 -1006h-424l-90 985h-41l-439 -985h-424l-106 1006h213l74 -965h82l411 965h424l74 -965h82zM1417 1411l-252 -221h-123l154 221h221z" />
    <glyph glyph-name="Wdieresis" unicode="&#x1e84;" horiz-adv-x="2357" 
d="M1516 0l-84 1378h-19l-569 -1378h-451l-141 1434h242l122 -1379h21l569 1379h451l84 -1379h20l609 1379h241l-645 -1434h-450zM1319 1536q-38 0 -61 28t-17 66q8 38 40.5 66t70.5 28q40 0 63 -28t15 -66q-6 -38 -38.5 -66t-72.5 -28zM1569 1536q-38 0 -60.5 28t-15.5 66
q6 38 38.5 66t72.5 28q38 0 60.5 -28t14.5 -66q-6 -38 -38 -66t-72 -28z" />
    <glyph glyph-name="wdieresis" unicode="&#x1e85;" horiz-adv-x="1966" 
d="M1528 41l414 965h212l-462 -1006h-424l-90 985h-41l-439 -985h-424l-106 1006h213l74 -965h82l411 965h424l74 -965h82zM999 1190q-40 0 -62.5 28t-14.5 66q6 38 39 66t71 28t61 -28t17 -66q-8 -38 -40.5 -66t-70.5 -28zM1249 1190q-39 0 -61.5 27.5t-16.5 66.5
q6 38 39.5 66t71.5 28t61 -28t17 -66q-8 -38 -40.5 -66t-70.5 -28z" />
    <glyph glyph-name="endash" unicode="&#x2013;" horiz-adv-x="690" 
d="M184 641h547l-31 -172h-546z" />
    <glyph glyph-name="emdash" unicode="&#x2014;" horiz-adv-x="1153" 
d="M184 641h1010l-31 -172h-1009z" />
    <glyph glyph-name="quoteleft" unicode="&#x2018;" horiz-adv-x="434" 
d="M283 1194l258 342h92l-162 -342h-188z" />
    <glyph glyph-name="quoteright" unicode="&#x2019;" horiz-adv-x="434" 
d="M633 1536l-258 -342h-92l161 342h189z" />
    <glyph glyph-name="quotesinglbase" unicode="&#x201a;" horiz-adv-x="434" 
d="M391 160l-260 -342h-92l164 342h188z" />
    <glyph glyph-name="quotedblleft" unicode="&#x201c;" horiz-adv-x="702" 
d="M283 1194l258 342h92l-162 -342h-188zM551 1194l260 342h92l-164 -342h-188z" />
    <glyph glyph-name="quotedblright" unicode="&#x201d;" horiz-adv-x="702" 
d="M903 1536l-260 -342h-92l164 342h188zM633 1536l-258 -342h-92l161 342h189z" />
    <glyph glyph-name="quotedblbase" unicode="&#x201e;" horiz-adv-x="702" 
d="M662 164l-261 -342h-92l164 342h189zM391 164l-258 -342h-92l162 342h188z" />
    <glyph glyph-name="ellipsis" unicode="&#x2026;" horiz-adv-x="1517" 
d="M205 -29q-57 0 -90.5 40.5t-24.5 97.5q11 57 58 98t104 41q58 0 91 -40.5t24 -98.5q-11 -57 -58 -97.5t-104 -40.5zM754 -29q-57 0 -90.5 40.5t-24.5 97.5q11 57 58 98t104 41q58 0 90.5 -40.5t23.5 -98.5q-11 -57 -57.5 -97.5t-103.5 -40.5zM1303 -29q-57 0 -90.5 40.5
t-24.5 97.5q11 57 58 98t104 41q58 0 90.5 -40.5t23.5 -98.5q-11 -57 -57.5 -97.5t-103.5 -40.5z" />
    <glyph glyph-name="perthousand" unicode="&#x2030;" horiz-adv-x="2861" 
d="M512 0l999 1434h148l-1002 -1434h-145zM1184 494q42 238 164.5 364.5t322.5 126.5t278 -126.5t36 -364.5q-42 -237 -166.5 -365.5t-321.5 -128.5t-276 128t-37 366zM1645 838q-56 0 -103 -20t-79 -52.5t-57 -79t-39.5 -93t-23.5 -99.5q-10 -54 -12 -100.5t6.5 -92.5
t29.5 -78.5t61 -52.5t96 -20q70 0 124.5 29t89 81t55 108.5t32.5 125.5q10 53 12 99.5t-6.5 92.5t-29 79t-60.5 53t-96 20zM2075 494q43 238 166 364.5t321 126.5q200 0 277.5 -126.5t35.5 -364.5t-165.5 -366t-321.5 -128q-197 0 -276 128t-37 366zM2537 838
q-71 0 -126 -29.5t-89.5 -81.5t-55 -108.5t-32.5 -124.5q-59 -344 181 -344t303 344q14 62 11.5 123.5t-18 110.5t-60 79.5t-114.5 30.5zM254 1038q42 239 165 366.5t322 127.5q200 0 278 -127t36 -367q-42 -238 -165.5 -365.5t-322.5 -127.5q-197 0 -276 127.5t-37 365.5z
M715 1382q-70 0 -124.5 -29.5t-89 -81.5t-55 -108.5t-32.5 -124.5q-14 -62 -11.5 -123.5t17.5 -110.5t59.5 -79.5t114.5 -30.5q239 0 303 344q14 62 11.5 123.5t-17.5 110.5t-60 79.5t-116 30.5z" />
    <glyph glyph-name="guilsinglleft" unicode="&#x2039;" horiz-adv-x="497" 
d="M489 356l-26 -147l-303 295l26 147l408 295l-27 -145l-243 -223z" />
    <glyph glyph-name="guilsinglright" unicode="&#x203a;" horiz-adv-x="497" 
d="M135 356l242 222l-164 223l27 145l301 -295l-27 -147l-405 -295z" />
    <glyph glyph-name="fraction" unicode="&#x2044;" horiz-adv-x="1126" 
d="M53 -102l1108 1536h148l-1108 -1536h-148z" />
    <glyph glyph-name="franc" unicode="&#x20a3;" horiz-adv-x="1148" 
d="M299 350h-166l31 174h166l159 910h881l-37 -213h-647l-74 -424h508l-28 -160h-508l-21 -113h166l-31 -174h-166l-61 -350h-233z" />
    <glyph glyph-name="lira" unicode="&#x20a4;" horiz-adv-x="1206" 
d="M72 0l34 195h205l39 213h-207l35 190h205l14 80h-207l35 194h207l19 115q37 208 161.5 294.5t360.5 86.5q59 0 111.5 -12t85.5 -25.5t71.5 -42t55 -44t49.5 -48.5l-86 -178q-129 178 -299 178q-59 0 -102.5 -8.5t-84.5 -31.5t-67.5 -69t-38.5 -116l-19 -99h246l-35 -194
h-244l-14 -80h244l-33 -190h-246l-37 -213h533l-33 -195h-958z" />
    <glyph glyph-name="peseta" unicode="&#x20a7;" horiz-adv-x="1763" 
d="M123 295l145 817h387q115 0 168 -72.5t37 -171.5h88l13 168h133l-47 -168h260l-19 -98h-248l-45 -260q-10 -53 5 -86t49 -43.5t78 -7t96 21.5l-19 -100q-62 -12 -111.5 -15.5t-98.5 3.5t-79 29t-43.5 66.5t-1.5 110.5l50 281h-91q-38 -71 -105.5 -115.5t-156.5 -44.5
h-254l-57 -315h-133zM1671 459q6 33 -14 51.5t-56 25.5t-80.5 11t-88.5 11t-78.5 21.5t-52.5 47.5t-9 84q13 79 96 129.5t193 50.5q118 0 184 -52.5t54 -127.5h-90q8 45 -47 71.5t-115 26.5q-154 0 -170 -98q-6 -32 14 -51t56 -25.5t80.5 -10.5t88 -11.5t78 -22t52 -47.5
t8.5 -84q-13 -78 -96.5 -130.5t-192.5 -52.5q-117 0 -183.5 53t-54.5 128h90q-7 -45 48 -72t114 -27q63 0 113 23t59 78zM330 709h254q64 0 114.5 47t59.5 106q11 58 -22.5 105t-96.5 47h-256z" />
    <glyph glyph-name="Euro" unicode="&#x20ac;" horiz-adv-x="1460" 
d="M209 782l31 174h143q89 248 259 378t417 130q226 0 348.5 -108.5t144.5 -317.5h-213q-47 254 -311 254q-304 0 -438 -336h489l-30 -174h-512q-2 -11 -6.5 -32.5t-6.5 -32.5q-4 -15 -8 -49h512l-31 -174h-493q11 -353 321 -353q324 0 457 381h199q-91 -265 -265 -409
t-421 -144q-249 0 -373.5 135t-122.5 390h-139l28 174h125q3 26 9 49q7 38 12 65h-125z" />
    <glyph glyph-name="uni2113" unicode="&#x2113;" horiz-adv-x="823" 
d="M793 242q-117 -139 -246.5 -199t-224.5 -27q-106 38 -154.5 146.5t-20.5 269.5l109 612q48 275 139 383.5t291 108.5q273 0 267 -172q-5 -154 -225 -408q-143 -165 -331 -317l-63 -358q-8 -45 6 -85.5t49 -66.5q28 -22 70 -23.5t93 17.5t113.5 65t125.5 115zM414 727
q135 101 241 302q94 179 102 314q-1 120 -75 127q-30 0 -57 -16.5t-45.5 -39.5t-36 -62.5t-27.5 -72t-20.5 -81t-15 -76.5t-11 -72.5t-8.5 -54.5z" />
    <glyph glyph-name="trademark" unicode="&#x2122;" horiz-adv-x="1349" 
d="M309 1346l15 88h682l67 -543h10l258 543h189l-105 -596h-98l90 505h-8l-244 -505h-192l-66 508h-8l-90 -508h-96l90 508h-199l-88 -508h-98l90 508h-199z" />
    <glyph glyph-name="product" unicode="&#x220f;" horiz-adv-x="1212" 
d="M72 0l252 1434h1071l-254 -1434h-234l223 1262h-602l-223 -1262h-233z" />
    <glyph glyph-name="summation" unicode="&#x2211;" horiz-adv-x="1300" 
d="M1006 485l-842 -370l-4 -21h1085l-41 -233h-1157l80 452l881 394l4 20l-744 393l80 453h1157l-41 -234h-1085l-4 -20l712 -371z" />
    <glyph glyph-name="minus" unicode="&#x2212;" horiz-adv-x="690" 
d="M184 641h547l-31 -172h-546z" />
    <glyph glyph-name="uni2215" unicode="&#x2215;" horiz-adv-x="1126" 
d="M53 -102l1108 1536h148l-1108 -1536h-148z" />
    <glyph glyph-name="uni2219" unicode="&#x2219;" horiz-adv-x="419" 
d="M324 649q-57 0 -90 40t-23 97q9 57 57 97.5t105 40.5t90 -40.5t22 -97.5q-9 -57 -56.5 -97t-104.5 -40z" />
    <glyph glyph-name="radical" unicode="&#x221a;" horiz-adv-x="1157" 
d="M156 481l221 -4l100 -356h8l615 790h147l-715 -911h-147l-106 365l-142 2z" />
    <glyph glyph-name="infinity" unicode="&#x221e;" horiz-adv-x="1032" 
d="M160 504q18 100 97.5 160.5t176.5 60.5q67 0 119 -31.5t70 -87.5q39 55 101.5 86t129.5 31q97 0 156 -60.5t41 -160.5t-98 -160.5t-177 -60.5q-67 0 -118.5 31t-71.5 87q-38 -54 -100.5 -85t-129.5 -31q-97 0 -155.5 60.5t-40.5 160.5zM420 639q-53 0 -97 -34t-55 -101
q-13 -68 19 -102.5t84 -34.5q70 0 127 38t67 99t-32.5 98t-112.5 37zM840 639q-70 0 -127.5 -38t-67.5 -99t33 -99t113 -38q52 0 96 35t55 102q13 67 -19 102t-83 35z" />
    <glyph glyph-name="integral" unicode="&#x222b;" horiz-adv-x="923" 
d="M272 33q-47 0 -101 11.5t-85 33.5l64 166q64 -61 139 -56q64 3 107 53t55 115l141 803q16 89 46 150.5t74 94.5t92.5 47t110.5 15q47 0 101.5 -11.5t85.5 -33.5l-64 -166q-64 61 -139 56q-64 -3 -107 -53t-55 -115l-141 -803q-16 -89 -46.5 -150.5t-74 -94.5t-92.5 -47
t-111 -15z" />
    <glyph glyph-name="approxequal" unicode="&#x2248;" horiz-adv-x="808" 
d="M180 618q6 26 39 52q53 47 108 66.5t101 14.5t98 -16.5t97.5 -25t102 -11.5t108.5 25q10 5 19.5 -1.5t6.5 -19.5q-2 -16 -35 -49q-50 -43 -100 -64t-93 -21t-85 9t-83 21.5t-81 20t-85 1.5t-89 -30q-12 -6 -22 2.5t-7 25.5zM141 391q5 22 37 51q53 47 108.5 66.5
t101.5 14.5t98.5 -16.5t97.5 -24.5t101 -11t108 25q11 5 21 -1.5t7 -19.5q-5 -20 -37 -49q-58 -50 -116.5 -70t-105 -14.5t-97.5 18t-95 25.5t-97.5 9t-104.5 -32q-12 -6 -21.5 3t-5.5 26z" />
    <glyph glyph-name="notequal" unicode="&#x2260;" horiz-adv-x="634" 
d="M432 352h195l-31 -172h-260l-60 -104h-145l57 104h-86l31 172h154l63 117h-196l30 172h265l69 125h148l-70 -125h80l-29 -172h-149z" />
    <glyph glyph-name="lessequal" unicode="&#x2264;" horiz-adv-x="634" 
d="M623 397l-27 -147l-412 254l27 147l502 254l-27 -145l-338 -182zM600 201l-22 -123h-492l20 123h494z" />
    <glyph glyph-name="greaterequal" unicode="&#x2265;" horiz-adv-x="634" 
d="M154 397l338 181l-275 182l25 145l411 -254l-24 -147l-502 -254zM106 201h494l-22 -123h-492z" />
    <glyph glyph-name="lozenge" unicode="&#x25ca;" horiz-adv-x="1232" 
d="M201 729l600 729h145l344 -729l-600 -729h-147zM373 729l272 -571l473 571l-272 571z" />
    <glyph glyph-name="asciicircum" horiz-adv-x="1171" 
d="M659 1141h-145l262 395h148l123 -395h-146l-78 245z" />
    <glyph glyph-name="less" horiz-adv-x="1171" 
d="M866 397l-26 -147l-412 254l27 147l501 254l-26 -145l-338 -182z" />
    <glyph glyph-name="tilde.case" horiz-adv-x="808" 
d="M389 1634q46 41 92.5 61t88.5 21t83.5 -7t84.5 -19.5t84 -19.5t89 -4t93 24q10 3 20 -3t6 -18q-3 -20 -35 -49q-50 -44 -100 -65t-93 -21t-85 9t-83 21t-81 20t-85 2t-89 -30q-12 -8 -22 1t-7 26q8 23 39 51z" />
    <glyph glyph-name="macron.case" horiz-adv-x="1153" 
d="M373 1710h1009l-30 -172h-1010z" />
    </font>
</defs>
</svg>
